<svg width="50" height="61" viewBox="0 0 50 61" fill="none" xmlns="http://www.w3.org/2000/svg">
<path d="M6.08961 60.9905C5.7058 60.892 5.31717 60.8063 4.93657 60.6919C3.58242 60.2896 2.38614 59.4852 1.50996 58.3878C0.633777 57.2904 0.120084 55.953 0.0385418 54.5571C0.0224827 54.2808 0.00802955 54.0029 0.00802955 53.7249C0.00267652 38.2463 0 22.7661 0 7.28428C0 5.10542 0.668058 3.23464 2.32696 1.7593C3.51948 0.67072 5.07405 0.0520583 6.69664 0.0203371C8.15963 -0.0161891 9.62582 0.00763235 11.0904 0.00763235C21.6894 0.00763235 32.2884 0.00763235 42.8874 0.00763235C46.4204 0.00763235 49.2243 2.26114 49.8715 5.62472C49.9651 6.17234 50.0065 6.72743 49.9952 7.28269C50.0016 22.7613 50.0016 38.2415 49.9952 53.7234C49.9952 57.5554 47.8625 60.1313 44.0694 60.9063C44.012 60.9258 43.9579 60.9536 43.9088 60.9889H26.3241C26.1635 60.7935 25.9483 60.6204 25.8584 60.3981C25.5902 59.7375 26.0864 59.2039 26.9504 59.2023C32.2081 59.2023 37.4659 59.2023 42.7236 59.2023C43.1643 59.2051 43.6045 59.1695 44.0389 59.0959C45.132 58.8941 46.1274 58.3414 46.8706 57.5234C47.6139 56.7054 48.0636 55.6678 48.15 54.5714C48.1725 54.276 48.1821 53.9774 48.1821 53.6805C48.1821 38.223 48.1848 22.7624 48.1901 7.29858C48.1901 4.97043 47.2748 3.214 45.0972 2.24208C44.4556 1.96358 43.7631 1.81819 43.0625 1.81488C31.0203 1.79053 18.9786 1.78683 6.93753 1.80377C4.17215 1.80377 2.02184 3.854 1.83716 6.58393C1.82592 6.74274 1.81628 6.90155 1.81628 7.06036C1.81628 22.6809 1.81628 38.3003 1.81628 53.9187C1.81628 56.1293 2.77983 57.8032 4.82736 58.7163C5.58209 59.033 6.3939 59.1951 7.21375 59.1927C12.4908 59.2325 17.7694 59.2118 23.048 59.2134C23.9088 59.2134 24.4066 59.7502 24.14 60.4092C24.0485 60.6316 23.8333 60.8047 23.6743 61L6.08961 60.9905Z" fill="#266E99" fill-opacity="0.4"/>
<path d="M18.2656 45.6018C18.7811 46.0783 19.2533 46.4721 19.6901 46.9072C21.1225 48.3365 21.1836 50.3566 19.8507 51.6874C18.5177 53.0182 16.4782 52.9579 15.0201 51.5477C14.5801 51.1173 14.1497 50.6806 13.647 50.1755C13.1492 50.6933 12.7076 51.176 12.2386 51.6318C10.8527 52.9754 8.81805 52.9944 7.49478 51.6858C6.17151 50.3772 6.21005 48.3508 7.57347 46.993C8.03758 46.5277 8.53702 46.1005 9.07981 45.6018C8.49848 45.0539 7.9894 44.6045 7.51726 44.1217C6.21808 42.7925 6.20524 40.7947 7.47069 39.5163C8.76506 38.2077 10.7869 38.1823 12.1712 39.475C12.6642 39.9371 13.1219 40.4358 13.7546 41.0774C14.2862 40.4818 14.731 39.8895 15.2706 39.4019C15.6889 39.0126 16.2033 38.7388 16.7623 38.6078C17.3213 38.4769 17.9052 38.4935 18.4557 38.6559C19.0061 38.8183 19.5038 39.1209 19.8988 39.5333C20.2939 39.9457 20.5724 40.4535 20.7066 41.0059C20.8584 41.5451 20.861 42.1148 20.7141 42.6553C20.5672 43.1959 20.2762 43.6875 19.8715 44.0788C19.3849 44.5775 18.8614 45.0396 18.2656 45.6018ZM19.0043 42.0413C18.9835 41.1901 18.7121 40.7296 18.1532 40.4675C17.5943 40.2055 17.0018 40.2515 16.5312 40.6867C15.8278 41.3346 15.1614 42.0223 14.4725 42.6877C13.8799 43.261 13.4656 43.2626 12.8762 42.6877C12.2467 42.0842 11.6348 41.449 11.0005 40.8439C10.2778 40.1531 9.38012 40.134 8.75221 40.774C8.15963 41.3839 8.20138 42.27 8.87265 42.9513C9.47487 43.5611 10.0947 44.1551 10.7002 44.7617C11.3056 45.3684 11.3249 45.7876 10.6841 46.4292C10.0915 47.0216 9.48771 47.6012 8.89835 48.1968C8.20138 48.9035 8.15481 49.8055 8.76827 50.4201C9.38172 51.0347 10.2907 51.0125 11.0165 50.3201C11.6493 49.7118 12.2627 49.0829 12.8922 48.4731C13.4431 47.9379 13.8959 47.9363 14.4452 48.4731C15.0763 49.0845 15.6897 49.7118 16.3209 50.3217C17.0403 51.0156 17.9396 51.0522 18.5691 50.4281C19.1987 49.8039 19.1408 48.9194 18.4455 48.2047C17.9428 47.6918 17.4273 47.1915 16.9167 46.6865C15.9033 45.6844 15.9049 45.4954 16.9375 44.4743C17.4466 43.9693 17.9862 43.4881 18.4567 42.9497C18.6719 42.6674 18.8555 42.3628 19.0043 42.0413Z" fill="#266E99" fill-opacity="0.4"/>
<path d="M11.4678 29.7558C13.3291 27.9136 15.0538 26.2033 16.7785 24.4834C17.7052 23.5607 18.8116 23.224 20.0787 23.5623C20.6192 23.7053 21.1139 23.9823 21.5161 24.367C21.9183 24.7516 22.2147 25.2313 22.3774 25.7607C22.54 26.2902 22.5635 26.8519 22.4457 27.3928C22.3278 27.9337 22.0725 28.436 21.7039 28.8522C21.5866 28.9872 21.4598 29.1142 21.3329 29.2397C18.9208 31.6271 16.5082 34.0125 14.0951 36.3956C12.502 37.9663 10.5878 37.9679 9.00434 36.4068C7.90911 35.3285 6.80263 34.2628 5.7347 33.1591C5.27202 32.682 4.96791 32.0765 4.86314 31.4236C4.75837 30.7707 4.85796 30.1018 5.14855 29.5065C5.43158 28.9208 5.88411 28.4314 6.44876 28.1003C7.01341 27.7692 7.66476 27.6114 8.32022 27.6468C9.13263 27.68 9.90095 28.0212 10.4657 28.5997C10.8142 28.9507 11.1177 29.3477 11.4678 29.7558ZM8.37482 29.4176C7.53172 29.4573 7.0387 29.7257 6.78176 30.3101C6.64403 30.5903 6.60167 30.907 6.661 31.213C6.72034 31.519 6.87819 31.7978 7.11097 32.0077C8.15481 33.0527 9.20454 34.0919 10.2602 35.1252C11.1546 36.0034 11.9255 36.0082 12.8087 35.1379C14.3868 33.5826 15.9622 32.0252 17.5349 30.4657C18.4439 29.5668 19.3608 28.6775 20.2553 27.7659C20.4863 27.5415 20.6379 27.2493 20.6873 26.9328C20.7368 26.6163 20.6816 26.2925 20.5299 26.0095C20.3925 25.7293 20.1628 25.5036 19.8786 25.3694C19.5944 25.2353 19.2726 25.2006 18.9658 25.271C18.5854 25.3798 18.239 25.5819 17.9589 25.8586C16.0832 27.6802 14.2348 29.5287 12.3655 31.363C11.7456 31.9744 11.3441 31.9744 10.7275 31.3741C10.2457 30.8977 9.7832 30.3958 9.2677 29.9559C8.9889 29.7476 8.6898 29.5672 8.37482 29.4176Z" fill="#266E99" fill-opacity="0.4"/>
<path d="M11.4806 14.6483C13.3483 12.795 15.0779 11.0544 16.8364 9.34245C18.2463 7.96716 20.387 8.01957 21.6541 9.42186C22.7911 10.6733 22.8425 12.5869 21.6396 13.8098C19.0509 16.4418 16.4279 19.0383 13.7707 21.5994C12.4859 22.8333 10.5589 22.7809 9.25646 21.5517C8.07023 20.4263 6.90702 19.277 5.76682 18.104C5.16243 17.4936 4.82414 16.6732 4.82459 15.819C4.82503 14.9647 5.16417 14.1447 5.7692 13.5349C6.37422 12.9252 7.19689 12.5743 8.06057 12.5577C8.92426 12.5411 9.76009 12.8601 10.3886 13.4461C10.7692 13.7923 11.0808 14.21 11.4806 14.6483ZM20.8351 11.6309C20.6183 11.2323 20.4946 10.8369 20.2409 10.5669C19.6451 9.92052 18.7313 9.98881 18.0103 10.6971C16.1169 12.5615 14.2364 14.4355 12.3446 16.2967C11.7649 16.8684 11.3249 16.8637 10.7387 16.2967C10.2377 15.8108 9.7543 15.3058 9.24522 14.8277C8.57395 14.1925 7.69552 14.1798 7.09009 14.7658C6.48466 15.3518 6.47985 16.2777 7.13987 16.9415C8.22547 18.0341 9.32017 19.1161 10.424 20.1876C11.1193 20.8609 11.9721 20.872 12.6722 20.1876C15.1935 17.7133 17.703 15.2253 20.2007 12.7235C20.4705 12.4535 20.6054 12.039 20.8351 11.6341V11.6309Z" fill="#266E99" fill-opacity="0.4"/>
<path d="M43.7755 11.5451C43.9758 11.5377 44.1764 11.543 44.3761 11.561C44.5797 11.5728 44.7715 11.6592 44.9141 11.8034C45.0567 11.9476 45.1397 12.1392 45.1469 12.3408C45.1828 12.5489 45.136 12.7627 45.0163 12.9376C44.8966 13.1124 44.7133 13.2349 44.5046 13.2793C44.2895 13.3258 44.0691 13.3429 43.8494 13.3302C38.1901 13.3302 32.532 13.3302 26.8749 13.3302C26.6357 13.3421 26.3959 13.3191 26.1635 13.2619C25.9651 13.2127 25.7928 13.0914 25.6808 12.9222C25.5689 12.7529 25.5256 12.5481 25.5597 12.3487C25.564 12.1457 25.645 11.9516 25.7868 11.8046C25.9285 11.6577 26.1208 11.5685 26.3257 11.5547C26.5259 11.5364 26.7271 11.5316 26.9279 11.5404L43.7755 11.5451Z" fill="#266E99" fill-opacity="0.4"/>
<path d="M35.2947 26.6352C38.1628 26.6352 41.031 26.6352 43.8991 26.6352C44.1738 26.6352 44.5271 26.6225 44.7021 26.7734C44.9269 26.9671 45.1405 27.3356 45.1132 27.604C45.0859 27.8723 44.792 28.1661 44.5383 28.3313C44.3472 28.4552 44.034 28.4139 43.7739 28.4139C38.1586 28.4139 32.5416 28.4139 26.9231 28.4139C26.8235 28.4139 26.7223 28.4139 26.6228 28.4139C25.9242 28.3821 25.5211 28.0343 25.542 27.4817C25.5629 26.929 25.9499 26.6336 26.6276 26.632C29.5172 26.6299 32.4062 26.631 35.2947 26.6352Z" fill="#266E99" fill-opacity="0.4"/>
<path d="M26.9279 43.496C26.727 43.5043 26.5258 43.499 26.3257 43.4801C26.1222 43.4681 25.9306 43.3815 25.7881 43.2374C25.6456 43.0932 25.5625 42.9018 25.5548 42.7004C25.5193 42.4907 25.5673 42.2755 25.6889 42.1002C25.8106 41.9248 25.9962 41.803 26.2068 41.7602C26.422 41.7149 26.6424 41.6984 26.8621 41.711H43.8413C44.0609 41.6972 44.2814 41.7132 44.4965 41.7586C44.695 41.8112 44.8689 41.93 44.9888 42.095C45.1087 42.2599 45.1672 42.4608 45.1543 42.6636C45.1415 42.8663 45.0581 43.0584 44.9183 43.2073C44.7785 43.3561 44.5909 43.4525 44.3873 43.4801C44.1878 43.4997 43.9871 43.5051 43.7867 43.496H26.9279Z" fill="#266E99" fill-opacity="0.4"/>
<path d="M30.9619 17.5005C32.3446 17.5005 33.7289 17.5005 35.1116 17.5005C35.8455 17.5005 36.2245 17.8022 36.2357 18.3644C36.247 18.9266 35.8391 19.2839 35.0939 19.2839C32.2868 19.2839 29.4797 19.2839 26.6726 19.2839C25.9676 19.2839 25.5484 18.952 25.5388 18.4073C25.5243 17.834 25.937 17.5021 26.6886 17.5005C28.1147 17.4973 29.5375 17.5005 30.9619 17.5005Z" fill="#266E99" fill-opacity="0.4"/>
<path d="M30.9459 32.5922C32.3687 32.5922 33.7916 32.581 35.2144 32.5922C35.966 32.6001 36.3883 33.1019 36.202 33.7292C36.0703 34.1755 35.7202 34.3645 35.2899 34.3645C32.3639 34.3645 29.4379 34.3788 26.512 34.3645C25.8985 34.3645 25.5291 33.969 25.5484 33.4545C25.5677 32.94 25.9387 32.6001 26.5634 32.5953C28.0199 32.5842 29.4829 32.5922 30.9459 32.5922Z" fill="#266E99" fill-opacity="0.4"/>
<path d="M30.9282 49.4514C29.5038 49.4514 28.0809 49.4514 26.6565 49.4514C25.9451 49.4514 25.5436 49.1226 25.5324 48.57C25.5211 48.0173 25.9451 47.6695 26.6404 47.6679C29.4668 47.6679 32.2938 47.6679 35.1212 47.6679C35.8262 47.6679 36.2293 48.0046 36.2309 48.5605C36.2325 49.1163 35.8455 49.4482 35.1293 49.4514C33.7353 49.4546 32.3318 49.4514 30.9282 49.4514Z" fill="#266E99" fill-opacity="0.4"/>
</svg>
