<svg width="60" height="61" viewBox="0 0 60 61" fill="none" xmlns="http://www.w3.org/2000/svg">
<path d="M15.8595 0H47.1567C47.4097 0.21862 47.6753 0.423258 47.9156 0.659672C51.7326 4.48976 55.5495 8.31984 59.3665 12.1499C59.5745 12.3438 59.7386 12.5803 59.8478 12.8434C59.9569 13.1066 60.0084 13.3902 59.9989 13.6752C59.9854 27.6152 59.9795 41.5543 59.9812 55.4926C59.9966 56.0659 59.938 56.6389 59.8067 57.197C59.1642 59.6006 57.2177 61 54.5858 61C42.0227 61 29.4567 61 16.8877 61C13.569 61 11.4557 58.8697 11.4493 55.5231C11.4493 53.2593 11.4177 50.9943 11.4683 48.7319C11.4835 48.0519 11.252 47.7455 10.6639 47.443C4.81705 44.4281 1.27957 39.6337 0.243749 33.1336C-1.10193 24.6951 3.21842 16.5935 10.8764 12.8528C11.3102 12.6405 11.4607 12.394 11.4557 11.9097C11.4367 9.52648 11.424 7.14327 11.4797 4.76133C11.5138 3.32251 12.1753 2.14934 13.2579 1.20241C14.018 0.540194 14.9236 0.254209 15.8595 0ZM13.4679 11.7025C21.7051 9.68409 28.8357 11.4686 34.1754 18.1569C39.5152 24.8451 39.7251 32.2134 35.9385 39.9223C36.1054 40.0285 36.2635 40.1479 36.4115 40.2794C39.3204 43.2028 42.2508 46.0932 45.1116 49.056C47.3325 51.354 46.8368 55.0655 44.1606 56.803C42.137 58.116 39.5658 57.7957 37.7243 55.9603C34.9183 53.1657 32.124 50.358 29.3416 47.5371C28.9141 47.1011 28.6232 47.0287 28.0592 47.3274C24.6222 49.1809 20.6875 49.8874 16.8245 49.3445C15.7166 49.1971 14.6213 48.9416 13.497 48.7319C13.4881 48.8221 13.4679 48.9187 13.4679 49.014C13.4679 51.3019 13.4679 53.5851 13.4679 55.8637C13.4662 56.1205 13.495 56.3765 13.5539 56.6263C13.9333 58.1376 15.1006 58.974 16.8295 58.974C29.3745 58.974 41.9182 58.9549 54.4631 58.9943C56.4399 58.9943 57.9854 57.755 57.9778 55.4532C57.9336 41.9534 57.9563 28.4523 57.9563 14.9513V14.2357H57.2165C54.5504 14.2357 51.8831 14.2433 49.2157 14.2357C47.0467 14.2357 45.8452 13.013 45.8427 10.8395C45.8427 8.13893 45.8427 5.4388 45.8427 2.7391V2.05909C45.6504 2.04638 45.5164 2.03113 45.3823 2.03113C35.8023 2.03113 26.2211 2.03113 16.6386 2.03113C14.7415 2.03113 13.4932 3.31234 13.4767 5.21637C13.4603 6.76577 13.4767 8.31391 13.4767 9.86204L13.4679 11.7025ZM19.2503 12.9278C9.77736 12.8948 2.07509 20.6392 2.03968 30.2331C2.00553 39.7532 9.71665 47.4291 19.3666 47.4824C28.6346 47.5333 36.371 39.7291 36.4317 30.2661C36.4962 20.7447 28.7813 12.9647 19.2503 12.9278ZM30.662 45.9152C33.4609 48.7497 36.2964 51.6235 39.1357 54.4935C39.2507 54.6028 39.3737 54.7031 39.5038 54.7935C40.1333 55.2522 40.9136 55.4515 41.6847 55.3506C42.4558 55.2497 43.1592 54.8562 43.6509 54.2507C44.674 52.9708 44.5248 51.3184 43.2424 50.0233C40.5443 47.293 37.8377 44.5688 35.1227 41.8504C35.052 41.7809 34.9772 41.7155 34.8989 41.6547C33.4647 43.0948 32.0633 44.5044 30.662 45.9152ZM47.8625 3.58943C47.8625 6.07178 47.8625 8.48804 47.8625 10.9043C47.8625 11.8423 48.209 12.1906 49.1538 12.1944C51.424 12.202 53.6942 12.1944 55.9644 12.1944C56.1004 12.1854 56.2357 12.1667 56.3691 12.1385L47.8625 3.58943Z" fill="#266E99"/>
<path d="M29.6553 8.12579C26.1005 8.12579 22.5453 8.12579 18.9897 8.12579C18.7532 8.13939 18.516 8.12531 18.2827 8.08385C18.0754 8.04351 17.8879 7.93342 17.7511 7.7717C17.6143 7.60998 17.5364 7.40627 17.5302 7.19412C17.5009 6.98437 17.5453 6.77092 17.6556 6.59046C17.7659 6.41 17.9353 6.27379 18.1348 6.20524C18.3788 6.12152 18.6359 6.08319 18.8936 6.09212C26.0605 6.08534 33.2298 6.08534 40.4018 6.09212C40.6376 6.08818 40.8727 6.11858 41.0999 6.18236C41.3143 6.23689 41.5012 6.36892 41.6249 6.55323C41.7486 6.73753 41.8003 6.96118 41.7702 7.18141C41.7672 7.41374 41.678 7.63657 41.5201 7.8063C41.3622 7.97603 41.147 8.08044 40.9165 8.0991C40.7006 8.12242 40.4834 8.13049 40.2664 8.12325L29.6553 8.12579Z" fill="#266E99"/>
<path d="M45.3406 18.303C47.7107 18.303 50.0804 18.303 52.4497 18.303C52.6864 18.2916 52.9236 18.3078 53.1567 18.3513C53.3736 18.3915 53.5688 18.5088 53.7068 18.6817C53.8447 18.8546 53.9161 19.0717 53.9079 19.2932C53.9268 19.5052 53.8707 19.7172 53.7495 19.8917C53.6283 20.0663 53.4497 20.1924 53.2452 20.2477C52.9983 20.3167 52.7424 20.3476 52.4863 20.3393C47.7082 20.3443 42.9295 20.3443 38.1505 20.3393C37.9341 20.3407 37.7181 20.3177 37.5068 20.2706C37.2778 20.2338 37.0716 20.1103 36.9305 19.9255C36.7893 19.7406 36.724 19.5084 36.7479 19.2767C36.7434 19.0441 36.8268 18.8184 36.9812 18.6451C37.1356 18.4717 37.3496 18.3636 37.5801 18.3425C37.815 18.3132 38.0518 18.3017 38.2884 18.3081C40.6408 18.3047 42.9915 18.303 45.3406 18.303Z" fill="#266E99"/>
<path d="M40.2399 38.6271C40.0231 38.6361 39.806 38.6258 39.5911 38.5966C39.3725 38.5691 39.1707 38.4646 39.0216 38.3017C38.8724 38.1388 38.7856 37.928 38.7766 37.7068C38.7422 37.4864 38.7897 37.2609 38.91 37.0734C39.0304 36.8859 39.2151 36.7494 39.4292 36.69C39.6758 36.6193 39.9317 36.5867 40.188 36.5934C44.2934 36.5883 48.3987 36.5883 52.5041 36.5934C52.7008 36.5886 52.8974 36.6043 53.0909 36.6404C53.6221 36.7574 53.9117 37.1005 53.9117 37.6496C53.9117 38.1708 53.5323 38.5597 52.972 38.6105C52.6988 38.636 52.4206 38.6258 52.1449 38.6258L40.2399 38.6271Z" fill="#266E99"/>
<path d="M46.8178 32.5311C44.865 32.5311 42.9118 32.5311 40.9582 32.5311C40.4093 32.5311 39.9831 32.3392 39.82 31.7812C39.6303 31.1203 40.0944 30.5369 40.8381 30.5102C41.4882 30.4847 42.1408 30.5025 42.7908 30.5025H52.3788C52.5369 30.5025 52.695 30.4949 52.8519 30.5025C53.4943 30.5432 53.9294 30.9741 53.9117 31.5461C53.894 32.118 53.4754 32.5057 52.8519 32.5235C52.1423 32.5438 51.4315 32.5299 50.722 32.5299L46.8178 32.5311Z" fill="#266E99"/>
<path d="M46.8671 24.4117C48.8009 24.4117 50.7347 24.399 52.6672 24.4244C52.9966 24.4213 53.319 24.5202 53.5905 24.7078C54.1432 25.1464 53.9775 26.0513 53.3198 26.3195C53.0789 26.4056 52.8241 26.4457 52.5686 26.4377C48.7617 26.4445 44.9544 26.4445 41.1467 26.4377C41.048 26.4377 40.9494 26.4377 40.8507 26.4377C40.188 26.3844 39.7795 25.9827 39.7909 25.3993C39.8023 24.8159 40.2082 24.4269 40.8899 24.4155C41.798 24.4015 42.7048 24.4155 43.6129 24.4155L46.8671 24.4117Z" fill="#266E99"/>
<path d="M55.9416 52.0671C55.9416 52.6619 55.9543 53.2568 55.9416 53.8466C55.8986 55.5879 54.7098 56.8513 52.9745 56.9225C51.6541 56.9759 50.33 56.9492 49.0083 56.9314C48.3089 56.9225 47.8637 56.4903 47.87 55.8993C47.8764 55.3083 48.3178 54.9168 49.0349 54.9104C50.2187 54.9003 51.4025 54.9104 52.5863 54.9104C53.5588 54.9104 53.9168 54.5494 53.9206 53.5898C53.9206 52.3798 53.9041 51.1748 53.9281 49.961C53.9471 49.0344 54.7743 48.4929 55.4458 48.9899C55.6988 49.1805 55.786 49.6051 55.9441 49.9267C55.9606 49.9584 55.9441 50.0042 55.9441 50.0449V52.0671H55.9416Z" fill="#266E99"/>
<path d="M48.3557 44.7281C46.876 44.7281 45.3949 44.7281 43.9139 44.7281C43.4435 44.7281 43.0008 44.5565 42.911 44.0697C42.8516 43.7443 42.9199 43.2753 43.126 43.0528C43.3322 42.8304 43.7875 42.7275 44.1378 42.7122C45.123 42.669 46.1108 42.6969 47.0985 42.6969C48.8692 42.6969 50.6525 42.6969 52.4307 42.6969C52.667 42.6941 52.903 42.715 53.1352 42.7592C53.6524 42.8698 53.9155 43.2308 53.9041 43.7417C53.8927 44.2527 53.6145 44.6213 53.0909 44.6823C52.5997 44.7258 52.1066 44.7419 51.6137 44.7306C50.5273 44.737 49.4408 44.7306 48.3544 44.7306L48.3557 44.7281Z" fill="#266E99"/>
<path d="M36.7264 14.2357C35.5426 14.2357 34.3576 14.2357 33.1738 14.2357C32.9568 14.2385 32.74 14.2253 32.525 14.1963C32.2949 14.1757 32.0813 14.0674 31.9281 13.8938C31.7748 13.7201 31.6933 13.4941 31.7003 13.2621C31.6814 12.7537 31.9305 12.3838 32.4491 12.2681C32.6808 12.2207 32.917 12.1985 33.1535 12.202C35.5414 12.202 37.9296 12.202 40.3183 12.202C40.4359 12.202 40.5561 12.202 40.6737 12.202C41.349 12.258 41.7715 12.6444 41.7791 13.21C41.7866 13.7997 41.3503 14.2166 40.6408 14.2268C39.3381 14.2471 38.0354 14.2268 36.7327 14.2268L36.7264 14.2357Z" fill="#266E99"/>
<path d="M4.07212 30.1695C4.16318 21.2722 11.376 14.734 19.7144 14.9793C28.1098 15.2335 34.5966 22.2407 34.374 30.8533C34.1653 38.9753 27.0284 45.6953 18.9151 45.4615C10.3945 45.2174 4.02406 38.2585 4.07212 30.1695ZM19.2351 43.4189C26.5364 43.3706 32.3884 37.4946 32.3542 30.2471C32.3188 22.7797 26.4732 16.9621 19.0669 17.0282C11.7921 17.0854 6.0704 23.0644 6.11593 30.5445C6.16399 37.5657 12.1778 43.4697 19.2351 43.4189Z" fill="#266E99"/>
<path d="M19.0441 29.4806C21.394 29.4806 23.7439 29.4806 26.0938 29.4806C26.3305 29.4763 26.5672 29.4937 26.8008 29.5327C27.3168 29.6306 27.5937 29.9674 27.5975 30.4886C27.6013 31.0097 27.3345 31.3516 26.821 31.4609C26.61 31.5038 26.395 31.5243 26.1798 31.5219C21.421 31.5219 16.6622 31.5219 11.9034 31.5219H11.8439C10.9333 31.5118 10.4527 31.1635 10.4401 30.5114C10.4274 29.8594 10.9169 29.4882 11.8174 29.4882C14.2254 29.4798 16.6344 29.4772 19.0441 29.4806Z" fill="#266E99"/>
<path d="M18.9885 25.4095C17.9033 25.4095 16.8169 25.4158 15.733 25.4095C14.9362 25.4095 14.4683 25.0053 14.4835 24.3786C14.4999 23.7749 14.959 23.386 15.7216 23.3821C17.9307 23.372 20.1402 23.372 22.3501 23.3821C23.109 23.3821 23.5618 23.7902 23.5643 24.399C23.5668 25.0078 23.1267 25.4018 22.3615 25.4095C21.2372 25.4209 20.109 25.4082 18.9885 25.4095Z" fill="#266E99"/>
<path d="M19.0972 35.5893C20.1824 35.5893 21.2675 35.5816 22.3527 35.5893C23.1204 35.5969 23.5605 35.9706 23.5605 36.5947C23.5605 37.2187 23.1052 37.6115 22.3514 37.6115C20.1221 37.6242 17.8928 37.6242 15.6635 37.6115C15.1095 37.6115 14.6517 37.4158 14.5252 36.7942C14.4253 36.3074 14.6011 35.9197 15.0412 35.7113C15.2788 35.6185 15.5327 35.5753 15.7874 35.5842C16.8915 35.5893 17.9969 35.5893 19.0972 35.5893Z" fill="#266E99"/>
</svg>
