<svg width="153" height="159" viewBox="0 0 153 159" fill="none" xmlns="http://www.w3.org/2000/svg">
<path d="M172 75.0168V77.8692C170.585 81.909 167.597 83.5697 163.15 83.3077C160.462 83.1513 157.775 83.3077 155.087 83.2781C152.001 83.2781 148.79 83.7683 146.25 81.1399C144.221 87.2461 144.262 92.9973 146.425 98.702C146.573 98.9514 146.777 99.1674 147.022 99.3352C147.267 99.503 147.548 99.6186 147.845 99.674C149.04 99.8384 150.179 100.258 151.176 100.901C152.172 101.544 153 102.393 153.596 103.384C154.81 105.311 154.756 107.377 154.254 109.571C154.85 109.604 155.343 109.621 155.835 109.659C160.135 109.968 163.23 112.808 163.517 116.699C163.781 120.376 160.968 123.676 156.798 124.365C155.786 124.534 155.535 125.033 155.293 125.747C153.587 130.696 153.403 136 154.765 141.044C155.258 142.891 155.804 144.217 158.25 144.737C161.878 145.511 164.023 149.233 163.441 152.606C162.76 156.548 159.616 158.999 155.177 158.999C112.179 158.999 69.1806 158.999 26.1825 158.999C24.5042 159.013 22.8285 158.871 21.1795 158.576C9.35945 156.341 0.576179 146.846 0.0387024 135.783C-0.283244 130.197 1.41079 124.674 4.84436 120.114C8.27794 115.553 13.2483 112.226 18.9445 110.674C19.3476 110.559 19.7328 110.412 20.2434 110.251C11.0883 103.49 7.01247 94.8524 9.65506 84.2373C12.4231 73.1067 20.5479 67.0301 32.4351 65.0779V63.5143C32.4351 56.7531 32.3948 49.992 32.4665 43.2308C32.4665 41.9884 32.0186 41.4982 30.8361 41.1179C22.8949 38.5909 14.9806 35.9963 7.06174 33.3848C4.25342 32.4847 2.86494 30.8494 2.84702 28.4914C2.8291 26.1335 4.23102 24.4854 7.02142 23.5727C20.4285 19.1723 33.8371 14.7817 47.2471 10.401C47.6624 10.2468 48.0909 10.1266 48.5281 10.0419C49.9166 9.83057 50.987 10.2616 51.4439 11.58C51.9008 12.8985 51.3543 13.8577 50.1002 14.4662C49.5424 14.7084 48.9678 14.9146 48.3803 15.0832L9.57444 27.7604C9.04144 27.9379 8.5174 28.1534 7.52755 28.521L32.2873 36.5964C32.3859 36.0344 32.462 35.6794 32.5113 35.3287C32.6499 34.003 33.2586 32.7603 34.2389 31.8017C35.2192 30.8431 36.5137 30.2246 37.9129 30.0465C47.9436 28.4019 58.0665 27.3042 68.2311 26.7589C87.4118 25.7834 106.648 26.8865 125.562 30.0465C128.823 30.5874 130.78 32.6622 131.049 35.7639C131.049 36.0048 131.134 36.2414 131.201 36.6091L155.965 28.5083C155.114 28.1618 154.778 28.0012 154.424 27.8829C131.358 20.3555 108.29 12.821 85.2198 5.27945C82.9409 4.50356 80.4438 4.51704 78.1744 5.31748C72.7504 7.13878 67.3084 8.89668 61.862 10.663C59.9136 11.2927 58.5296 10.7729 58.0414 9.28545C57.5935 7.86138 58.3102 6.82185 60.2809 6.17531C65.5034 4.45966 70.7662 2.8412 75.9573 1.01568C79.6941 -0.329771 83.8235 -0.338789 87.5668 0.990329C110.413 8.50087 133.267 15.9734 156.131 23.4079C159.593 24.5361 160.65 25.9433 160.655 29.3746C160.655 34.2342 160.682 39.0938 160.655 43.9534C160.655 44.8957 160.834 45.4282 161.882 45.8381C168 48.2383 170.141 54.7882 166.643 60.0704C166.356 60.4929 166.038 61.1902 166.195 61.5874C168.076 66.0836 170.052 70.546 172 75.0168ZM105.59 124.458H27.3739C26.814 124.458 26.2497 124.433 25.6943 124.458C21.3497 124.804 18.1472 126.799 16.5169 130.619C14.8865 134.439 15.6211 138.006 18.5772 141.052C20.8167 143.381 23.7414 144.158 27.0514 144.158C59.2433 144.122 91.4352 144.113 123.627 144.133C126.856 144.133 128.084 144.775 128.106 146.482C128.151 148.253 126.986 148.887 123.726 148.887C91.7009 148.887 59.6777 148.887 27.6561 148.887C26.8722 148.887 26.0884 148.887 25.3046 148.857C16.1585 148.532 9.18029 140.237 10.8957 131.764C12.4052 124.479 18.6578 119.721 26.8812 119.717H154.012C154.631 119.717 155.249 119.75 155.862 119.695C156.539 119.646 157.174 119.37 157.652 118.916C158.131 118.463 158.421 117.862 158.469 117.223C158.503 116.584 158.286 115.955 157.861 115.456C157.436 114.956 156.832 114.622 156.162 114.515C155.443 114.414 154.716 114.378 153.99 114.405C111.834 114.405 69.6778 114.405 27.5217 114.405C26.9618 114.405 26.402 114.405 25.8421 114.405C14.452 114.781 5.33733 123.203 5.05963 133.594C4.75058 145.101 14.2057 154.241 26.4647 154.241C69.1821 154.241 111.898 154.241 154.613 154.241C155.116 154.274 155.622 154.259 156.122 154.194C157.546 153.899 158.411 153.02 158.447 151.659C158.497 151.069 158.316 150.481 157.938 150.008C157.56 149.535 157.011 149.21 156.395 149.094C155.74 148.963 155.071 148.907 154.402 148.925C148.915 148.925 143.429 148.925 137.942 148.925C136.02 148.925 134.986 148.118 134.932 146.668C134.878 145.219 135.989 144.205 137.933 144.188C141.516 144.154 145.099 144.188 148.682 144.188C149.206 144.188 149.731 144.137 150.407 144.103C148.285 137.758 148.265 130.954 150.349 124.597H126.068V126.406C126.068 130.103 126.099 133.801 126.068 137.499C126.041 139.671 124.509 140.655 122.355 139.924C120.563 139.316 118.839 138.551 117.034 138.001C116.267 137.786 115.45 137.786 114.683 138.001C112.981 138.504 111.346 139.21 109.671 139.802C107.149 140.689 105.639 139.709 105.608 137.139C105.581 135.343 105.608 133.547 105.608 131.752L105.59 124.458ZM44.2775 80.0877C40.2957 80.0877 36.511 79.7158 32.8427 80.1764C27.4679 80.8483 23.8041 86.2023 24.7358 91.2183C25.6719 96.2891 29.8105 99.5556 35.5077 99.5894C42.1142 99.6317 48.7162 99.5894 55.3227 99.6148C57.2128 99.6148 58.2475 100.506 58.2475 101.964C58.2475 103.422 57.1815 104.335 55.3182 104.343C48.5415 104.369 41.7648 104.5 34.9971 104.314C23.2264 103.993 15.9704 92.7818 21.2646 83.126C24.3416 77.51 29.5104 75.0971 36.1258 75.0971C71.5067 75.114 106.891 75.114 142.278 75.0971C142.779 75.1318 143.283 75.1219 143.782 75.0675C143.963 75.0401 144.135 74.9784 144.289 74.8861C144.443 74.7938 144.575 74.673 144.678 74.5308C145.332 73.0434 145.906 71.5263 146.573 69.8403H55.9945C48.77 69.8403 41.5454 69.6797 34.3297 69.9036C25.7122 70.1741 19.4327 74.2519 15.8405 81.5624C9.34153 94.8228 19.7148 109.613 35.3913 109.63C72.1666 109.664 108.945 109.664 145.726 109.63C146.229 109.655 146.733 109.635 147.231 109.571C148.687 109.304 149.493 108.447 149.511 107.035C149.569 106.419 149.371 105.806 148.958 105.325C148.545 104.845 147.95 104.535 147.298 104.462C146.579 104.368 145.851 104.339 145.126 104.377C119.766 104.377 94.4062 104.377 69.0463 104.377C68.2672 104.411 67.4868 104.345 66.7262 104.183C65.4855 103.849 64.9346 102.94 65.0645 101.749C65.0748 101.239 65.2829 100.75 65.6493 100.374C66.0157 99.9992 66.5151 99.7635 67.0531 99.712C67.7772 99.6358 68.5063 99.6104 69.2344 99.6359H141.324C139.21 93.2392 139.2 86.3889 141.292 79.9862H64.7599C64.7599 84.0345 64.7599 87.9856 64.7599 91.9409C64.7599 95.1482 63.2102 96.3356 60.2809 94.8989C56.2767 92.9128 52.6174 92.955 48.6356 94.9242C45.8183 96.3187 44.291 95.1905 44.2865 92.1902C44.2731 88.1588 44.2775 84.1528 44.2775 80.1172V80.0877ZM37.586 64.9976H125.916V56.9095C120.949 56.9095 116.089 56.9095 111.234 56.9095C109.164 56.9095 108.009 55.9883 108.058 54.4459C108.107 52.9035 109.173 52.1682 111.22 52.1598C115.534 52.1598 119.842 52.1598 124.151 52.1598H126.028V37.5134C126.028 34.8765 126.028 34.792 123.202 34.4835C113.76 33.4524 104.336 32.1763 94.8676 31.5678C76.3112 30.3803 57.8623 31.5931 39.5388 34.5892C37.904 34.8596 37.4202 35.523 37.4471 36.9936C37.5188 40.9531 37.474 44.9169 37.474 48.8764V52.1555H97.2638C97.8793 52.1286 98.4961 52.1442 99.1091 52.202C99.677 52.2429 100.208 52.4821 100.599 52.8728C100.99 53.2635 101.213 53.7777 101.223 54.3149C101.314 54.8459 101.189 55.3896 100.873 55.8376C100.558 56.2855 100.075 56.6049 99.5212 56.732C98.872 56.8792 98.2038 56.9375 97.537 56.9053C78.2267 56.9053 58.9163 56.9053 39.606 56.9053H37.586V64.9976ZM155.611 33.8074C155.331 33.8335 155.052 33.8787 154.778 33.9426C147.236 36.4189 139.702 38.9121 132.137 41.3334C131.147 41.6504 131.049 42.1786 131.053 42.9688C131.053 49.8821 131.053 56.7954 131.053 63.7087C131.053 64.1313 131.116 64.5243 131.161 65.1117H133.042C137.292 65.1117 141.552 65.1455 145.794 65.1117C149.377 65.0736 148.342 65.6948 149.753 62.5255C150.031 61.8959 150.201 60.9155 149.865 60.4126C146.206 54.5473 148.145 48.5341 154.68 45.7113C155.052 45.5465 155.549 45.1112 155.553 44.7985C155.634 41.1517 155.611 37.5303 155.611 33.8074ZM154.532 64.1524C152.924 67.888 151.195 71.7587 149.605 75.6929C148.942 77.3071 149.928 78.503 151.809 78.5157C155.989 78.5439 160.184 78.5439 164.395 78.5157C166.589 78.5157 167.436 77.3283 166.634 75.3929C165.179 71.9151 163.674 68.4542 162.178 64.9891C162.046 64.6993 161.897 64.4171 161.73 64.144L154.532 64.1524ZM110.719 134.46C114.159 132.318 117.522 132.276 120.94 134.41V124.58H110.719V134.46ZM49.4015 79.982V89.8407C52.8413 87.4235 56.214 87.7278 59.618 89.6843V79.9651L49.4015 79.982ZM153.103 54.6952C153.101 55.6427 153.395 56.5697 153.951 57.3593C154.506 58.1488 155.297 58.7655 156.223 59.1316C157.149 59.4976 158.17 59.5966 159.156 59.4161C160.142 59.2355 161.049 58.7835 161.762 58.117C162.476 57.4506 162.965 56.5995 163.167 55.6714C163.369 54.7432 163.274 53.7794 162.896 52.9016C162.518 52.0238 161.873 51.2714 161.042 50.7393C160.211 50.2072 159.231 49.9192 158.227 49.9117C157.558 49.9083 156.894 50.0294 156.275 50.268C155.655 50.5066 155.091 50.858 154.615 51.3022C154.139 51.7464 153.761 52.2747 153.501 52.8568C153.242 53.439 153.107 54.0637 153.103 54.6952Z" fill="white" fill-opacity="0.1"/>
</svg>
