<svg width="78" height="76" viewBox="0 0 78 76" fill="none" xmlns="http://www.w3.org/2000/svg">
<path d="M78 35.8571V37.2205C77.3582 39.1515 76.0034 39.9453 73.9864 39.82C72.7677 39.7453 71.549 39.82 70.3303 39.8059C68.9309 39.8059 67.4745 40.0402 66.3228 38.7838C65.4027 41.7025 65.421 44.4515 66.4021 47.1783C66.4692 47.2975 66.5615 47.4008 66.6727 47.481C66.7838 47.5612 66.9112 47.6164 67.0459 47.6429C67.5878 47.7215 68.1044 47.9221 68.5563 48.2294C69.0083 48.5368 69.3837 48.9427 69.654 49.4163C70.2044 50.3374 70.18 51.3251 69.9525 52.3734C70.2227 52.3895 70.4461 52.3976 70.6695 52.4158C72.6194 52.5632 74.023 53.9206 74.153 55.7809C74.2728 57.5381 72.9972 59.1156 71.1062 59.4449C70.6472 59.5257 70.5334 59.764 70.4238 60.1054C69.6497 62.471 69.5666 65.0065 70.1841 67.4172C70.4075 68.2999 70.6553 68.9341 71.7643 69.1826C73.4096 69.5522 74.3825 71.3317 74.1184 72.9435C73.8097 74.828 72.3838 75.9996 70.3709 75.9996C50.8718 75.9996 31.3726 75.9996 11.8735 75.9996C11.1124 76.0062 10.3524 75.9385 9.60464 75.7976C4.2444 74.7291 0.261291 70.1905 0.0175511 64.9025C-0.128448 62.2327 0.639777 59.5925 2.19686 57.4128C3.75395 55.2331 6.00796 53.6425 8.59109 52.9006C8.7739 52.846 8.94858 52.7753 9.18013 52.6986C5.02843 49.4668 3.18007 45.3382 4.37846 40.2644C5.63372 34.9441 9.31825 32.0396 14.709 31.1064V30.359C14.709 27.1273 14.6907 23.8955 14.7232 20.6638C14.7232 20.0699 14.5201 19.8356 13.9838 19.6538C10.3826 18.446 6.79351 17.2058 3.20241 15.9575C1.92888 15.5273 1.29922 14.7456 1.29109 13.6185C1.28297 12.4915 1.91872 11.7037 3.18413 11.2674C9.26408 9.1641 15.3447 7.06548 21.426 4.97157C21.6143 4.89784 21.8087 4.8404 22.0069 4.79988C22.6366 4.69889 23.122 4.90491 23.3292 5.53511C23.5364 6.1653 23.2886 6.6238 22.7199 6.91466C22.4669 7.03045 22.2063 7.12898 21.9399 7.20956L4.3419 13.2691C4.10019 13.3539 3.86254 13.457 3.41366 13.6327L14.6419 17.4926C14.6866 17.224 14.7211 17.0543 14.7435 16.8867C14.8063 16.253 15.0824 15.659 15.5269 15.2008C15.9715 14.7426 16.5585 14.447 17.1931 14.3618C21.7419 13.5758 26.3325 13.0511 30.942 12.7904C39.6402 12.3242 48.3635 12.8514 56.9409 14.3618C58.4196 14.6204 59.3072 15.6121 59.4291 17.0947C59.4291 17.2098 59.4677 17.3229 59.4981 17.4987L70.7284 13.6266C70.3425 13.461 70.1902 13.3842 70.0297 13.3277C59.5692 9.72966 49.1081 6.12827 38.6462 2.52351C37.6127 2.15265 36.4803 2.15909 35.4512 2.54169C32.9915 3.41224 30.5236 4.2525 28.0537 5.0968C27.1701 5.39776 26.5425 5.14931 26.3211 4.43833C26.118 3.75764 26.443 3.26076 27.3367 2.95172C29.705 2.13166 32.0916 1.35806 34.4458 0.485484C36.1403 -0.157626 38.013 -0.161937 39.7105 0.473365C50.0708 4.06331 60.4352 7.63508 70.8036 11.1887C72.3737 11.728 72.853 12.4006 72.8551 14.0407C72.8551 16.3635 72.8673 18.6863 72.8551 21.0092C72.8551 21.4596 72.9363 21.7141 73.4116 21.91C76.1862 23.0573 77.1571 26.1881 75.5707 28.7129C75.4407 28.9149 75.2965 29.2481 75.3676 29.438C76.2207 31.5871 77.1164 33.7201 78 35.8571ZM47.8839 59.4893H12.4137C12.1598 59.4893 11.9039 59.4772 11.6521 59.4893C9.68183 59.6549 8.22954 60.6083 7.4902 62.4342C6.75086 64.2602 7.08397 65.9649 8.42454 67.4213C9.44012 68.5342 10.7665 68.9058 12.2675 68.9058C26.8661 68.8883 41.4648 68.8843 56.0634 68.8937C57.5279 68.8937 58.0844 69.2007 58.0946 70.0168C58.1149 70.8631 57.5868 71.1661 56.1081 71.1661C41.5853 71.1661 27.0632 71.1661 12.5417 71.1661C12.1862 71.1661 11.8308 71.1661 11.4753 71.1519C7.32771 70.9964 4.16316 67.0314 4.94109 62.9816C5.62559 59.4994 8.4611 57.2251 12.1903 57.223H69.8428C70.1231 57.223 70.4035 57.2392 70.6817 57.2129C70.9884 57.1895 71.2765 57.0573 71.4935 56.8405C71.7104 56.6236 71.8419 56.3365 71.8639 56.0313C71.8791 55.7256 71.781 55.4249 71.5882 55.1863C71.3955 54.9477 71.1213 54.7877 70.8178 54.7366C70.4918 54.6887 70.162 54.6711 69.8327 54.6841C50.7154 54.6841 31.5981 54.6841 12.4808 54.6841C12.2269 54.6841 11.973 54.6841 11.7191 54.6841C6.55383 54.8639 2.42042 58.8894 2.29448 63.8562C2.15433 69.3563 6.44212 73.7252 12.0014 73.7252C31.3733 73.7252 50.7445 73.7252 70.115 73.7252C70.3434 73.7412 70.5727 73.7337 70.7995 73.703C71.4454 73.5616 71.8374 73.1415 71.8537 72.4911C71.8766 72.2089 71.7946 71.9281 71.6231 71.7021C71.4516 71.4761 71.2026 71.3205 70.9234 71.265C70.6264 71.2026 70.323 71.1755 70.0196 71.1842C67.5314 71.1842 65.0432 71.1842 62.555 71.1842C61.6837 71.1842 61.2145 70.7984 61.1901 70.1056C61.1657 69.4128 61.6694 68.9281 62.551 68.92C64.1759 68.9038 65.8008 68.92 67.4258 68.92C67.6634 68.92 67.9011 68.8957 68.2078 68.8796C67.2457 65.8467 67.2365 62.5942 68.1814 59.556H57.1704V60.4205C57.1704 62.1878 57.1846 63.9552 57.1704 65.7226C57.1582 66.7608 56.4636 67.2314 55.4866 66.882C54.6741 66.5911 53.8921 66.2255 53.0736 65.9629C52.7257 65.8599 52.3551 65.8599 52.0072 65.9629C51.2354 66.2033 50.494 66.5406 49.7343 66.8234C48.5908 67.2475 47.9063 66.7789 47.8921 65.5509C47.8799 64.6924 47.8921 63.834 47.8921 62.9756L47.8839 59.4893ZM20.0793 38.2809C18.2736 38.2809 16.5573 38.1031 14.8938 38.3233C12.4564 38.6445 10.7949 41.2036 11.2174 43.6012C11.6419 46.025 13.5187 47.5863 16.1023 47.6025C19.0983 47.6227 22.0922 47.6025 25.0882 47.6146C25.9453 47.6146 26.4145 48.0408 26.4145 48.7377C26.4145 49.4345 25.9311 49.8708 25.0862 49.8748C22.013 49.8869 18.9399 49.9496 15.8708 49.8607C10.5329 49.7072 7.2424 44.3485 9.64323 39.7332C11.0386 37.0488 13.3826 35.8955 16.3826 35.8955C32.4275 35.9035 48.4737 35.9035 64.5212 35.8955C64.7486 35.9121 64.9771 35.9073 65.2037 35.8813C65.2853 35.8682 65.3635 35.8387 65.4333 35.7946C65.5032 35.7505 65.5632 35.6927 65.6099 35.6248C65.9065 34.9138 66.1664 34.1887 66.4691 33.3828H25.3929C22.1166 33.3828 18.8403 33.306 15.5681 33.4131C11.6602 33.5423 8.81249 35.4915 7.18349 38.9858C4.23628 45.3241 8.94045 52.3936 16.0495 52.4017C32.7267 52.4178 49.4053 52.4178 66.0852 52.4017C66.3131 52.4136 66.5416 52.4041 66.7677 52.3734C67.4278 52.2461 67.7934 51.8361 67.8015 51.1615C67.8279 50.8669 67.7379 50.5738 67.5506 50.3441C67.3633 50.1145 67.0934 49.9665 66.7981 49.9314C66.4718 49.8865 66.1419 49.873 65.813 49.891C54.3126 49.891 42.8121 49.891 31.3117 49.891C30.9584 49.9071 30.6045 49.8758 30.2595 49.7981C29.6969 49.6385 29.4471 49.2042 29.506 48.6346C29.5107 48.3908 29.605 48.1571 29.7712 47.9777C29.9373 47.7984 30.1638 47.6857 30.4078 47.6611C30.7362 47.6247 31.0668 47.6125 31.397 47.6247H64.0886C63.1303 44.5672 63.1254 41.2928 64.0743 38.2324H29.3679C29.3679 40.1674 29.3679 42.056 29.3679 43.9466C29.3679 45.4796 28.6651 46.0472 27.3367 45.3605C25.5208 44.4111 23.8614 44.4313 22.0557 45.3726C20.7781 46.0391 20.0854 45.4998 20.0834 44.0657C20.0773 42.1388 20.0793 40.224 20.0793 38.295V38.2809ZM17.0448 31.068H57.1014V27.202C54.8488 27.202 52.645 27.202 50.4432 27.202C49.5048 27.202 48.9808 26.7617 49.0031 26.0245C49.0255 25.2872 49.5089 24.9358 50.4371 24.9317C52.3931 24.9317 54.3471 24.9317 56.3011 24.9317H57.1521V17.9309C57.1521 16.6705 57.1521 16.6301 55.8705 16.4827C51.5888 15.9898 47.3152 15.3798 43.0213 15.089C34.6062 14.5214 26.2399 15.1011 17.9304 16.5332C17.189 16.6625 16.9696 16.9796 16.9818 17.6825C17.0143 19.5751 16.994 21.4697 16.994 23.3623V24.9297H44.108C44.3871 24.9168 44.6668 24.9243 44.9448 24.9519C45.2024 24.9715 45.4433 25.0858 45.6206 25.2725C45.7978 25.4593 45.8987 25.7051 45.9036 25.9618C45.9446 26.2157 45.8879 26.4755 45.7449 26.6897C45.6018 26.9038 45.3829 27.0564 45.1317 27.1172C44.8373 27.1875 44.5343 27.2154 44.2319 27.2C35.4749 27.2 26.7179 27.2 17.9608 27.2H17.0448V31.068ZM70.568 16.1595C70.4406 16.172 70.3144 16.1936 70.1902 16.2241C66.7697 17.4078 63.3533 18.5995 59.9226 19.7569C59.4738 19.9083 59.4291 20.1608 59.4311 20.5385C59.4311 23.843 59.4311 27.1475 59.4311 30.452C59.4311 30.6539 59.4595 30.8418 59.4799 31.1226H60.3329C62.2605 31.1226 64.1921 31.1387 66.1157 31.1226C67.7406 31.1044 67.2714 31.4013 67.9112 29.8864C68.0371 29.5854 68.1143 29.1168 67.962 28.8765C66.3025 26.0729 67.182 23.1987 70.1455 21.8494C70.3141 21.7707 70.5395 21.5626 70.5416 21.4131C70.5781 19.67 70.568 17.939 70.568 16.1595ZM70.0785 30.664C69.3493 32.4496 68.5652 34.2998 67.8442 36.1803C67.5436 36.9518 67.9904 37.5235 68.8435 37.5295C70.7393 37.543 72.6418 37.543 74.5511 37.5295C75.5463 37.5295 75.9302 36.9619 75.5667 36.0368C74.9065 34.3745 74.2241 32.7202 73.5457 31.064C73.486 30.9255 73.4182 30.7906 73.3425 30.66L70.0785 30.664ZM50.2096 64.2703C51.7696 63.2462 53.295 63.226 54.8447 64.2461V59.5479H50.2096V64.2703ZM22.403 38.2304V42.9427C23.9629 41.7874 25.4924 41.9328 27.0361 42.868V38.2223L22.403 38.2304ZM69.4305 26.1436C69.4293 26.5965 69.5631 27.0396 69.8149 27.417C70.0666 27.7944 70.4252 28.0892 70.8453 28.2642C71.2654 28.4391 71.7281 28.4864 72.1752 28.4001C72.6223 28.3138 73.0337 28.0978 73.3574 27.7792C73.6811 27.4606 73.9027 27.0539 73.9942 26.6102C74.0857 26.1665 74.0431 25.7059 73.8715 25.2863C73.7 24.8667 73.4074 24.5071 73.0306 24.2528C72.6537 23.9984 72.2096 23.8607 71.7542 23.8572C71.4506 23.8556 71.1497 23.9134 70.8687 24.0275C70.5876 24.1415 70.3319 24.3095 70.1161 24.5218C69.9004 24.7341 69.7288 24.9866 69.6111 25.2649C69.4935 25.5432 69.4321 25.8418 69.4305 26.1436Z" fill="#4F4F4F"/>
</svg>
