<svg width="53" height="68" viewBox="0 0 53 68" fill="none" xmlns="http://www.w3.org/2000/svg">
<mask id="path-1-inside-1_1222_38" fill="white">
<path d="M45.3024 0C45.7987 0.309896 46.3496 0.559583 46.7787 0.945625C47.4551 1.55833 47.6458 2.40479 47.6423 3.3026C47.6423 5.5374 47.6228 7.77219 47.6599 10.007C47.6782 10.3879 47.8273 10.7508 48.082 11.0341C49.5035 12.5162 50.9622 13.9666 52.4261 15.408C52.6129 15.5764 52.7609 15.7836 52.86 16.015C52.9591 16.2465 53.0069 16.4967 53 16.7485C52.987 30.3167 52.9835 43.8848 52.9894 57.4529C52.9894 59.4557 51.7692 60.6865 49.7808 60.6935C47.7924 60.7006 45.7633 60.7236 43.7573 60.667C43.5609 60.6429 43.3719 60.5769 43.2031 60.4733C43.0343 60.3698 42.8897 60.2311 42.779 60.0667C42.6412 59.8329 42.7454 59.307 42.9361 59.0644C43.1268 58.8218 43.5454 58.7226 43.8685 58.7102C45.8322 58.6783 47.7959 58.6978 49.7613 58.6925C50.6567 58.6925 50.9975 58.3383 50.9975 57.4529C50.9975 44.2626 50.9975 31.071 50.9975 17.8783C50.9975 17.7473 50.9869 17.618 50.9763 17.3949H50.2699C47.4021 17.3949 44.5331 17.3949 41.6629 17.3949C40.6034 17.3949 40.2802 17.0779 40.2784 16.0154C40.2784 13.1597 40.2784 10.3045 40.2784 7.4499V6.64062H8.08606C6.92587 6.64062 6.63802 6.9275 6.63626 8.08385C6.63626 9.65458 6.63626 11.2253 6.63626 12.7978C6.63626 13.5699 6.25306 14.0179 5.63146 14.0073C5.04165 14.0073 4.65845 13.5522 4.65492 12.8279C4.64609 11.1014 4.63373 9.37479 4.65492 7.65C4.67611 5.92521 5.94932 4.65552 7.64106 4.65375C18.7874 4.64431 29.9338 4.64962 41.0802 4.66969C41.4875 4.70167 41.871 4.87514 42.1644 5.16021C43.2981 6.23865 44.3789 7.37375 45.5638 8.5726C45.604 8.39758 45.633 8.22013 45.6503 8.04135C45.6503 6.46885 45.6609 4.89813 45.6503 3.3274C45.6503 2.35521 45.2971 2.00281 44.3277 2.00281H3.27575C2.32393 2.00281 1.98841 2.32865 1.98841 3.26365C1.98841 19.7749 1.98841 36.2861 1.98841 52.7974C1.98841 53.7306 2.32746 54.0547 3.27751 54.0635C3.71369 54.0635 4.1481 54.0635 4.64962 54.0635V18.2219C4.64962 17.1505 4.96571 16.6653 5.65795 16.6742C6.35018 16.683 6.63626 17.1452 6.63626 18.2431V57.1519C6.63626 58.4446 6.89231 58.7031 8.18142 58.7031C10.0568 58.7031 11.9328 58.7031 13.8093 58.7031C14.6234 58.7031 15.1002 59.0909 15.0826 59.7178C15.0649 60.3447 14.604 60.69 13.827 60.6918C11.7962 60.6918 9.76544 60.7042 7.73641 60.6918C5.92107 60.6776 4.67434 59.4097 4.65138 57.5857C4.65138 57.1023 4.65138 56.6171 4.65138 56.0469C4.08983 56.0469 3.56889 56.0469 3.04795 56.0469C1.26439 56.015 0 54.7595 0 52.9727C0 36.3505 0 19.7283 0 3.10604C0 1.45031 0.921801 0.515312 2.39103 0H45.3024ZM42.3128 8.26094V15.3567H49.4011L42.3128 8.26094Z"/>
<path d="M27.5481 68C26.4497 67.7025 25.3142 67.5006 24.2582 67.0933C21.7127 66.0897 19.5678 64.2733 18.1549 61.9248C16.7419 59.5764 16.1396 56.8266 16.4411 54.1006C16.7426 51.3745 17.931 48.8239 19.8227 46.843C21.7145 44.862 24.2042 43.561 26.907 43.141C33.5274 42.1228 39.8211 46.5056 41.0696 52.9957C42.3587 59.7072 38.2689 66.0999 31.682 67.6742C31.1523 67.7999 30.6066 67.892 30.0698 68H27.5481ZM18.3654 55.5139C18.3696 57.5934 18.9886 59.6249 20.1443 61.3516C21.3 63.0782 22.9403 64.4224 24.8578 65.2142C26.7753 66.0059 28.884 66.2096 30.917 65.7996C32.95 65.3895 34.816 64.3841 36.2791 62.9104C37.7423 61.4368 38.7367 59.5611 39.1368 57.5206C39.5368 55.4802 39.3244 53.3666 38.5265 51.4472C37.7285 49.5278 36.3809 47.8888 34.654 46.7375C32.9271 45.5862 30.8985 44.9743 28.8248 44.9792C26.0453 44.9871 23.3825 46.1011 21.4214 48.0763C19.4603 50.0515 18.3612 52.7266 18.3654 55.5139Z"/>
<path d="M28.8107 23.3006C32.5779 23.3006 36.3452 23.3006 40.1124 23.3006C40.3547 23.2914 40.5974 23.3009 40.8382 23.329C41.3945 23.4157 41.7212 23.761 41.7 24.3224C41.6788 24.8838 41.3468 25.2078 40.7888 25.2733C40.5909 25.2907 40.3922 25.2966 40.1937 25.291H17.516C16.4335 25.291 15.9796 24.9847 15.9955 24.271C16.0114 23.591 16.46 23.2989 17.5018 23.2989C21.2703 23.2989 25.0399 23.2994 28.8107 23.3006Z"/>
<path d="M28.8336 31.1773C25.0417 31.1773 21.2497 31.1773 17.4577 31.1773C17.1724 31.1889 16.8871 31.1561 16.6118 31.0799C16.1615 30.9294 15.9655 30.5646 16.0008 30.0935C16.0018 29.8781 16.0811 29.6704 16.2238 29.5094C16.3665 29.3484 16.5628 29.245 16.7761 29.2187C16.9941 29.1868 17.2147 29.1761 17.4347 29.1869H40.2467C40.4452 29.1803 40.644 29.1863 40.8418 29.2046C41.0769 29.2164 41.2985 29.3188 41.4603 29.4903C41.6222 29.6618 41.7118 29.8893 41.7106 30.1254C41.7373 30.3482 41.6795 30.573 41.5487 30.755C41.4178 30.9371 41.2235 31.0632 41.0042 31.1082C40.7467 31.1635 40.4833 31.1862 40.2202 31.1755C36.4211 31.1791 32.6256 31.1797 28.8336 31.1773Z"/>
<path d="M24.1717 35.1794C26.5079 35.1794 28.8425 35.1794 31.1788 35.1794C31.7527 35.1794 32.18 35.3706 32.3178 35.9621C32.4696 36.6138 32.0123 37.1415 31.2671 37.168C30.5607 37.1928 29.8543 37.168 29.148 37.168H17.5831C17.3853 37.168 17.1858 37.1786 16.988 37.168C16.3664 37.1114 15.9849 36.7129 15.9955 36.1463C16.0061 35.5796 16.3911 35.2024 17.0321 35.1882C17.848 35.1705 18.662 35.1882 19.4779 35.1882L24.1717 35.1794Z"/>
<path d="M38.4137 35.1794C39.1624 35.1794 39.9111 35.1688 40.6581 35.1794C41.285 35.1935 41.6982 35.5778 41.7177 36.1232C41.7388 36.6987 41.3221 37.1485 40.6669 37.1574C39.1506 37.1798 37.6325 37.1798 36.1127 37.1574C35.4522 37.1468 35.0531 36.7182 35.062 36.1321C35.0708 35.5459 35.4752 35.1865 36.1692 35.1758C36.9179 35.1705 37.6667 35.1794 38.4137 35.1794Z"/>
<path d="M29.8331 52.0749V54.377C29.8331 56.6354 29.8331 58.8926 29.8331 61.1486C29.8331 62.0447 29.48 62.5086 28.8319 62.4963C28.1838 62.4839 27.85 62.0022 27.8483 61.1115C27.8483 58.3454 27.8483 55.5794 27.8483 52.8133V51.8943L26.2219 53.5146C25.9093 53.8263 25.6056 54.1485 25.2824 54.4514C24.7738 54.9259 24.2388 54.9454 23.8149 54.524C23.3911 54.1025 23.4212 53.5234 23.8873 53.0471C25.0475 51.8642 26.2254 50.6972 27.3944 49.5231C28.8266 48.087 28.8796 48.087 30.3241 49.5373C31.479 50.6954 32.6427 51.8394 33.7852 53.0152C34.4368 53.6846 34.2479 54.6337 33.4161 54.7577C33.0339 54.7757 32.66 54.6414 32.376 54.3841C31.5496 53.6244 30.7867 52.7903 30.0027 51.9899L29.8331 52.0749Z"/>
</mask>
<path d="M45.3024 0C45.7987 0.309896 46.3496 0.559583 46.7787 0.945625C47.4551 1.55833 47.6458 2.40479 47.6423 3.3026C47.6423 5.5374 47.6228 7.77219 47.6599 10.007C47.6782 10.3879 47.8273 10.7508 48.082 11.0341C49.5035 12.5162 50.9622 13.9666 52.4261 15.408C52.6129 15.5764 52.7609 15.7836 52.86 16.015C52.9591 16.2465 53.0069 16.4967 53 16.7485C52.987 30.3167 52.9835 43.8848 52.9894 57.4529C52.9894 59.4557 51.7692 60.6865 49.7808 60.6935C47.7924 60.7006 45.7633 60.7236 43.7573 60.667C43.5609 60.6429 43.3719 60.5769 43.2031 60.4733C43.0343 60.3698 42.8897 60.2311 42.779 60.0667C42.6412 59.8329 42.7454 59.307 42.9361 59.0644C43.1268 58.8218 43.5454 58.7226 43.8685 58.7102C45.8322 58.6783 47.7959 58.6978 49.7613 58.6925C50.6567 58.6925 50.9975 58.3383 50.9975 57.4529C50.9975 44.2626 50.9975 31.071 50.9975 17.8783C50.9975 17.7473 50.9869 17.618 50.9763 17.3949H50.2699C47.4021 17.3949 44.5331 17.3949 41.6629 17.3949C40.6034 17.3949 40.2802 17.0779 40.2784 16.0154C40.2784 13.1597 40.2784 10.3045 40.2784 7.4499V6.64062H8.08606C6.92587 6.64062 6.63802 6.9275 6.63626 8.08385C6.63626 9.65458 6.63626 11.2253 6.63626 12.7978C6.63626 13.5699 6.25306 14.0179 5.63146 14.0073C5.04165 14.0073 4.65845 13.5522 4.65492 12.8279C4.64609 11.1014 4.63373 9.37479 4.65492 7.65C4.67611 5.92521 5.94932 4.65552 7.64106 4.65375C18.7874 4.64431 29.9338 4.64962 41.0802 4.66969C41.4875 4.70167 41.871 4.87514 42.1644 5.16021C43.2981 6.23865 44.3789 7.37375 45.5638 8.5726C45.604 8.39758 45.633 8.22013 45.6503 8.04135C45.6503 6.46885 45.6609 4.89813 45.6503 3.3274C45.6503 2.35521 45.2971 2.00281 44.3277 2.00281H3.27575C2.32393 2.00281 1.98841 2.32865 1.98841 3.26365C1.98841 19.7749 1.98841 36.2861 1.98841 52.7974C1.98841 53.7306 2.32746 54.0547 3.27751 54.0635C3.71369 54.0635 4.1481 54.0635 4.64962 54.0635V18.2219C4.64962 17.1505 4.96571 16.6653 5.65795 16.6742C6.35018 16.683 6.63626 17.1452 6.63626 18.2431V57.1519C6.63626 58.4446 6.89231 58.7031 8.18142 58.7031C10.0568 58.7031 11.9328 58.7031 13.8093 58.7031C14.6234 58.7031 15.1002 59.0909 15.0826 59.7178C15.0649 60.3447 14.604 60.69 13.827 60.6918C11.7962 60.6918 9.76544 60.7042 7.73641 60.6918C5.92107 60.6776 4.67434 59.4097 4.65138 57.5857C4.65138 57.1023 4.65138 56.6171 4.65138 56.0469C4.08983 56.0469 3.56889 56.0469 3.04795 56.0469C1.26439 56.015 0 54.7595 0 52.9727C0 36.3505 0 19.7283 0 3.10604C0 1.45031 0.921801 0.515312 2.39103 0H45.3024ZM42.3128 8.26094V15.3567H49.4011L42.3128 8.26094Z" fill="#264C99"/>
<path d="M27.5481 68C26.4497 67.7025 25.3142 67.5006 24.2582 67.0933C21.7127 66.0897 19.5678 64.2733 18.1549 61.9248C16.7419 59.5764 16.1396 56.8266 16.4411 54.1006C16.7426 51.3745 17.931 48.8239 19.8227 46.843C21.7145 44.862 24.2042 43.561 26.907 43.141C33.5274 42.1228 39.8211 46.5056 41.0696 52.9957C42.3587 59.7072 38.2689 66.0999 31.682 67.6742C31.1523 67.7999 30.6066 67.892 30.0698 68H27.5481ZM18.3654 55.5139C18.3696 57.5934 18.9886 59.6249 20.1443 61.3516C21.3 63.0782 22.9403 64.4224 24.8578 65.2142C26.7753 66.0059 28.884 66.2096 30.917 65.7996C32.95 65.3895 34.816 64.3841 36.2791 62.9104C37.7423 61.4368 38.7367 59.5611 39.1368 57.5206C39.5368 55.4802 39.3244 53.3666 38.5265 51.4472C37.7285 49.5278 36.3809 47.8888 34.654 46.7375C32.9271 45.5862 30.8985 44.9743 28.8248 44.9792C26.0453 44.9871 23.3825 46.1011 21.4214 48.0763C19.4603 50.0515 18.3612 52.7266 18.3654 55.5139Z" fill="#264C99"/>
<path d="M28.8107 23.3006C32.5779 23.3006 36.3452 23.3006 40.1124 23.3006C40.3547 23.2914 40.5974 23.3009 40.8382 23.329C41.3945 23.4157 41.7212 23.761 41.7 24.3224C41.6788 24.8838 41.3468 25.2078 40.7888 25.2733C40.5909 25.2907 40.3922 25.2966 40.1937 25.291H17.516C16.4335 25.291 15.9796 24.9847 15.9955 24.271C16.0114 23.591 16.46 23.2989 17.5018 23.2989C21.2703 23.2989 25.0399 23.2994 28.8107 23.3006Z" fill="#264C99"/>
<path d="M28.8336 31.1773C25.0417 31.1773 21.2497 31.1773 17.4577 31.1773C17.1724 31.1889 16.8871 31.1561 16.6118 31.0799C16.1615 30.9294 15.9655 30.5646 16.0008 30.0935C16.0018 29.8781 16.0811 29.6704 16.2238 29.5094C16.3665 29.3484 16.5628 29.245 16.7761 29.2187C16.9941 29.1868 17.2147 29.1761 17.4347 29.1869H40.2467C40.4452 29.1803 40.644 29.1863 40.8418 29.2046C41.0769 29.2164 41.2985 29.3188 41.4603 29.4903C41.6222 29.6618 41.7118 29.8893 41.7106 30.1254C41.7373 30.3482 41.6795 30.573 41.5487 30.755C41.4178 30.9371 41.2235 31.0632 41.0042 31.1082C40.7467 31.1635 40.4833 31.1862 40.2202 31.1755C36.4211 31.1791 32.6256 31.1797 28.8336 31.1773Z" fill="#264C99"/>
<path d="M24.1717 35.1794C26.5079 35.1794 28.8425 35.1794 31.1788 35.1794C31.7527 35.1794 32.18 35.3706 32.3178 35.9621C32.4696 36.6138 32.0123 37.1415 31.2671 37.168C30.5607 37.1928 29.8543 37.168 29.148 37.168H17.5831C17.3853 37.168 17.1858 37.1786 16.988 37.168C16.3664 37.1114 15.9849 36.7129 15.9955 36.1463C16.0061 35.5796 16.3911 35.2024 17.0321 35.1882C17.848 35.1705 18.662 35.1882 19.4779 35.1882L24.1717 35.1794Z" fill="#264C99"/>
<path d="M38.4137 35.1794C39.1624 35.1794 39.9111 35.1688 40.6581 35.1794C41.285 35.1935 41.6982 35.5778 41.7177 36.1232C41.7388 36.6987 41.3221 37.1485 40.6669 37.1574C39.1506 37.1798 37.6325 37.1798 36.1127 37.1574C35.4522 37.1468 35.0531 36.7182 35.062 36.1321C35.0708 35.5459 35.4752 35.1865 36.1692 35.1758C36.9179 35.1705 37.6667 35.1794 38.4137 35.1794Z" fill="#264C99"/>
<path d="M29.8331 52.0749V54.377C29.8331 56.6354 29.8331 58.8926 29.8331 61.1486C29.8331 62.0447 29.48 62.5086 28.8319 62.4963C28.1838 62.4839 27.85 62.0022 27.8483 61.1115C27.8483 58.3454 27.8483 55.5794 27.8483 52.8133V51.8943L26.2219 53.5146C25.9093 53.8263 25.6056 54.1485 25.2824 54.4514C24.7738 54.9259 24.2388 54.9454 23.8149 54.524C23.3911 54.1025 23.4212 53.5234 23.8873 53.0471C25.0475 51.8642 26.2254 50.6972 27.3944 49.5231C28.8266 48.087 28.8796 48.087 30.3241 49.5373C31.479 50.6954 32.6427 51.8394 33.7852 53.0152C34.4368 53.6846 34.2479 54.6337 33.4161 54.7577C33.0339 54.7757 32.66 54.6414 32.376 54.3841C31.5496 53.6244 30.7867 52.7903 30.0027 51.9899L29.8331 52.0749Z" fill="#264C99"/>
<path d="M45.3024 0C45.7987 0.309896 46.3496 0.559583 46.7787 0.945625C47.4551 1.55833 47.6458 2.40479 47.6423 3.3026C47.6423 5.5374 47.6228 7.77219 47.6599 10.007C47.6782 10.3879 47.8273 10.7508 48.082 11.0341C49.5035 12.5162 50.9622 13.9666 52.4261 15.408C52.6129 15.5764 52.7609 15.7836 52.86 16.015C52.9591 16.2465 53.0069 16.4967 53 16.7485C52.987 30.3167 52.9835 43.8848 52.9894 57.4529C52.9894 59.4557 51.7692 60.6865 49.7808 60.6935C47.7924 60.7006 45.7633 60.7236 43.7573 60.667C43.5609 60.6429 43.3719 60.5769 43.2031 60.4733C43.0343 60.3698 42.8897 60.2311 42.779 60.0667C42.6412 59.8329 42.7454 59.307 42.9361 59.0644C43.1268 58.8218 43.5454 58.7226 43.8685 58.7102C45.8322 58.6783 47.7959 58.6978 49.7613 58.6925C50.6567 58.6925 50.9975 58.3383 50.9975 57.4529C50.9975 44.2626 50.9975 31.071 50.9975 17.8783C50.9975 17.7473 50.9869 17.618 50.9763 17.3949H50.2699C47.4021 17.3949 44.5331 17.3949 41.6629 17.3949C40.6034 17.3949 40.2802 17.0779 40.2784 16.0154C40.2784 13.1597 40.2784 10.3045 40.2784 7.4499V6.64062H8.08606C6.92587 6.64062 6.63802 6.9275 6.63626 8.08385C6.63626 9.65458 6.63626 11.2253 6.63626 12.7978C6.63626 13.5699 6.25306 14.0179 5.63146 14.0073C5.04165 14.0073 4.65845 13.5522 4.65492 12.8279C4.64609 11.1014 4.63373 9.37479 4.65492 7.65C4.67611 5.92521 5.94932 4.65552 7.64106 4.65375C18.7874 4.64431 29.9338 4.64962 41.0802 4.66969C41.4875 4.70167 41.871 4.87514 42.1644 5.16021C43.2981 6.23865 44.3789 7.37375 45.5638 8.5726C45.604 8.39758 45.633 8.22013 45.6503 8.04135C45.6503 6.46885 45.6609 4.89813 45.6503 3.3274C45.6503 2.35521 45.2971 2.00281 44.3277 2.00281H3.27575C2.32393 2.00281 1.98841 2.32865 1.98841 3.26365C1.98841 19.7749 1.98841 36.2861 1.98841 52.7974C1.98841 53.7306 2.32746 54.0547 3.27751 54.0635C3.71369 54.0635 4.1481 54.0635 4.64962 54.0635V18.2219C4.64962 17.1505 4.96571 16.6653 5.65795 16.6742C6.35018 16.683 6.63626 17.1452 6.63626 18.2431V57.1519C6.63626 58.4446 6.89231 58.7031 8.18142 58.7031C10.0568 58.7031 11.9328 58.7031 13.8093 58.7031C14.6234 58.7031 15.1002 59.0909 15.0826 59.7178C15.0649 60.3447 14.604 60.69 13.827 60.6918C11.7962 60.6918 9.76544 60.7042 7.73641 60.6918C5.92107 60.6776 4.67434 59.4097 4.65138 57.5857C4.65138 57.1023 4.65138 56.6171 4.65138 56.0469C4.08983 56.0469 3.56889 56.0469 3.04795 56.0469C1.26439 56.015 0 54.7595 0 52.9727C0 36.3505 0 19.7283 0 3.10604C0 1.45031 0.921801 0.515312 2.39103 0H45.3024ZM42.3128 8.26094V15.3567H49.4011L42.3128 8.26094Z" stroke="black" stroke-width="2" mask="url(#path-1-inside-1_1222_38)"/>
<path d="M27.5481 68C26.4497 67.7025 25.3142 67.5006 24.2582 67.0933C21.7127 66.0897 19.5678 64.2733 18.1549 61.9248C16.7419 59.5764 16.1396 56.8266 16.4411 54.1006C16.7426 51.3745 17.931 48.8239 19.8227 46.843C21.7145 44.862 24.2042 43.561 26.907 43.141C33.5274 42.1228 39.8211 46.5056 41.0696 52.9957C42.3587 59.7072 38.2689 66.0999 31.682 67.6742C31.1523 67.7999 30.6066 67.892 30.0698 68H27.5481ZM18.3654 55.5139C18.3696 57.5934 18.9886 59.6249 20.1443 61.3516C21.3 63.0782 22.9403 64.4224 24.8578 65.2142C26.7753 66.0059 28.884 66.2096 30.917 65.7996C32.95 65.3895 34.816 64.3841 36.2791 62.9104C37.7423 61.4368 38.7367 59.5611 39.1368 57.5206C39.5368 55.4802 39.3244 53.3666 38.5265 51.4472C37.7285 49.5278 36.3809 47.8888 34.654 46.7375C32.9271 45.5862 30.8985 44.9743 28.8248 44.9792C26.0453 44.9871 23.3825 46.1011 21.4214 48.0763C19.4603 50.0515 18.3612 52.7266 18.3654 55.5139Z" stroke="black" stroke-width="2" mask="url(#path-1-inside-1_1222_38)"/>
<path d="M28.8107 23.3006C32.5779 23.3006 36.3452 23.3006 40.1124 23.3006C40.3547 23.2914 40.5974 23.3009 40.8382 23.329C41.3945 23.4157 41.7212 23.761 41.7 24.3224C41.6788 24.8838 41.3468 25.2078 40.7888 25.2733C40.5909 25.2907 40.3922 25.2966 40.1937 25.291H17.516C16.4335 25.291 15.9796 24.9847 15.9955 24.271C16.0114 23.591 16.46 23.2989 17.5018 23.2989C21.2703 23.2989 25.0399 23.2994 28.8107 23.3006Z" stroke="black" stroke-width="2" mask="url(#path-1-inside-1_1222_38)"/>
<path d="M28.8336 31.1773C25.0417 31.1773 21.2497 31.1773 17.4577 31.1773C17.1724 31.1889 16.8871 31.1561 16.6118 31.0799C16.1615 30.9294 15.9655 30.5646 16.0008 30.0935C16.0018 29.8781 16.0811 29.6704 16.2238 29.5094C16.3665 29.3484 16.5628 29.245 16.7761 29.2187C16.9941 29.1868 17.2147 29.1761 17.4347 29.1869H40.2467C40.4452 29.1803 40.644 29.1863 40.8418 29.2046C41.0769 29.2164 41.2985 29.3188 41.4603 29.4903C41.6222 29.6618 41.7118 29.8893 41.7106 30.1254C41.7373 30.3482 41.6795 30.573 41.5487 30.755C41.4178 30.9371 41.2235 31.0632 41.0042 31.1082C40.7467 31.1635 40.4833 31.1862 40.2202 31.1755C36.4211 31.1791 32.6256 31.1797 28.8336 31.1773Z" stroke="black" stroke-width="2" mask="url(#path-1-inside-1_1222_38)"/>
<path d="M24.1717 35.1794C26.5079 35.1794 28.8425 35.1794 31.1788 35.1794C31.7527 35.1794 32.18 35.3706 32.3178 35.9621C32.4696 36.6138 32.0123 37.1415 31.2671 37.168C30.5607 37.1928 29.8543 37.168 29.148 37.168H17.5831C17.3853 37.168 17.1858 37.1786 16.988 37.168C16.3664 37.1114 15.9849 36.7129 15.9955 36.1463C16.0061 35.5796 16.3911 35.2024 17.0321 35.1882C17.848 35.1705 18.662 35.1882 19.4779 35.1882L24.1717 35.1794Z" stroke="black" stroke-width="2" mask="url(#path-1-inside-1_1222_38)"/>
<path d="M38.4137 35.1794C39.1624 35.1794 39.9111 35.1688 40.6581 35.1794C41.285 35.1935 41.6982 35.5778 41.7177 36.1232C41.7388 36.6987 41.3221 37.1485 40.6669 37.1574C39.1506 37.1798 37.6325 37.1798 36.1127 37.1574C35.4522 37.1468 35.0531 36.7182 35.062 36.1321C35.0708 35.5459 35.4752 35.1865 36.1692 35.1758C36.9179 35.1705 37.6667 35.1794 38.4137 35.1794Z" stroke="black" stroke-width="2" mask="url(#path-1-inside-1_1222_38)"/>
<path d="M29.8331 52.0749V54.377C29.8331 56.6354 29.8331 58.8926 29.8331 61.1486C29.8331 62.0447 29.48 62.5086 28.8319 62.4963C28.1838 62.4839 27.85 62.0022 27.8483 61.1115C27.8483 58.3454 27.8483 55.5794 27.8483 52.8133V51.8943L26.2219 53.5146C25.9093 53.8263 25.6056 54.1485 25.2824 54.4514C24.7738 54.9259 24.2388 54.9454 23.8149 54.524C23.3911 54.1025 23.4212 53.5234 23.8873 53.0471C25.0475 51.8642 26.2254 50.6972 27.3944 49.5231C28.8266 48.087 28.8796 48.087 30.3241 49.5373C31.479 50.6954 32.6427 51.8394 33.7852 53.0152C34.4368 53.6846 34.2479 54.6337 33.4161 54.7577C33.0339 54.7757 32.66 54.6414 32.376 54.3841C31.5496 53.6244 30.7867 52.7903 30.0027 51.9899L29.8331 52.0749Z" stroke="black" stroke-width="2" mask="url(#path-1-inside-1_1222_38)"/>
</svg>
