<svg width="149" height="158" viewBox="0 0 149 158" fill="none" xmlns="http://www.w3.org/2000/svg">
<path d="M76.3814 0C76.6971 0.131635 77.0046 0.292065 77.3326 0.411359C81.4571 1.71537 83.9663 5.05561 84.1508 9.46126C84.2252 11.4532 83.6766 13.4187 82.5818 15.0821C81.4871 16.7456 79.901 18.0237 78.046 18.7374C77.103 19.1035 76.7094 19.4861 76.7217 20.568C76.7791 27.0482 76.7791 33.5272 76.7217 40.0047C76.7217 41.173 77.0251 41.5432 78.2305 41.6501C84.9534 42.34 91.3033 45.084 96.422 49.5112C97.0001 50.0007 97.5659 50.5067 98.2588 51.1114C100.633 48.7132 102.957 46.4054 105.229 44.0401C105.524 43.7316 105.589 43.1063 105.594 42.6292C105.622 38.569 105.594 34.5048 105.63 30.4447C105.63 29.5973 105.38 29.2106 104.597 28.8486C100.907 27.1209 99.128 23.501 100.005 19.5889C100.379 17.7639 101.382 16.1297 102.839 14.9739C104.295 13.8181 106.111 13.2149 107.967 13.2705C111.912 13.2705 114.982 15.7962 115.868 19.7206C116.29 21.5415 116.063 23.4531 115.226 25.1235C114.389 26.794 112.996 28.1177 111.288 28.8651C110.468 29.2518 110.186 29.6878 110.198 30.5722C110.243 34.4225 110.218 38.2688 110.218 42.2219C110.626 42.2895 111.036 42.3362 111.448 42.3618C113.548 42.3618 115.655 42.2589 117.746 42.4029C119.64 42.5304 120.768 42.1931 121.674 40.1528C123.56 35.9528 128.344 34.0976 132.854 35.3769C137.364 36.6562 140.058 40.4778 139.824 45.2084C139.607 49.8403 136.524 53.4356 132.055 54.2583C127.475 55.1221 123.014 52.8185 121.301 48.5404C120.804 47.3063 120.202 46.9567 118.968 46.9937C116.048 47.0718 113.125 46.9608 110.206 47.0595C109.421 47.0951 108.67 47.3934 108.074 47.9069C105.762 50.0789 103.564 52.3619 101.28 54.6409C105.392 60.0041 107.861 66.4514 108.386 73.1973H109.94C117.114 73.1973 124.289 73.1973 131.46 73.1973C132.477 73.1973 133.072 73.0122 133.564 71.9632C134.355 70.2424 135.729 68.8589 137.441 68.0583C139.153 67.2578 141.093 67.092 142.915 67.5904C144.666 68.0455 146.215 69.0735 147.317 70.5116C148.419 71.9497 149.011 73.7157 149 75.5297C149.003 77.3925 148.37 79.2002 147.208 80.6527C146.045 82.1051 144.423 83.1148 142.609 83.5141C140.796 83.9134 138.9 83.6782 137.239 82.8476C135.577 82.017 134.248 80.641 133.473 78.9481C133.145 78.257 132.883 77.7798 131.952 77.788C124.367 77.8333 116.782 77.8127 109.202 77.8168C108.926 77.8379 108.652 77.8763 108.382 77.932C107.947 82.3377 106.947 86.5706 104.95 90.5032C104.202 91.963 103.381 93.384 102.49 94.7607C101.608 96.1388 100.415 96.4062 99.2346 95.6616C98.0538 94.917 97.7627 93.6048 98.6893 92.1856C102.272 86.8664 104.056 80.5326 103.777 74.1187C103.289 60.0379 91.2888 47.5038 77.2752 46.2162C59.0755 44.5461 44.9511 59.3797 45.152 76.3483C45.2586 85.501 49.252 92.8356 56.2465 98.6069C56.6811 98.9689 57.1526 99.2898 57.5503 99.6847C58.4605 100.598 58.4523 101.622 57.7061 102.601C56.9599 103.58 55.8529 104.045 54.7541 103.235C53.2577 102.156 51.846 100.964 50.5311 99.6682C44.8691 93.9791 41.5399 87.13 40.7199 79.1003C40.6256 78.1418 40.3714 77.7716 39.3547 77.7798C31.9747 77.8182 24.5948 77.8182 17.2149 77.7798C16.1448 77.7798 15.8619 78.331 15.4888 79.1044C13.9226 82.3336 10.7616 84.0201 7.15359 83.6293C5.50695 83.4655 3.95385 82.7844 2.71559 81.6831C1.47734 80.5818 0.617103 79.1165 0.257464 77.496C-0.242229 75.5576 -0.00941593 73.5023 0.911064 71.7258C1.83154 69.9494 3.37459 68.5774 5.24301 67.8743C9.25687 66.4098 13.5823 68.0265 15.4109 71.8233C15.9111 72.8641 16.4154 73.222 17.5716 73.222C24.9023 73.1644 32.2289 73.1932 39.5556 73.1849C39.8549 73.1849 40.1501 73.1273 40.5682 73.0821C41.0766 66.3696 43.5324 59.9531 47.6325 54.6244C45.1725 52.1809 42.7945 49.7375 40.3345 47.3639C40.0312 47.0677 39.3916 47.0348 38.9078 47.0307C35.8861 47.0019 32.8603 47.076 29.8387 46.9855C28.6825 46.9484 28.17 47.2981 27.7395 48.3964C27.0142 50.2526 25.7268 51.8337 24.0586 52.9171C22.3905 54.0004 20.4256 54.5314 18.4408 54.4352C13.8857 54.1267 10.491 51.4569 9.42087 47.3475C8.35078 43.238 9.90467 38.8447 13.2994 36.611C14.5006 35.7919 15.87 35.2544 17.3062 35.0382C18.7425 34.822 20.2088 34.9328 21.5966 35.3621C22.9844 35.7915 24.2582 36.5286 25.3237 37.5188C26.3891 38.509 27.219 39.7269 27.7518 41.0825C28.1618 42.1726 28.7235 42.4111 29.7608 42.3906C32.6676 42.333 35.5786 42.3906 38.6003 42.3906C38.6413 41.7447 38.6987 41.2511 38.6987 40.7451C38.6987 38.2276 38.6208 35.7019 38.7315 33.1885C38.8299 30.9178 38.7028 29.2394 36.1977 27.886C32.9177 26.1254 32.0977 21.9131 33.463 18.3466C34.1226 16.7337 35.2781 15.3741 36.7614 14.4659C38.2447 13.5578 39.9783 13.1485 41.7096 13.2977C43.4409 13.4469 45.0794 14.1468 46.3867 15.2954C47.6939 16.444 48.6015 17.9814 48.9773 19.6835C49.7399 23.4393 48.0958 27.088 44.6928 28.7047C43.5694 29.2435 43.2783 29.8811 43.2988 31.0453C43.3685 34.7969 43.3603 38.5485 43.2988 42.3042C43.2741 42.7839 43.3588 43.2629 43.5463 43.7049C43.7339 44.1468 44.0194 44.54 44.3812 44.8546C46.4886 46.8744 48.5222 48.9682 50.6828 51.1484C56.4676 45.5489 64.0136 42.1429 72.0272 41.5144V19.2228C68.3701 18.0134 65.8404 15.6646 64.9876 11.8184C64.4238 9.40807 64.8081 6.87249 66.0605 4.73932C67.313 2.60616 69.3371 1.03975 71.7115 0.36611C72.0436 0.26327 72.3634 0.123408 72.6914 0H76.3814ZM130.165 49.7745C130.848 49.7975 131.529 49.6792 132.165 49.4269C132.801 49.1746 133.378 48.7937 133.861 48.308C134.344 47.8222 134.723 47.242 134.973 46.6033C135.222 45.9646 135.339 45.2812 135.314 44.5955C135.319 43.2317 134.784 41.9219 133.826 40.9541C132.869 39.9863 131.567 39.4399 130.208 39.435C128.848 39.43 127.543 39.9671 126.578 40.9279C125.614 41.8888 125.069 43.1947 125.064 44.5584C125.035 45.2429 125.146 45.9262 125.391 46.5658C125.635 47.2054 126.008 47.7878 126.486 48.2769C126.965 48.7659 127.538 49.1512 128.171 49.4088C128.803 49.6664 129.482 49.7909 130.165 49.7745ZM23.8486 44.7065C23.8635 44.0365 23.744 43.3704 23.4973 42.7476C23.2506 42.1248 22.8816 41.5581 22.4124 41.0812C21.9431 40.6043 21.3832 40.2268 20.7657 39.9712C20.1482 39.7156 19.4859 39.5871 18.818 39.5933C18.1371 39.581 17.4608 39.7066 16.8294 39.9627C16.1981 40.2187 15.6247 40.5998 15.1436 41.0834C14.6624 41.5669 14.2834 42.1428 14.0293 42.7766C13.7751 43.4105 13.651 44.0892 13.6643 44.7723C13.6901 46.1218 14.2428 47.4072 15.2036 48.3519C16.1644 49.2966 17.4563 49.8252 18.8016 49.8238C19.4681 49.8211 20.1275 49.6866 20.7421 49.4278C21.3567 49.169 21.9144 48.7911 22.3832 48.3158C22.8521 47.8404 23.2228 47.2769 23.4743 46.6576C23.7257 46.0383 23.8529 45.3753 23.8486 44.7065ZM74.479 4.61134C73.1851 4.67718 71.9648 5.23539 71.0668 6.17228C70.1687 7.10918 69.6603 8.3543 69.6451 9.6541C69.63 10.9539 70.1092 12.2106 70.9852 13.1683C71.8612 14.126 73.0681 14.7127 74.3601 14.8089C75.0276 14.8356 75.6935 14.7265 76.3178 14.4882C76.9422 14.2499 77.512 13.8873 77.9931 13.4223C78.4742 12.9573 78.8565 12.3995 79.1171 11.7824C79.3778 11.1653 79.5113 10.5017 79.5097 9.83149C79.549 9.15031 79.4471 8.46835 79.2105 7.82866C78.9738 7.18897 78.6076 6.60545 78.1349 6.11493C77.6622 5.6244 77.0932 5.23753 76.464 4.97874C75.8347 4.71994 75.1589 4.59485 74.479 4.61134ZM107.844 17.8859C106.906 17.8952 106.01 18.2781 105.353 18.9504C104.696 19.6227 104.332 20.5294 104.341 21.4709C104.35 22.4124 104.732 23.3117 105.402 23.9709C106.072 24.6301 106.976 24.9952 107.914 24.986C108.379 24.9814 108.838 24.885 109.266 24.7024C109.693 24.5197 110.081 24.2544 110.406 23.9215C110.731 23.5886 110.988 23.1946 111.162 22.7622C111.335 22.3297 111.422 21.8672 111.418 21.401C111.413 20.9348 111.317 20.474 111.135 20.0451C110.953 19.6161 110.688 19.2274 110.357 18.901C110.025 18.5746 109.632 18.3169 109.201 18.1428C108.77 17.9686 108.309 17.8813 107.844 17.8859ZM144.375 75.505C144.382 75.0413 144.296 74.581 144.124 74.1508C143.951 73.7206 143.695 73.3291 143.37 72.9991C143.046 72.6691 142.659 72.4072 142.232 72.2287C141.806 72.0501 141.348 71.9585 140.886 71.9591C140.411 71.959 139.941 72.0536 139.503 72.2374C139.065 72.4212 138.668 72.6904 138.335 73.0295C138.001 73.3686 137.738 73.7708 137.561 74.2127C137.384 74.6546 137.296 75.1274 137.303 75.6037C137.329 76.5385 137.723 77.4247 138.398 78.0695C139.073 78.7144 139.975 79.0656 140.907 79.0468C141.368 79.0491 141.825 78.9586 142.251 78.7807C142.677 78.6027 143.063 78.3409 143.386 78.0108C143.71 77.6806 143.964 77.2887 144.134 76.8583C144.303 76.4279 144.385 75.9678 144.375 75.505ZM8.09248 79.0427C9.02459 79.0715 9.93005 78.7283 10.6103 78.0882C11.2905 77.4482 11.6899 76.5635 11.7209 75.6284C11.7296 75.1524 11.6442 74.6795 11.4697 74.2368C11.2951 73.7941 11.0349 73.3905 10.704 73.0494C10.3731 72.7082 9.9781 72.4362 9.54182 72.249C9.10555 72.0619 8.63664 71.9633 8.16218 71.9591C7.22595 71.9498 6.32439 72.3141 5.65584 72.9717C4.98729 73.6294 4.60651 74.5266 4.59727 75.4659C4.58803 76.4053 4.95108 77.3098 5.60656 77.9806C6.26204 78.6514 7.15625 79.0334 8.09248 79.0427ZM44.5288 21.3907C44.5333 20.9276 44.4452 20.4684 44.2699 20.04C44.0946 19.6117 43.8355 19.2229 43.5081 18.8966C43.1806 18.5703 42.7912 18.3132 42.3631 18.1403C41.9349 17.9674 41.4766 17.8823 41.0151 17.89C40.541 17.8799 40.0697 17.9656 39.6292 18.1419C39.1887 18.3182 38.788 18.5815 38.451 18.9163C38.1139 19.251 37.8474 19.6503 37.6672 20.0904C37.487 20.5306 37.3969 21.0026 37.4021 21.4783C37.4073 21.9541 37.5078 22.424 37.6976 22.8601C37.8874 23.2961 38.1627 23.6894 38.507 24.0166C38.8513 24.3439 39.2576 24.5983 39.7019 24.7648C40.1462 24.9313 40.6192 25.0065 41.093 24.986C41.5553 24.9807 42.0118 24.883 42.436 24.6986C42.8601 24.5143 43.2434 24.2469 43.5633 23.9121C43.8832 23.5773 44.1334 23.1819 44.2991 22.749C44.4649 22.316 44.543 21.8543 44.5288 21.3907Z" fill="white" fill-opacity="0.1"/>
<path d="M66.2504 118.809V108.113C66.2504 104.568 66.1889 101.018 66.2832 97.4716C66.316 96.1799 65.9757 95.53 64.7416 94.9335C54.5778 90.0219 49.9367 77.0229 54.6106 66.8171C55.4306 65.0236 56.4105 64.4847 57.7881 65.0647C59.2682 65.6817 59.6413 66.8335 58.8746 68.6435C57.1684 72.4909 56.9535 76.8384 58.2719 80.8362C59.6249 84.991 62.1955 88.1831 66.2504 90.4908C66.2504 86.5788 66.2504 82.9012 66.2504 79.2237C66.185 77.1991 66.8784 75.2235 68.1938 73.6868C69.1942 72.5022 70.5237 71.6433 72.0126 71.2199C73.5015 70.7964 75.0824 70.8275 76.5536 71.3091C78.072 71.8177 79.3997 72.779 80.3594 74.0645C81.3191 75.3501 81.8651 76.8988 81.9245 78.5038C82.0024 82.5105 81.9245 86.5212 81.9245 90.8446C82.6133 90.4703 83.1545 90.2317 83.6178 89.9231C87.25 87.5888 89.8649 83.9595 90.9353 79.767C92.0056 75.5746 91.4518 71.1309 89.3854 67.332C87.3191 63.533 83.8939 60.6615 79.8007 59.2965C75.7074 57.9314 71.2505 58.1743 67.3287 59.9762C66.603 60.3053 65.66 60.8318 65.0655 60.6056C64.2235 60.2193 63.5605 59.5247 63.2123 58.664C62.8023 57.578 63.5157 56.7265 64.5366 56.1958C70.0797 53.3533 75.791 52.9625 81.6416 55.0892C89.9276 58.1045 95.766 65.8216 96.0612 74.0653C96.4097 83.654 91.6168 91.5645 83.0684 95.423C82.2484 95.7891 81.8384 96.1676 81.9204 97.1137C82.0065 98.3889 81.9409 99.6724 81.9409 101.145C82.5436 101.178 83.0766 101.227 83.6137 101.231L100.067 101.273C107.266 101.293 111.887 105.88 111.99 113.095C112.01 114.638 112.047 116.18 112.022 117.723C111.998 119.265 111.092 120.191 109.673 120.191C108.324 120.191 107.475 119.298 107.43 117.793C107.373 115.995 107.43 114.193 107.352 112.396C107.197 108.862 104.638 106.114 101.494 106.225C101.494 107.698 101.522 109.179 101.494 110.66C101.453 112.425 100.645 113.297 99.1607 113.272C97.6766 113.247 96.9181 112.404 96.8935 110.61C96.8689 109.13 96.8935 107.649 96.8935 106.04H91.7439C91.7439 107.575 91.7439 109.101 91.7439 110.623C91.7193 112.387 90.9239 113.276 89.4561 113.276C87.9884 113.276 87.1561 112.383 87.1356 110.656C87.1356 109.125 87.1356 107.599 87.1356 105.987H81.9573C81.9573 107.542 81.9573 109.018 81.9573 110.512C81.9573 112.441 81.2193 113.309 79.6736 113.288C78.128 113.268 77.3531 112.35 77.349 110.487C77.349 100.409 77.349 90.3304 77.349 80.2521C77.3654 79.6869 77.3531 79.1212 77.3121 78.5573C77.2473 77.7667 76.894 77.028 76.32 76.4826C75.746 75.9371 74.9916 75.6234 74.2013 75.6015C73.411 75.5796 72.6404 75.851 72.0373 76.3638C71.4341 76.8766 71.0407 77.5947 70.9325 78.3804C70.8702 78.9417 70.851 79.5069 70.8751 80.0711C70.8751 94.9335 70.8751 109.792 70.8382 124.654C70.8412 125.598 70.5359 126.517 69.969 127.27C69.0917 128.303 67.5911 127.978 66.5333 126.703C63.2916 122.792 60.0649 118.865 56.8533 114.921C55.9841 113.86 54.9714 113.148 53.5733 113.334C50.9739 113.679 49.8834 116.624 51.634 118.768C54.217 121.96 56.882 125.086 59.5142 128.229C63.1672 132.606 66.8531 136.954 70.4364 141.392C71.0428 142.189 71.3931 143.152 71.4409 144.153C71.5516 147.855 71.4942 151.557 71.4819 155.259C71.4819 157.028 70.707 157.962 69.2762 157.999C67.7797 158.036 66.8859 157.049 66.8777 155.276C66.8777 152.137 66.8203 149.003 66.8777 145.868C66.9106 144.804 66.5247 143.769 65.8035 142.988C59.8558 135.913 53.9314 128.82 48.0302 121.709C46.863 120.355 46.1907 118.642 46.1244 116.853C46.058 115.064 46.6016 113.306 47.6653 111.869C48.6926 110.432 50.1813 109.392 51.8817 108.925C53.5821 108.457 55.3909 108.591 57.005 109.302C58.3148 109.982 59.4803 110.911 60.4366 112.038C62.3021 114.095 63.9913 116.291 65.7666 118.43C65.9199 118.566 66.0815 118.693 66.2504 118.809Z" fill="white" fill-opacity="0.1"/>
<path d="M100.313 150.792C100.321 150.639 100.321 150.485 100.313 150.331C99.9725 146.938 100.555 144.124 103.392 141.606C106.229 139.089 107.303 135.436 107.492 131.598C107.516 131.137 107.492 130.668 107.574 130.216C107.783 128.883 108.771 128.015 109.968 128.077C110.265 128.079 110.559 128.143 110.83 128.265C111.101 128.387 111.344 128.564 111.543 128.786C111.742 129.007 111.893 129.267 111.986 129.551C112.079 129.834 112.112 130.133 112.084 130.43C111.805 133.168 111.308 135.879 110.596 138.538C109.726 141.466 107.857 143.885 105.733 146.107C105.278 146.618 105.008 147.269 104.966 147.954C104.876 150.311 104.942 152.676 104.925 155.037C104.925 156.999 104.105 157.991 102.568 157.954C101.03 157.917 100.329 156.971 100.317 155.103C100.305 153.667 100.313 152.228 100.313 150.792Z" fill="white" fill-opacity="0.1"/>
</svg>
