<svg width="84" height="88" viewBox="0 0 84 88" fill="none" xmlns="http://www.w3.org/2000/svg">
<path d="M43.0606 0C43.2386 0.0733157 43.412 0.162669 43.5969 0.229112C45.9221 0.955395 47.3367 2.81578 47.4407 5.26956C47.4827 6.37902 47.1734 7.47369 46.5562 8.40017C45.939 9.32665 45.0449 10.0385 43.9991 10.436C43.4674 10.6399 43.2456 10.853 43.2525 11.4556C43.2848 15.0648 43.2848 18.6734 43.2525 22.2811C43.2525 22.9318 43.4235 23.138 44.1031 23.1975C47.8932 23.5818 51.473 25.1101 54.3587 27.5759C54.6846 27.8485 55.0036 28.1303 55.3942 28.4671C56.7325 27.1314 58.043 25.8461 59.3236 24.5287C59.49 24.3568 59.527 24.0086 59.5293 23.7428C59.5455 21.4815 59.5293 19.2179 59.5501 16.9565C59.5501 16.4846 59.4091 16.2692 58.9676 16.0676C56.8874 15.1053 55.8842 13.0891 56.3789 10.9103C56.5895 9.89384 57.1552 8.98362 57.9762 8.3399C58.7973 7.69617 59.8212 7.3602 60.8676 7.39114C63.0911 7.39114 64.8223 8.79788 65.3216 10.9836C65.5593 11.9978 65.4313 13.0625 64.9596 13.9929C64.488 14.9232 63.7026 15.6605 62.7398 16.0768C62.2775 16.2921 62.118 16.535 62.125 17.0276C62.1504 19.1721 62.1365 21.3142 62.1365 23.516C62.3662 23.5537 62.5976 23.5797 62.8299 23.5939C64.0134 23.5939 65.2014 23.5366 66.3802 23.6168C67.4481 23.6878 68.0837 23.5 68.5945 22.3636C69.6578 20.0243 72.3551 18.9911 74.8977 19.7036C77.4402 20.4161 78.9588 22.5446 78.827 25.1794C78.7045 27.7592 76.9664 29.7616 74.447 30.2198C71.8651 30.7009 69.3503 29.4179 68.3842 27.0352C68.1045 26.3478 67.7647 26.1531 67.069 26.1737C65.4233 26.2172 63.7753 26.1554 62.1296 26.2104C61.687 26.2302 61.2639 26.3963 60.9277 26.6823C59.624 27.892 58.3851 29.1636 57.0977 30.4329C59.4158 33.42 60.8075 37.0109 61.1033 40.7681H61.9793C66.0243 40.7681 70.0692 40.7681 74.1118 40.7681C74.685 40.7681 75.0202 40.665 75.2975 40.0808C75.7439 39.1224 76.5184 38.3518 77.4837 37.9059C78.4489 37.46 79.5424 37.3677 80.5698 37.6453C81.5565 37.8988 82.4297 38.4713 83.051 39.2723C83.6723 40.0733 84.0063 41.0568 83.9999 42.0672C84.0015 43.1047 83.6451 44.1115 82.9897 44.9205C82.3343 45.7294 81.4194 46.2918 80.397 46.5142C79.3746 46.7365 78.3063 46.6056 77.3694 46.1429C76.4325 45.6803 75.6835 44.9139 75.2467 43.9711C75.0618 43.5862 74.9138 43.3204 74.3892 43.325C70.1131 43.3502 65.837 43.3387 61.5633 43.341C61.408 43.3527 61.2536 43.3742 61.101 43.4052C60.856 45.859 60.292 48.2165 59.1664 50.4068C58.7446 51.2199 58.2818 52.0113 57.7795 52.7781C57.2826 53.5457 56.61 53.6946 55.9443 53.2799C55.2786 52.8652 55.1145 52.1343 55.6369 51.3439C57.6567 48.3813 58.6623 44.8536 58.5053 41.2813C58.2303 33.4388 51.4648 26.4578 43.5645 25.7407C33.3043 24.8105 25.3416 33.0722 25.4548 42.5231C25.5149 47.6208 27.7662 51.7059 31.7094 54.9203C31.9544 55.1219 32.2202 55.3006 32.4445 55.5206C32.9576 56.0292 32.953 56.5997 32.5323 57.145C32.1116 57.6903 31.4875 57.9492 30.8681 57.4978C30.0245 56.8969 29.2286 56.2328 28.4874 55.5114C25.2953 52.3428 23.4185 48.5281 22.9562 44.0559C22.903 43.522 22.7597 43.3158 22.1865 43.3204C18.026 43.3418 13.8655 43.3418 9.70504 43.3204C9.10177 43.3204 8.94228 43.6274 8.73195 44.0581C7.849 45.8567 6.06692 46.796 4.0329 46.5784C3.10459 46.4871 2.22902 46.1078 1.53094 45.4944C0.832862 44.881 0.347897 44.0649 0.145147 43.1623C-0.136558 42.0827 -0.00530831 40.938 0.51362 39.9485C1.03255 38.9591 1.90245 38.195 2.95579 37.8034C5.21864 36.9878 7.65715 37.8882 8.68803 40.0029C8.97002 40.5825 9.25432 40.7818 9.90613 40.7818C14.0389 40.7498 18.1693 40.7658 22.2998 40.7612C22.4685 40.7612 22.6349 40.7292 22.8707 40.704C23.1573 36.9653 24.5417 33.3916 26.8532 30.4237C25.4664 29.0628 24.1258 27.7019 22.7389 26.3799C22.5679 26.2149 22.2073 26.1966 21.9346 26.1943C20.2311 26.1783 18.5253 26.2195 16.8218 26.1691C16.17 26.1485 15.8811 26.3432 15.6384 26.955C15.2295 27.9888 14.5037 28.8694 13.5633 29.4728C12.6228 30.0762 11.5151 30.3719 10.3961 30.3183C7.82819 30.1465 5.91437 28.6596 5.31109 26.3707C4.70782 24.0819 5.58384 21.635 7.49767 20.3909C8.17483 19.9347 8.94683 19.6354 9.75652 19.515C10.5662 19.3946 11.3929 19.4562 12.1753 19.6954C12.9577 19.9345 13.6758 20.345 14.2764 20.8965C14.8771 21.448 15.3449 22.1264 15.6453 22.8814C15.8764 23.4885 16.1931 23.6214 16.7779 23.6099C18.4167 23.5779 20.0577 23.6099 21.7612 23.6099C21.7843 23.2502 21.8167 22.9753 21.8167 22.6935C21.8167 21.2913 21.7728 19.8846 21.8352 18.4847C21.8907 17.22 21.819 16.2852 20.4068 15.5315C18.5576 14.5509 18.0954 12.2048 18.8651 10.2184C19.2369 9.32001 19.8883 8.56278 20.7246 8.05697C21.5608 7.55117 22.5381 7.32321 23.5141 7.40631C24.4901 7.4894 25.4139 7.8792 26.1509 8.51894C26.8878 9.15868 27.3995 10.0149 27.6113 10.963C28.0413 13.0548 27.1144 15.087 25.1959 15.9874C24.5626 16.2875 24.3985 16.6427 24.4101 17.291C24.4494 19.3805 24.4447 21.47 24.4101 23.5618C24.3961 23.829 24.4439 24.0958 24.5496 24.342C24.6553 24.5881 24.8163 24.8071 25.0203 24.9823C26.2083 26.1073 27.3548 27.2734 28.5729 28.4877C31.8341 25.369 36.0882 23.472 40.606 23.1219V10.7064C38.5442 10.0328 37.1181 8.72457 36.6373 6.58237C36.3195 5.23994 36.5361 3.82771 37.2422 2.63962C37.9482 1.45153 39.0894 0.5791 40.428 0.203909C40.6152 0.146631 40.7955 0.0687335 40.9804 0H43.0606ZM73.3814 27.7225C73.7667 27.7353 74.1506 27.6694 74.5091 27.5289C74.8676 27.3884 75.1932 27.1763 75.4655 26.9057C75.7378 26.6352 75.951 26.312 76.0919 25.9563C76.2328 25.6005 76.2984 25.2199 76.2845 24.838C76.2873 24.0784 75.9855 23.3489 75.4456 22.8099C74.9057 22.2709 74.172 21.9665 73.4057 21.9638C72.6394 21.961 71.9034 22.2601 71.3596 22.7953C70.8158 23.3305 70.5088 24.0578 70.506 24.8174C70.4895 25.1986 70.5521 25.5791 70.69 25.9354C70.8279 26.2916 71.0382 26.616 71.3078 26.8884C71.5773 27.1608 71.9005 27.3753 72.2572 27.5188C72.6139 27.6623 72.9966 27.7316 73.3814 27.7225ZM13.4449 24.8998C13.4532 24.5267 13.3859 24.1556 13.2468 23.8088C13.1077 23.4619 12.8997 23.1463 12.6352 22.8807C12.3706 22.615 12.0549 22.4048 11.7068 22.2624C11.3587 22.1201 10.9853 22.0485 10.6088 22.052C10.225 22.0451 9.84366 22.1151 9.48773 22.2577C9.13181 22.4003 8.80855 22.6126 8.53731 22.8819C8.26607 23.1512 8.05241 23.4719 7.90912 23.8249C7.76583 24.178 7.69586 24.556 7.70338 24.9365C7.71792 25.6881 8.02953 26.404 8.57116 26.9302C9.11279 27.4563 9.84116 27.7507 10.5995 27.75C10.9753 27.7485 11.3471 27.6735 11.6936 27.5294C12.04 27.3853 12.3544 27.1748 12.6187 26.91C12.883 26.6453 13.0921 26.3315 13.2338 25.9865C13.3756 25.6416 13.4473 25.2723 13.4449 24.8998ZM41.9882 2.56834C41.2587 2.60501 40.5708 2.91591 40.0645 3.43773C39.5582 3.95954 39.2716 4.65303 39.263 5.37697C39.2545 6.1009 39.5246 6.80085 40.0185 7.33426C40.5123 7.86767 41.1927 8.19444 41.9211 8.24801C42.2974 8.26285 42.6728 8.20208 43.0248 8.06936C43.3768 7.93664 43.6981 7.73471 43.9693 7.47573C44.2405 7.21675 44.456 6.90606 44.603 6.56236C44.7499 6.21866 44.8252 5.84905 44.8242 5.47576C44.8464 5.09637 44.789 4.71655 44.6556 4.36027C44.5222 4.00398 44.3157 3.67899 44.0492 3.40578C43.7827 3.13258 43.462 2.91711 43.1072 2.77297C42.7525 2.62883 42.3714 2.55915 41.9882 2.56834ZM60.7982 9.96177C60.2692 9.96693 59.7639 10.1802 59.3935 10.5547C59.0231 10.9291 58.8179 11.4341 58.8231 11.9585C58.8284 12.4829 59.0435 12.9837 59.4213 13.3509C59.799 13.718 60.3085 13.9214 60.8375 13.9162C61.0995 13.9137 61.3583 13.86 61.5994 13.7583C61.8404 13.6565 62.0588 13.5088 62.2422 13.3233C62.4256 13.1379 62.5704 12.9185 62.6683 12.6777C62.7661 12.4368 62.8152 12.1792 62.8126 11.9195C62.81 11.6599 62.7559 11.4033 62.6532 11.1644C62.5506 10.9254 62.4015 10.7089 62.2145 10.5271C62.0274 10.3453 61.8061 10.2018 61.5631 10.1048C61.3201 10.0078 61.0602 9.95921 60.7982 9.96177ZM81.3927 42.0534C81.3963 41.7952 81.3482 41.5388 81.2509 41.2992C81.1537 41.0596 81.0094 40.8415 80.8263 40.6577C80.6433 40.4739 80.4252 40.3281 80.1847 40.2286C79.9442 40.1292 79.6862 40.0781 79.4257 40.0785C79.158 40.0784 78.8931 40.1311 78.6461 40.2335C78.3992 40.3358 78.1753 40.4858 77.9873 40.6747C77.7994 40.8635 77.6511 41.0875 77.5513 41.3337C77.4514 41.5798 77.4019 41.8431 77.4055 42.1084C77.4207 42.629 77.6426 43.1226 78.0232 43.4818C78.4037 43.8409 78.9119 44.0366 79.4372 44.0261C79.6973 44.0274 79.955 43.977 80.1951 43.8778C80.4353 43.7787 80.6529 43.6329 80.8352 43.449C81.0175 43.2651 81.1607 43.0469 81.2565 42.8072C81.3522 42.5675 81.3985 42.3112 81.3927 42.0534ZM4.56221 44.0238C5.08769 44.0398 5.59815 43.8487 5.98163 43.4922C6.3651 43.1357 6.59028 42.643 6.60778 42.1222C6.61268 41.8571 6.56453 41.5936 6.46613 41.3471C6.36773 41.1005 6.22101 40.8757 6.03447 40.6857C5.84792 40.4957 5.62524 40.3442 5.37928 40.24C5.13333 40.1357 4.86898 40.0809 4.6015 40.0785C4.07369 40.0733 3.56543 40.2762 3.18853 40.6425C2.81163 41.0088 2.59696 41.5085 2.59175 42.0317C2.58654 42.5548 2.79121 43.0586 3.16074 43.4322C3.53028 43.8058 4.0344 44.0186 4.56221 44.0238ZM25.1035 11.9138C25.106 11.6559 25.0564 11.4001 24.9575 11.1615C24.8587 10.923 24.7127 10.7064 24.528 10.5247C24.3434 10.343 24.1239 10.1997 23.8825 10.1034C23.6412 10.0072 23.3828 9.95976 23.1226 9.96406C22.8553 9.95844 22.5896 10.0061 22.3413 10.1043C22.093 10.2025 21.8671 10.3492 21.6771 10.5356C21.4871 10.7221 21.3368 10.9445 21.2352 11.1896C21.1336 11.4347 21.0828 11.6976 21.0857 11.9626C21.0887 12.2276 21.1453 12.4893 21.2524 12.7322C21.3594 12.9751 21.5145 13.1941 21.7086 13.3764C21.9027 13.5586 22.1318 13.7003 22.3823 13.7931C22.6327 13.8858 22.8994 13.9277 23.1665 13.9162C23.4271 13.9133 23.6845 13.8589 23.9236 13.7562C24.1627 13.6535 24.3788 13.5046 24.5592 13.3181C24.7395 13.1317 24.8806 12.9114 24.974 12.6703C25.0675 12.4292 25.1115 12.172 25.1035 11.9138Z" fill="#4F4F4F"/>
<path d="M37.3492 66.172V60.2151C37.3492 58.2401 37.3145 56.2629 37.3677 54.288C37.3862 53.5686 37.1943 53.2066 36.4986 52.8744C30.7687 50.1388 28.1522 42.8988 30.7872 37.2146C31.2495 36.2157 31.8019 35.9155 32.5785 36.2386C33.4129 36.5822 33.6233 37.2237 33.191 38.2318C32.2292 40.3747 32.108 42.796 32.8513 45.0227C33.614 47.3367 35.0633 49.1146 37.3492 50.4C37.3492 48.2211 37.3492 46.1728 37.3492 44.1246C37.3123 42.997 37.7032 41.8966 38.4448 41.0407C39.0088 40.3809 39.7583 39.9026 40.5977 39.6668C41.4371 39.4309 42.3283 39.4482 43.1577 39.7165C44.0138 39.9998 44.7623 40.5351 45.3033 41.2511C45.8443 41.9671 46.1521 42.8297 46.1856 43.7236C46.2296 45.9552 46.1856 48.189 46.1856 50.597C46.574 50.3885 46.8791 50.2556 47.1402 50.0838C49.1879 48.7836 50.6621 46.7622 51.2655 44.4272C51.8689 42.0922 51.5567 39.6172 50.3918 37.5013C49.2269 35.3855 47.2959 33.7862 44.9883 33.0259C42.6807 32.2656 40.1681 32.4009 37.9571 33.4045C37.548 33.5877 37.0164 33.881 36.6812 33.755C36.2065 33.5399 35.8328 33.153 35.6365 32.6736C35.4053 32.0687 35.8075 31.5945 36.383 31.2989C39.508 29.7158 42.7278 29.4981 46.0262 30.6826C50.6975 32.362 53.9889 36.6601 54.1553 41.2515C54.3518 46.5921 51.6498 50.9979 46.8305 53.147C46.3682 53.3509 46.1371 53.5617 46.1833 54.0886C46.2319 54.7989 46.1949 55.5137 46.1949 56.3339C46.5347 56.3523 46.8351 56.3798 47.1379 56.382L56.4135 56.405C60.4723 56.4164 63.0772 58.971 63.135 62.9896C63.1466 63.8488 63.1674 64.708 63.1535 65.5671C63.1397 66.4263 62.6288 66.9418 61.8291 66.9418C61.0686 66.9418 60.5902 66.4446 60.5648 65.6061C60.5324 64.6049 60.5648 63.6014 60.5209 62.6001C60.433 60.6321 58.9907 59.1016 57.2179 59.1635C57.2179 59.9837 57.2341 60.8085 57.2179 61.6333C57.1948 62.6162 56.7394 63.1019 55.9027 63.0881C55.066 63.0744 54.6384 62.6047 54.6245 61.6058C54.6106 60.781 54.6245 59.9562 54.6245 59.0604H51.7214C51.7214 59.915 51.7214 60.765 51.7214 61.6127C51.7075 62.5956 51.2591 63.0904 50.4317 63.0904C49.6042 63.0904 49.135 62.5933 49.1234 61.631C49.1234 60.7787 49.1234 59.9287 49.1234 59.0306H46.2041C46.2041 59.8966 46.2041 60.7191 46.2041 61.5508C46.2041 62.6253 45.7881 63.1088 44.9167 63.0973C44.0453 63.0859 43.6084 62.5749 43.6061 61.5371C43.6061 55.9238 43.6061 50.3106 43.6061 44.6974C43.6154 44.3826 43.6085 44.0675 43.5853 43.7534C43.5488 43.3131 43.3497 42.9017 43.0261 42.5979C42.7024 42.2941 42.2771 42.1194 41.8316 42.1072C41.3861 42.095 40.9517 42.2461 40.6116 42.5317C40.2716 42.8173 40.0498 43.2173 39.9888 43.6549C39.9537 43.9675 39.9429 44.2823 39.9565 44.5966C39.9565 52.8744 39.9565 61.1499 39.9357 69.4277C39.9373 69.9534 39.7652 70.4652 39.4456 70.8848C38.951 71.4599 38.105 71.2789 37.5087 70.5686C35.6812 68.3905 33.8621 66.2033 32.0515 64.0069C31.5615 63.4158 30.9906 63.0194 30.2024 63.1225C28.737 63.315 28.1222 64.9554 29.1091 66.1491C30.5653 67.927 32.0677 69.6682 33.5516 71.4186C35.611 73.8564 37.689 76.2781 39.7091 78.7502C40.051 79.1938 40.2485 79.73 40.2754 80.2875C40.3378 82.3495 40.3055 84.4116 40.2985 86.4736C40.2985 87.4587 39.8617 87.9788 39.055 87.9994C38.2114 88.0201 37.7075 87.4702 37.7029 86.4827C37.7029 84.7346 37.6705 82.9888 37.7029 81.2429C37.7214 80.6502 37.5039 80.0741 37.0973 79.6392C33.7442 75.6984 30.4043 71.7478 27.0774 67.7872C26.4194 67.0331 26.0404 66.0792 26.003 65.0829C25.9656 64.0865 26.272 63.1073 26.8717 62.3069C27.4509 61.5062 28.2901 60.9272 29.2487 60.667C30.2073 60.4067 31.2271 60.4809 32.137 60.8772C32.8754 61.256 33.5325 61.7735 34.0717 62.4008C35.1233 63.5464 36.0756 64.7698 37.0765 65.9612C37.1629 66.037 37.254 66.1074 37.3492 66.172Z" fill="#4F4F4F"/>
<path d="M56.5522 83.9854C56.5568 83.8999 56.5568 83.8143 56.5522 83.7288C56.3604 81.8386 56.6886 80.2715 58.2881 78.8693C59.8875 77.4672 60.4931 75.4327 60.5994 73.2951C60.6133 73.0385 60.5994 72.7773 60.6457 72.5252C60.7635 71.7829 61.3206 71.2995 61.9955 71.3339C62.163 71.335 62.3284 71.3707 62.4812 71.4387C62.634 71.5067 62.7709 71.6054 62.8831 71.7287C62.9953 71.852 63.0803 71.9971 63.1329 72.1547C63.1854 72.3124 63.2042 72.4791 63.1882 72.6444C63.0313 74.1695 62.7507 75.6797 62.3492 77.1602C61.8591 78.7915 60.8052 80.1386 59.6079 81.3758C59.3513 81.6609 59.199 82.0232 59.1756 82.4045C59.1248 83.7173 59.1618 85.0347 59.1525 86.3498C59.1525 87.4427 58.6902 87.9949 57.8235 87.9742C56.9567 87.9536 56.5615 87.4267 56.5545 86.3865C56.5476 85.5869 56.5522 84.785 56.5522 83.9854Z" fill="#4F4F4F"/>
</svg>
