<svg width="141" height="175" viewBox="0 0 141 175" fill="none" xmlns="http://www.w3.org/2000/svg">
<path d="M120.113 0.0318924C121.183 1.19824 122.513 2.20513 123.279 3.55373C128.932 13.5087 134.444 23.5503 140.079 33.5189C141.303 35.683 141.311 37.5647 140.079 39.7288C134.358 49.8433 128.695 59.9911 123.09 70.1724C121.932 72.2728 120.448 73.3252 118.04 73.2295C114.958 73.1065 111.876 73.1976 108.544 73.1976V169.554C108.544 173.809 107.39 174.985 103.217 174.985H97.9336C94.7286 174.985 93.3506 173.531 93.3506 170.173C93.3506 138.679 93.3506 107.186 93.3506 75.6944V73.1976H91.7085C88.8469 73.1976 85.9852 73.1976 83.1236 73.1976C82.3479 73.2428 81.5757 73.0592 80.8968 72.668C80.218 72.2768 79.6605 71.6942 79.289 70.988C73.287 60.2569 67.2981 49.5137 61.3224 38.7584C60.9448 38.1217 60.7449 37.3892 60.7449 36.6421C60.7449 35.895 60.9448 35.1625 61.3224 34.5258C63.8891 29.8832 66.4557 25.2451 69.0708 20.6298C69.9293 19.1127 71.3117 18.7345 72.5664 19.5136C73.8211 20.2927 74.1293 21.7142 73.2972 23.2359C71.0989 27.2513 68.8654 31.2439 66.5966 35.2138C66.0331 36.1979 65.9583 36.9314 66.5482 37.9793C71.9545 47.5592 77.3138 57.1664 82.6261 66.8009C82.8154 67.2287 83.1297 67.5841 83.5247 67.8171C83.9196 68.0501 84.3753 68.1488 84.8274 68.0994C95.5577 68.0569 106.288 68.0569 117.018 68.0994C118.181 68.0994 118.779 67.6848 119.321 66.6825C124.622 57.1056 129.956 47.5485 135.324 38.0112C135.603 37.6087 135.753 37.1259 135.753 36.6307C135.753 36.1355 135.603 35.6527 135.324 35.2502C129.93 25.6734 124.57 16.0677 119.246 6.43315C119.059 6.00369 118.745 5.64648 118.35 5.41249C117.954 5.1785 117.498 5.07968 117.045 5.13012C106.315 5.17568 95.5842 5.17568 84.8538 5.13012C83.7928 5.13012 83.1544 5.38526 82.6526 6.41493C81.7324 8.28747 80.6582 10.0826 79.6148 11.8822C78.6683 13.5224 77.3563 14.0099 76.0576 13.249C74.7589 12.4882 74.4375 10.971 75.3752 9.24424C76.4274 7.30792 77.4004 5.31236 78.6199 3.50361C79.5004 2.20058 80.7331 1.15724 81.8117 0L120.113 0.0318924ZM103.459 169.818V73.2979H98.4311V169.818H103.459Z" fill="white" fill-opacity="0.1"/>
<path d="M17.3679 155.808H69.8809C69.7576 155.289 69.6784 154.824 69.5331 154.377C67.6664 148.733 65.7558 143.101 63.9419 137.434C63.5765 136.299 63.013 136.026 61.9212 136.03C49.6499 136.07 37.3802 136.07 25.1119 136.03C24.0861 136.03 23.4389 136.231 23.2584 137.397C23.1187 138.005 22.9256 138.598 22.6817 139.169C22.0301 141.042 20.7754 141.871 19.3666 141.37C17.9578 140.869 17.3855 139.452 17.9886 137.566C18.8031 135.028 19.6396 132.504 20.4804 129.975C24.9622 116.486 29.4454 102.996 33.9301 89.5038C34.9426 86.4558 36.0345 85.6266 39.1426 85.6129C42.1158 85.5947 45.086 85.5947 48.0533 85.6129C51.1086 85.6129 52.1828 86.4193 53.169 89.3899L74.5475 153.726C74.7809 154.418 75.0274 155.093 75.2916 155.863C77.713 155.863 80.0771 155.863 82.4368 155.863C85.4922 155.863 87.0859 157.553 87.0991 160.738C87.1123 163.922 87.1255 167.116 87.0991 170.305C87.0727 173.258 85.4305 174.957 82.5733 174.975C78.3381 175.003 74.1014 175.003 69.8633 174.975C68.0495 174.975 66.9708 174.005 66.9444 172.46C66.9136 170.848 68.0098 169.868 69.9381 169.859C73.9444 169.859 77.9507 169.859 82.0538 169.859V161.12H5.04967V169.859H56.5589C57.1082 169.825 57.6594 169.843 58.2055 169.914C58.7819 170.006 59.3077 170.307 59.6885 170.765C60.0694 171.222 60.2803 171.804 60.2835 172.408C60.2867 173.011 60.0819 173.596 59.7059 174.058C59.3299 174.519 58.8073 174.827 58.2319 174.925C57.7421 174.998 57.2464 175.018 56.7526 174.985H5.23898C1.52327 174.985 0.0220125 173.445 0 169.627C0 166.724 0 163.818 0 160.915C0.026415 157.517 1.61132 155.881 4.84275 155.863C6.77105 155.863 8.69934 155.813 10.6188 155.863C11.539 155.899 12.01 155.621 12.2742 154.674C12.7144 153.038 13.2912 151.43 13.8591 149.831C14.4886 148.054 15.7257 147.343 17.1433 147.881C18.5609 148.418 19.0804 149.703 18.5213 151.525C18.1251 152.828 17.6981 154.118 17.293 155.416C17.3062 155.498 17.3326 155.558 17.3679 155.808ZM61.7099 130.859C60.0765 125.934 58.4916 121.109 56.8275 116.316C56.7086 115.974 55.9822 115.674 55.5376 115.669C47.5734 115.633 39.6049 115.624 31.6408 115.692C31.3291 115.741 31.0327 115.865 30.7752 116.053C30.5177 116.241 30.3061 116.489 30.1571 116.776C29.4219 118.599 28.876 120.521 28.2553 122.399C27.3351 125.178 26.4106 127.957 25.4465 130.859H61.7099ZM54.7407 110.407C54.7399 110.147 54.7149 109.888 54.6659 109.632C52.6935 103.664 50.7388 97.6956 48.6961 91.759C48.5529 91.4948 48.3523 91.2687 48.1101 91.0987C47.8678 90.9286 47.5906 90.8193 47.3005 90.7795C44.9363 90.6792 42.5678 90.8068 40.208 90.702C39.0458 90.6519 38.5879 91.1166 38.2357 92.1964C36.4263 97.8003 34.5464 103.372 32.6974 108.963C32.5477 109.418 32.4684 109.874 32.3452 110.407H54.7407Z" fill="white" fill-opacity="0.1"/>
<path d="M100.875 63.6481C96.7494 63.6481 92.6242 63.6162 88.5035 63.6481C87.6777 63.6961 86.8564 63.4925 86.1412 63.0625C85.4261 62.6325 84.8484 61.995 84.4796 61.2289C80.3706 53.8298 76.2513 46.4429 72.1218 39.0682C71.2061 37.4371 71.1444 35.879 72.0689 34.2524C76.2337 26.8261 80.3809 19.3845 84.5104 11.9278C84.8885 11.1664 85.4721 10.535 86.1904 10.1104C86.9086 9.6858 87.7305 9.48618 88.5563 9.53583C96.8037 9.57228 105.052 9.57228 113.303 9.53583C114.155 9.48905 115.002 9.70139 115.739 10.1467C116.476 10.5919 117.07 11.2507 117.45 12.0417C121.524 19.3921 125.617 26.7274 129.729 34.0474C130.215 34.8157 130.473 35.7154 130.469 36.6341C130.465 37.5529 130.2 38.4502 129.706 39.214C125.597 46.4794 121.533 53.7691 117.512 61.0831C117.11 61.9261 116.474 62.6249 115.684 63.0888C114.894 63.5527 113.988 63.7603 113.083 63.6846C109.015 63.5935 104.947 63.6527 100.875 63.6481ZM100.914 58.5271C104.546 58.5271 108.174 58.4907 111.806 58.5271C112.233 58.5786 112.664 58.4891 113.039 58.2714C113.414 58.0538 113.713 57.7191 113.893 57.3152C117.503 50.7408 121.196 44.2165 124.789 37.633C124.927 37.3072 124.997 36.9546 124.993 36.5986C124.989 36.2427 124.912 35.8917 124.767 35.5691C121.174 28.9856 117.485 22.4568 113.866 15.887C113.708 15.5043 113.438 15.1828 113.093 14.9678C112.749 14.7527 112.348 14.6551 111.947 14.6887C104.633 14.7343 97.3188 14.7343 90.0047 14.6887C89.6038 14.6446 89.1996 14.7316 88.849 14.9376C88.4984 15.1435 88.219 15.458 88.05 15.8369C84.44 22.4067 80.7888 28.9553 77.0966 35.4826C76.8684 35.8154 76.7458 36.2135 76.7458 36.6216C76.7458 37.0297 76.8684 37.4278 77.0966 37.7606C80.7595 44.2393 84.3827 50.7393 87.9664 57.2605C88.5211 58.272 89.1418 58.5408 90.1896 58.5271C93.7733 58.4907 97.3393 58.5271 100.914 58.5271Z" fill="white" fill-opacity="0.1"/>
<path d="M103.397 31.9926C103.397 33.3002 103.446 34.6124 103.397 35.92C103.322 37.5191 102.288 38.5898 100.945 38.5807C100.302 38.5783 99.6852 38.3124 99.2307 37.8412C98.7761 37.3699 98.5203 36.7316 98.5192 36.0658C98.4399 33.2774 98.4355 30.4846 98.5192 27.7008C98.5087 27.37 98.5652 27.0405 98.6851 26.7336C98.8049 26.4267 98.9855 26.1491 99.2152 25.9187C99.4449 25.6883 99.7186 25.5101 100.019 25.3957C100.319 25.2813 100.639 25.2331 100.958 25.2542C102.345 25.2542 103.283 26.1654 103.371 27.7236C103.454 29.1405 103.371 30.5666 103.371 31.9926H103.397Z" fill="white" fill-opacity="0.1"/>
<path d="M100.919 48.0254C99.4657 48.0254 98.4399 46.8226 98.4751 45.1915C98.4632 44.8346 98.5213 44.4789 98.646 44.1459C98.7706 43.8128 98.9592 43.5094 99.2003 43.2539C99.4414 42.9984 99.7301 42.7962 100.049 42.6593C100.368 42.5225 100.71 42.454 101.055 42.4579C102.402 42.5262 103.388 43.6972 103.397 45.2325C103.406 46.891 102.376 48.0436 100.919 48.0254Z" fill="white" fill-opacity="0.1"/>
</svg>
