<svg width="72" height="86" viewBox="0 0 72 86" fill="none" xmlns="http://www.w3.org/2000/svg">
<path d="M61.3345 0.0156728C61.8808 0.588851 62.5597 1.08367 62.9509 1.7464C65.8374 6.63857 68.652 11.5733 71.5296 16.4722C72.1546 17.5357 72.1591 18.4604 71.5296 19.5239C68.6086 24.4944 65.7168 29.4814 62.8542 34.4847C62.263 35.5169 61.5054 36.0341 60.2757 35.9871C58.702 35.9266 57.1284 35.9714 55.4266 35.9714V83.3235C55.4266 85.4147 54.8376 85.9924 52.7064 85.9924H50.0087C48.3721 85.9924 47.6684 85.2782 47.6684 83.628C47.6684 68.1507 47.6684 52.6742 47.6684 37.1984V35.9714H46.8299C45.3686 35.9714 43.9074 35.9714 42.4461 35.9714C42.05 35.9936 41.6557 35.9034 41.309 35.7111C40.9624 35.5189 40.6777 35.2326 40.488 34.8855C37.4231 29.612 34.365 24.3325 31.3136 19.047C31.1208 18.7341 31.0187 18.3741 31.0187 18.007C31.0187 17.6398 31.1208 17.2799 31.3136 16.967C32.6242 14.6855 33.9349 12.4062 35.2702 10.1381C35.7086 9.39251 36.4145 9.20667 37.0552 9.58954C37.6959 9.9724 37.8533 10.671 37.4284 11.4188C36.3058 13.3921 35.1653 15.3542 34.0068 17.3051C33.719 17.7887 33.6808 18.1491 33.9821 18.6641C36.7427 23.3719 39.4794 28.0932 42.1921 32.8279C42.2887 33.0381 42.4492 33.2128 42.6509 33.3273C42.8526 33.4417 43.0853 33.4903 43.3161 33.466C48.7954 33.4451 54.2748 33.4451 59.7541 33.466C60.3476 33.466 60.6534 33.2622 60.9299 32.7697C63.6366 28.0633 66.3605 23.3667 69.1017 18.6798C69.244 18.482 69.3206 18.2447 69.3206 18.0014C69.3206 17.758 69.244 17.5208 69.1017 17.323C66.347 12.6166 63.6103 7.89613 60.8916 3.16144C60.7959 2.95039 60.6357 2.77484 60.4338 2.65985C60.232 2.54486 59.9988 2.4963 59.7676 2.52109C54.2883 2.54348 48.8089 2.54348 43.3296 2.52109C42.7878 2.52109 42.4618 2.64647 42.2056 3.15248C41.7357 4.0727 41.1872 4.95486 40.6544 5.83925C40.171 6.64528 39.5011 6.88485 38.8379 6.51095C38.1747 6.13704 38.0106 5.39146 38.4895 4.54288C39.0268 3.59132 39.5236 2.61065 40.1463 1.72177C40.5959 1.08143 41.2254 0.5687 41.7762 0L61.3345 0.0156728ZM52.83 83.4534V36.0207H50.2627V83.4534H52.83Z" fill="#4F4F4F"/>
<path d="M8.8687 76.5686H35.6839C35.6209 76.3133 35.5805 76.0849 35.5063 75.8655C34.5531 73.0914 33.5774 70.324 32.6512 67.5387C32.4646 66.9812 32.1768 66.8469 31.6193 66.8491C25.3532 66.8686 19.0877 66.8686 12.8231 66.8491C12.2993 66.8491 11.9688 66.9477 11.8766 67.5208C11.8053 67.8195 11.7067 68.111 11.5821 68.3918C11.2494 69.312 10.6087 69.7195 9.88933 69.4732C9.16994 69.2269 8.87769 68.5306 9.18568 67.6037C9.60157 66.3566 10.0287 65.1162 10.4581 63.8735C12.7466 57.2447 15.0359 50.6151 17.326 43.9847C17.8431 42.4868 18.4006 42.0793 19.9877 42.0726C21.5059 42.0637 23.0226 42.0637 24.5379 42.0726C26.098 42.0726 26.6466 42.4689 27.1501 43.9287L38.0668 75.5453C38.186 75.8857 38.3119 76.217 38.4468 76.5954C39.6832 76.5954 40.8904 76.5954 42.0954 76.5954C43.6556 76.5954 44.4694 77.4261 44.4761 78.9911C44.4829 80.5562 44.4896 82.1257 44.4761 83.693C44.4626 85.1438 43.6241 85.979 42.1651 85.9879C40.0024 86.0014 37.839 86.0014 35.6749 85.9879C34.7487 85.9879 34.1979 85.511 34.1844 84.752C34.1687 83.9594 34.7284 83.478 35.7131 83.4735C37.7589 83.4735 39.8046 83.4735 41.8998 83.4735V79.1792H2.57855V83.4735H28.8812C29.1617 83.4566 29.4431 83.4656 29.7219 83.5004C30.0163 83.5457 30.2848 83.6939 30.4793 83.9186C30.6737 84.1432 30.7815 84.4295 30.7831 84.7261C30.7847 85.0227 30.6801 85.3102 30.4881 85.5369C30.2961 85.7637 30.0293 85.9148 29.7354 85.9633C29.4853 85.9989 29.2322 86.0086 28.9801 85.9924H2.67522C0.777838 85.9924 0.0112404 85.2356 0 83.3594C0 81.9331 0 80.5047 0 79.0784C0.0134885 77.4082 0.822799 76.6044 2.47289 76.5954C3.45756 76.5954 4.44222 76.5708 5.42238 76.5954C5.89223 76.6133 6.13278 76.4768 6.26766 76.011C6.49247 75.2073 6.78697 74.4169 7.07697 73.631C7.39845 72.7578 8.03016 72.4085 8.75405 72.6727C9.47793 72.9369 9.7432 73.5683 9.4577 74.4639C9.25537 75.1043 9.0373 75.7379 8.83048 76.376C8.83722 76.4163 8.85071 76.4454 8.8687 76.5686ZM31.5114 64.3079C30.6774 61.8876 29.8681 59.5165 29.0183 57.1611C28.9576 56.9932 28.5867 56.8454 28.3596 56.8432C24.2928 56.8252 20.2238 56.8208 16.157 56.8544C15.9978 56.8785 15.8465 56.9392 15.715 57.0317C15.5835 57.1242 15.4754 57.2459 15.3994 57.3872C15.024 58.2828 14.7452 59.2277 14.4282 60.1501C13.9584 61.5159 13.4863 62.8817 12.9939 64.3079H31.5114ZM27.9527 54.2571C27.9523 54.1293 27.9395 54.0019 27.9145 53.8765C26.9073 50.9435 25.9092 48.0104 24.8661 45.093C24.793 44.9632 24.6905 44.852 24.5668 44.7685C24.4431 44.6849 24.3016 44.6312 24.1534 44.6116C22.9462 44.5624 21.7367 44.6251 20.5318 44.5736C19.9383 44.5489 19.7045 44.7773 19.5246 45.3079C18.6007 48.0619 17.6407 50.8002 16.6965 53.5474C16.6201 53.7713 16.5796 53.9952 16.5167 54.2571H27.9527Z" fill="#4F4F4F"/>
<path d="M51.5104 31.2785C49.4039 31.2785 47.2975 31.2628 45.1933 31.2785C44.7716 31.3021 44.3522 31.202 43.987 30.9907C43.6218 30.7794 43.3268 30.4661 43.1385 30.0896C41.0403 26.4535 38.9368 22.8234 36.8281 19.1992C36.3605 18.3977 36.3291 17.6319 36.8012 16.8326C38.9279 13.1831 41.0456 9.5261 43.1543 5.86164C43.3473 5.48748 43.6453 5.17722 44.0121 4.96855C44.3789 4.75988 44.7986 4.66178 45.2202 4.68618C49.4317 4.70409 53.6438 4.70409 57.8567 4.68618C58.2919 4.66319 58.7243 4.76754 59.1006 4.98636C59.4769 5.20518 59.7806 5.52891 59.9744 5.91762C62.0547 9.52983 64.1446 13.1346 66.2443 16.7319C66.493 17.1094 66.6245 17.5515 66.6225 18.0031C66.6205 18.4546 66.4851 18.8955 66.2331 19.2709C64.1349 22.8413 62.0592 26.4237 60.0059 30.018C59.801 30.4323 59.4758 30.7757 59.0726 31.0037C58.6693 31.2316 58.2065 31.3336 57.7443 31.2964C55.6671 31.2516 53.5899 31.2808 51.5104 31.2785ZM51.5306 28.7619C53.3853 28.7619 55.2377 28.744 57.0924 28.7619C57.3104 28.7872 57.5308 28.7432 57.7222 28.6362C57.9135 28.5293 58.0661 28.3648 58.158 28.1663C60.0014 24.9355 61.8876 21.7293 63.722 18.494C63.7927 18.3338 63.8282 18.1605 63.8263 17.9856C63.8244 17.8107 63.785 17.6382 63.7107 17.4797C61.8763 14.2444 59.9924 11.0359 58.1445 7.80731C58.0637 7.61926 57.9256 7.46124 57.7497 7.35558C57.5738 7.24992 57.369 7.20196 57.1643 7.21846C53.4295 7.24085 49.6947 7.24085 45.9599 7.21846C45.7551 7.19678 45.5488 7.23955 45.3697 7.34076C45.1907 7.44197 45.048 7.59652 44.9617 7.78268C43.1183 11.0113 41.2539 14.2294 39.3685 17.4372C39.2519 17.6007 39.1893 17.7963 39.1893 17.9969C39.1893 18.1975 39.2519 18.3931 39.3685 18.5566C41.2389 21.7405 43.0891 24.9347 44.919 28.1395C45.2023 28.6365 45.5192 28.7686 46.0543 28.7619C47.8842 28.744 49.7052 28.7619 51.5306 28.7619Z" fill="#4F4F4F"/>
<path d="M52.7985 15.7221C52.7985 16.3647 52.8233 17.0095 52.7985 17.6521C52.7603 18.438 52.232 18.9641 51.5464 18.9597C51.2178 18.9585 50.9031 18.8278 50.671 18.5962C50.4389 18.3646 50.3083 18.051 50.3077 17.7237C50.2672 16.3535 50.2649 14.981 50.3077 13.613C50.3023 13.4504 50.3312 13.2885 50.3924 13.1376C50.4536 12.9868 50.5458 12.8504 50.6631 12.7372C50.7804 12.624 50.9201 12.5364 51.0734 12.4802C51.2267 12.4239 51.3901 12.4003 51.5531 12.4107C52.2612 12.4107 52.7401 12.8584 52.7851 13.6242C52.8278 14.3205 52.7851 15.0213 52.7851 15.7221H52.7985Z" fill="#4F4F4F"/>
<path d="M51.5329 23.6011C50.791 23.6011 50.2672 23.01 50.2852 22.2084C50.2791 22.033 50.3088 21.8582 50.3724 21.6945C50.4361 21.5309 50.5324 21.3818 50.6555 21.2562C50.7786 21.1306 50.926 21.0312 51.0888 20.964C51.2516 20.8968 51.4263 20.8631 51.6026 20.865C52.2905 20.8986 52.794 21.474 52.7985 22.2286C52.803 23.0436 52.277 23.61 51.5329 23.6011Z" fill="#4F4F4F"/>
</svg>
