<svg width="22" height="22" viewBox="0 0 22 22" fill="none" xmlns="http://www.w3.org/2000/svg">
<path d="M6.63457 0.554199C3.39677 0.554199 0.771118 3.17985 0.771118 6.41765V15.7992C0.771118 19.037 3.39677 21.6626 6.63457 21.6626H16.0161C19.2539 21.6626 21.8796 19.037 21.8796 15.7992V6.41765C21.8796 3.17985 19.2539 0.554199 16.0161 0.554199H6.63457ZM18.3615 2.89958C19.0088 2.89958 19.5342 3.42495 19.5342 4.07227C19.5342 4.7196 19.0088 5.24496 18.3615 5.24496C17.7142 5.24496 17.1888 4.7196 17.1888 4.07227C17.1888 3.42495 17.7142 2.89958 18.3615 2.89958ZM11.3253 5.24496C14.5631 5.24496 17.1888 7.87062 17.1888 11.1084C17.1888 14.3462 14.5631 16.9719 11.3253 16.9719C8.08754 16.9719 5.46188 14.3462 5.46188 11.1084C5.46188 7.87062 8.08754 5.24496 11.3253 5.24496ZM11.3253 7.59034C10.3923 7.59034 9.49745 7.961 8.83768 8.62076C8.17792 9.28053 7.80726 10.1754 7.80726 11.1084C7.80726 12.0415 8.17792 12.9363 8.83768 13.5961C9.49745 14.2558 10.3923 14.6265 11.3253 14.6265C12.2584 14.6265 13.1532 14.2558 13.813 13.5961C14.4728 12.9363 14.8434 12.0415 14.8434 11.1084C14.8434 10.1754 14.4728 9.28053 13.813 8.62076C13.1532 7.961 12.2584 7.59034 11.3253 7.59034Z" fill="white"/>
</svg>
