<svg width="23" height="22" viewBox="0 0 23 22" fill="none" xmlns="http://www.w3.org/2000/svg">
<path d="M19.7511 0.554199H3.33342C2.0376 0.554199 0.988037 1.60376 0.988037 2.89958V19.3173C0.988037 20.6131 2.0376 21.6626 3.33342 21.6626H19.7511C21.0469 21.6626 22.0965 20.6131 22.0965 19.3173V2.89958C22.0965 1.60376 21.0469 0.554199 19.7511 0.554199ZM8.02418 16.9719H5.06548V8.76303H8.02418V16.9719ZM6.49265 7.25847C5.5885 7.25847 4.98457 6.65571 4.98457 5.85124C4.98457 5.04678 5.58733 4.44401 6.59233 4.44401C7.49647 4.44401 8.10041 5.04678 8.10041 5.85124C8.10041 6.65571 7.49764 7.25847 6.49265 7.25847ZM18.5784 16.9719H15.7147V12.4852C15.7147 11.2444 14.9513 10.9583 14.6651 10.9583C14.379 10.9583 13.4244 11.1495 13.4244 12.4852C13.4244 12.6763 13.4244 16.9719 13.4244 16.9719H10.4657V8.76303H13.4244V9.90875C13.8055 9.24032 14.569 8.76303 16.0008 8.76303C17.4327 8.76303 18.5784 9.90875 18.5784 12.4852V16.9719Z" fill="white"/>
</svg>
