<svg width="57" height="57" viewBox="0 0 57 57" fill="none" xmlns="http://www.w3.org/2000/svg">
<circle cx="28.5" cy="28.5" r="28.5" fill="#17C38C"/>
<path d="M23.0636 37.3422C23.0445 38.0349 22.8388 38.5889 22.4007 39.0332C21.2402 40.2083 20.0858 41.3917 18.8956 42.5341C17.9241 43.4599 16.4802 43.4036 15.562 42.4617C14.6439 41.5198 14.621 40.0955 15.5544 39.1262C16.645 37.9968 17.7474 36.8748 18.8614 35.7602C19.6043 35.0187 20.6741 34.8381 21.641 35.2641C22.5721 35.6733 23.0072 36.4171 23.0636 37.3422Z" fill="white"/>
<path d="M20.6672 23.0637C19.9982 23.0492 19.4481 22.8633 19.0122 22.4358C17.8159 21.2592 16.6136 20.0871 15.4546 18.8747C14.5402 17.9206 14.6035 16.4857 15.5308 15.5728C16.4734 14.6408 17.8982 14.6141 18.8652 15.5415C20.002 16.6307 21.1254 17.7332 22.2353 18.8488C22.5952 19.2034 22.8374 19.66 22.9291 20.1569C23.0208 20.6537 22.9577 21.1667 22.7481 21.6265C22.3359 22.5577 21.5983 23.002 20.6672 23.0637Z" fill="white" fill-opacity="0.2"/>
<path d="M37.2186 22.9928C36.4254 22.9524 35.6878 22.5272 35.2802 21.641C34.858 20.7219 34.9236 19.7869 35.6109 19.05C36.7972 17.7728 38.0316 16.5352 39.311 15.351C40.1964 14.531 41.558 14.6438 42.435 15.4821C42.8644 15.8806 43.1299 16.4249 43.1796 17.0087C43.2294 17.5924 43.0598 18.1738 42.704 18.6392C42.6179 18.7534 42.524 18.8613 42.4228 18.9623C41.3297 20.0577 40.2345 21.1525 39.1372 22.2468C38.6557 22.7246 38.0827 22.9982 37.2186 22.9928Z" fill="white" fill-opacity="0.6"/>
<path d="M35.0089 37.1403C35.0501 36.366 35.5331 35.6162 36.4566 35.2085C37.3801 34.8008 38.2815 34.96 39.0252 35.6558C39.9655 36.5367 40.8699 37.4565 41.7889 38.3603C42.0578 38.6255 42.3382 38.8808 42.5866 39.1635C42.995 39.6195 43.2099 40.2165 43.1857 40.8282C43.1615 41.4398 42.9002 42.018 42.4571 42.4403C41.5427 43.3304 40.14 43.3883 39.2081 42.512C38.0034 41.3796 36.8353 40.209 35.6657 39.0401C35.2162 38.5935 34.9921 38.0296 35.0089 37.1403Z" fill="white" fill-opacity="0.8"/>
<path d="M14.7536 31.3655C13.933 31.3655 13.1123 31.3853 12.2932 31.3601C11.1091 31.3235 10.1308 30.4213 10.0142 29.2904C9.88769 28.0757 10.6177 27.0111 11.7957 26.6994C11.9463 26.6593 12.1015 26.6383 12.2574 26.6369C13.9109 26.6324 15.5651 26.6156 17.2178 26.6369C17.7035 26.6471 18.1737 26.8098 18.5618 27.1021C18.9499 27.3944 19.2363 27.8014 19.3802 28.2654C19.4957 28.6266 19.5231 29.01 19.4602 29.3839C19.3973 29.7578 19.2458 30.1112 19.0185 30.4146C18.7912 30.718 18.4946 30.9626 18.1535 31.128C17.8125 31.2934 17.4367 31.3748 17.0578 31.3655C16.2897 31.3655 15.5217 31.3655 14.7536 31.3655Z" fill="white"/>
<path d="M26.6334 14.7231C26.6334 13.9153 26.6143 13.1075 26.638 12.3013C26.673 11.117 27.5729 10.1378 28.7021 10.0151C29.9159 9.88405 30.988 10.6156 31.2928 11.7899C31.3336 11.9406 31.3554 12.0957 31.3576 12.2517C31.3621 13.9183 31.3804 15.5857 31.3522 17.2515C31.3347 18.2696 30.6276 19.1186 29.6569 19.3982C29.1847 19.535 28.6817 19.5216 28.2176 19.3598C27.7534 19.198 27.351 18.8959 27.0662 18.4952C26.7676 18.0792 26.6139 17.5767 26.6288 17.0648C26.6288 17.0389 26.6288 17.013 26.6288 16.9886V14.7231H26.6334Z" fill="white" fill-opacity="0.4"/>
<path d="M31.3621 43.2656C31.3621 44.0856 31.3842 44.9063 31.3568 45.7263C31.3179 46.9067 30.4028 47.8791 29.2713 47.988C28.0583 48.1046 26.9854 47.3586 26.6943 46.1873C26.6591 46.0488 26.6404 45.9066 26.6387 45.7636C26.6349 44.097 26.6143 42.4297 26.6433 40.7638C26.6623 39.6657 27.4982 38.7352 28.5482 38.544C29.631 38.3481 30.7183 38.8945 31.1435 39.9027C31.2776 40.2533 31.3492 40.6247 31.3553 41.0001C31.3873 41.7537 31.3652 42.5097 31.3652 43.2656H31.3621Z" fill="white" fill-opacity="0.9"/>
<path d="M43.2602 31.3655C42.4396 31.3655 41.6189 31.3853 40.7991 31.3601C39.6272 31.3243 38.6534 30.4365 38.5292 29.3293C38.3882 28.0833 39.1106 27.0103 40.3023 26.7017C40.4532 26.6616 40.6086 26.6406 40.7648 26.6392C42.4182 26.6347 44.0717 26.6187 45.7244 26.6392C46.7112 26.6529 47.5265 27.2801 47.8579 28.1961C48.0194 28.6395 48.0439 29.1211 47.9281 29.5786C47.8123 30.036 47.5617 30.448 47.2087 30.7612C46.7713 31.1614 46.1968 31.3783 45.604 31.367C44.823 31.367 44.042 31.367 43.261 31.367L43.2602 31.3655Z" fill="white" fill-opacity="0.7"/>
</svg>
