<svg width="85" height="83" viewBox="0 0 85 83" fill="none" xmlns="http://www.w3.org/2000/svg">
<path d="M55.1481 58.3766H69.1622C68.9774 58.0066 68.8471 57.722 68.6955 57.4482C65.6156 51.8815 62.5378 46.3134 59.4623 40.744C58.7085 39.3814 58.8308 38.9393 60.1682 38.1899C61.6094 37.3817 63.0479 36.5696 64.4957 35.7721C65.3545 35.2992 66.0073 35.4435 66.3929 36.1568C66.7784 36.8701 66.5484 37.4793 65.6869 37.9708C64.4625 38.6695 63.2274 39.3494 61.9644 40.056C62.1186 40.3579 62.2303 40.5903 62.3632 40.8228C65.4689 46.4425 68.5852 52.0556 71.6696 57.6887C71.9873 58.2684 72.3436 58.4781 72.9844 58.438C74.2474 58.3579 75.5237 58.4207 76.7801 58.2898C78.0364 58.1589 79.0149 57.4295 79.6637 56.3088C80.3896 55.0531 81.1262 53.8055 81.8401 52.5431C82.7069 51.007 82.7614 49.4307 81.9066 47.8812C79.2963 43.172 76.6764 38.4677 74.0467 33.7684C73.9728 33.6596 73.8911 33.5565 73.802 33.4598C73.1945 33.7898 72.6055 34.1197 72.0126 34.4309C71.3053 34.801 70.7363 34.5872 70.3614 33.9273C69.9865 33.2675 70.1513 32.6517 70.82 32.2589C71.7613 31.7059 72.7105 31.1622 73.6811 30.664C74.512 30.2392 75.0704 30.4823 75.6128 31.4534C77.4608 34.76 79.3039 38.0688 81.1421 41.3798C82.0913 43.0856 83.0459 44.7901 83.9898 46.4999C85.3672 48.9912 85.33 51.4731 83.9154 53.9377C80.2026 60.4048 76.4889 66.8714 72.7744 73.3376C71.3031 75.897 69.0948 77.1692 66.1496 77.154C62.9588 77.1366 59.7681 77.1406 56.5866 77.1353H55.6188C55.6188 78.5793 55.6015 79.9405 55.6254 81.291C55.6387 82.031 55.5111 82.6642 54.7214 82.9287C53.9516 83.1852 53.5169 82.7083 53.1061 82.1593C49.7717 77.7066 46.4307 73.2584 43.0831 68.8146C42.5075 68.0545 42.5327 67.416 43.0738 66.6506C46.2858 62.1088 49.4797 57.5533 52.6554 52.9839C53.0622 52.4015 53.5102 51.9901 54.268 52.2199C55.0258 52.4496 55.1574 53.0681 55.1521 53.7681C55.1388 55.2775 55.1481 56.787 55.1481 58.3766ZM76.9955 60.9293C69.351 60.9293 61.8394 60.9293 54.3132 60.9293C53.2124 60.9293 52.8016 60.4791 52.7777 59.3384C52.7657 58.7453 52.7777 58.1522 52.7777 57.5591L52.5118 57.495C52.472 57.5754 52.4276 57.6535 52.3788 57.7287C50.1559 60.9026 47.9424 64.0832 45.6955 67.2383C45.3618 67.7072 45.5626 67.9637 45.8285 68.307C47.8945 71.0454 49.9548 73.7887 52.0092 76.5369C52.2844 76.9055 52.5663 77.2689 53.0183 77.8606C53.0183 77.1927 53.0183 76.792 53.0183 76.3913C53.0063 75.0314 53.3959 74.6267 54.7254 74.6293C58.4413 74.6293 62.1598 74.604 65.8757 74.6627C68.072 74.6961 69.6448 73.8265 70.7283 71.8976C72.6534 68.4673 74.6436 65.0743 76.6046 61.664C76.7375 61.4489 76.8492 61.2098 76.9955 60.932V60.9293Z" fill="#4F4F4F"/>
<path d="M65.7866 13.1302C67.0722 12.3554 68.2661 11.6515 69.444 10.9208C70.0223 10.5614 70.586 10.4132 71.1497 10.8994C71.7134 11.3856 71.6669 11.968 71.3997 12.5972C69.199 17.8006 67.0049 23.0062 64.8174 28.2141C64.4824 29.0156 63.9373 29.3121 63.0798 29.2307C57.5013 28.7035 51.921 28.1905 46.339 27.6918C45.6543 27.6304 45.1318 27.4246 44.9683 26.6873C44.8048 25.9499 45.1837 25.5265 45.774 25.1792C47.0955 24.4031 48.401 23.5989 49.797 22.756L42.6962 10.8473C42.4583 11.2213 42.2854 11.4791 42.1259 11.7463C38.9289 17.1073 35.732 22.4688 32.535 27.8307C31.6802 29.264 31.2561 29.3656 29.8428 28.5133C25.5983 25.9513 21.3519 23.391 17.1038 20.8324C15.8567 20.0804 15.7397 19.6235 16.4643 18.3919C17.0945 17.3233 17.7193 16.2466 18.3655 15.186C18.8374 14.4086 19.4676 14.2162 20.1376 14.6049C20.8077 14.9936 20.9593 15.6562 20.5126 16.4457C20.0313 17.2926 19.5234 18.1248 18.9783 19.0451L30.6365 26.0701C30.812 25.803 30.9782 25.5665 31.1258 25.3194C34.3529 19.9076 37.5831 14.4963 40.8164 9.08537C41.1408 8.55105 41.1527 8.17168 40.8084 7.65473C40.2168 6.77042 39.7275 5.81933 39.1558 4.92167C38.1667 3.3708 36.8173 2.46379 34.9015 2.54661C33.8127 2.59202 32.7185 2.54661 31.627 2.53325C29.7139 2.50119 28.2834 3.32004 27.3102 4.96842C26.337 6.61681 25.3878 8.23714 24.4093 9.85613C23.8921 10.7084 23.0718 10.8553 22.415 10.2569C21.9391 9.81606 21.8553 9.29643 22.1877 8.73406C23.3204 6.82653 24.38 4.86824 25.6178 3.03284C26.9632 1.03314 28.9468 0.0539944 31.3518 0.036629C34.6263 0.0139203 37.9021 0.0232709 41.1766 0.0219351C45.2488 0.0205993 49.3184 0.0793747 53.3932 0.00189804C56.7422 -0.0582132 59.1459 1.30832 60.7519 4.26712C62.3579 7.22593 64.0756 10.1286 65.7866 13.1302ZM50.0788 25.5158C54.2481 25.8965 58.1501 26.2411 62.0441 26.6192C62.6318 26.6766 62.8631 26.4428 63.0718 25.9392C64.4758 22.553 65.9089 19.1801 67.3262 15.8018C67.4179 15.5814 67.479 15.349 67.6147 14.9456L66.6082 15.5467C65.1259 16.4363 64.739 16.3375 63.8841 14.8374C62.0814 11.6795 60.244 8.5417 58.4891 5.35313C57.4043 3.38282 55.8302 2.47982 53.5953 2.51054C49.7039 2.56531 45.8112 2.52657 41.9185 2.52657H40.6103C41.3123 3.69006 41.9504 4.74134 42.5819 5.79796C45.7939 11.1804 49.0055 16.5623 52.2166 21.9438C53.0648 23.3665 52.9598 23.7632 51.516 24.6355L50.0788 25.5158Z" fill="#4F4F4F"/>
<path d="M6.15951 37.4418C4.89917 36.7646 3.69067 36.106 2.47021 35.4649C1.85067 35.1403 1.3694 34.7422 1.52096 33.9527C1.67252 33.1633 2.26281 32.9616 2.95015 32.864C8.32125 32.1 13.6919 31.3323 19.0621 30.5611C20.5883 30.342 20.7904 30.4543 21.4671 31.8422C23.8247 36.7134 26.1841 41.5851 28.5453 46.4572C28.8763 47.1371 29.1316 47.793 28.4668 48.3941C27.8446 48.9592 27.2238 48.6947 26.5949 48.35C25.308 47.6461 24.0051 46.9675 22.6437 46.2448L16.1598 58.5222C17.1383 58.5222 17.9241 58.5222 18.7098 58.5222C24.493 58.5079 30.2767 58.4933 36.0608 58.4781C37.4608 58.4781 37.8543 58.8615 37.8596 60.2654C37.8791 65.3344 37.8933 70.4042 37.9021 75.4749C37.9021 76.7653 37.5033 77.166 36.211 77.178C35.2073 77.1874 34.2035 77.2034 33.2011 77.178C32.3303 77.1607 31.8982 76.7332 31.8942 75.9558C31.8902 75.1783 32.3409 74.7295 33.1852 74.6921C33.8871 74.6614 34.5917 74.6921 35.3296 74.6921V60.9868C32.9512 60.9868 30.6552 60.9868 28.3591 60.9868C24.1394 60.9974 19.9209 61.0308 15.7012 61.0148C15.0484 61.0148 14.6815 61.2032 14.4049 61.7949C13.9423 62.7861 13.3719 63.7265 12.9026 64.7137C12.1422 66.3166 12.0903 67.8955 13.0821 69.4477C13.6857 70.3948 14.2348 71.378 14.8104 72.3478C15.7823 74.0015 17.2354 74.8003 19.1312 74.7976C21.0789 74.7976 23.0253 74.7602 24.973 74.7589C26.0365 74.7589 26.559 75.189 26.555 76.0052C26.5511 76.8214 26.0233 77.2502 24.9597 77.2609C23.2486 77.2809 21.5336 77.2141 19.8266 77.3076C16.5707 77.4866 14.1763 76.0907 12.5144 73.3683C9.6228 68.6182 6.78171 63.836 3.92067 59.0672C3.05252 57.6232 2.21894 56.1578 1.3242 54.7325C-0.390828 52.0168 -0.434701 49.3078 1.162 46.5173C2.72015 43.7963 4.20917 41.0405 5.7261 38.2914C5.86038 38.039 5.98535 37.7785 6.15951 37.4418ZM10.1479 64.5961C10.8127 63.3244 11.4123 62.1703 12.0199 61.0201C14.9332 55.4988 17.8478 49.9775 20.7638 44.4562C21.4405 43.1738 21.9431 43.0255 23.2367 43.7108L24.6472 44.4575C24.6565 44.3012 24.6805 44.2384 24.6605 44.1903C22.9415 40.6197 21.2278 37.0465 19.4756 33.4919C19.3812 33.2995 18.965 33.1406 18.7231 33.1699C16.8498 33.3944 14.9819 33.6629 13.114 33.93C11.0626 34.2239 9.01257 34.5311 6.73252 34.8651C7.23772 35.1456 7.5302 35.3166 7.83864 35.4782C9.29309 36.2556 9.43402 36.7192 8.65229 38.1378C6.86148 41.3731 5.08928 44.6205 3.2679 47.8371C2.21628 49.6952 2.2442 51.4651 3.36229 53.2845C5.07998 56.083 6.74315 58.9149 8.43026 61.7335C8.99396 62.6792 9.55766 63.6116 10.1493 64.5961H10.1479Z" fill="#4F4F4F"/>
</svg>
