<svg width="151" height="147" viewBox="0 0 151 147" fill="none" xmlns="http://www.w3.org/2000/svg">
<path d="M97.969 103.39H122.865C122.536 102.735 122.305 102.231 122.036 101.746C116.564 91.8864 111.097 82.0249 105.633 72.161C104.294 69.7478 104.511 68.9648 106.887 67.6375C109.447 66.2062 112.003 64.7678 114.575 63.3554C116.1 62.5179 117.26 62.7734 117.945 64.0368C118.63 65.3001 118.221 66.3789 116.691 67.2495C114.516 68.4869 112.322 69.6911 110.078 70.9426C110.352 71.4773 110.55 71.8889 110.786 72.3006C116.304 82.2536 121.84 92.1948 127.319 102.171C127.883 103.198 128.516 103.57 129.655 103.499C131.898 103.357 134.166 103.468 136.398 103.236C138.629 103.004 140.368 101.712 141.52 99.7276C142.81 97.5037 144.118 95.294 145.386 93.0583C146.926 90.3376 147.023 87.5459 145.505 84.8016C140.868 76.4613 136.213 68.1296 131.542 59.8067C131.411 59.614 131.265 59.4313 131.107 59.2602C130.028 59.8445 128.982 60.4289 127.928 60.9801C126.672 61.6354 125.661 61.2569 124.995 60.0882C124.329 58.9195 124.622 57.8288 125.81 57.1333C127.482 56.1538 129.168 55.1909 130.892 54.3085C132.368 53.5561 133.36 53.9867 134.324 55.7067C137.607 61.5629 140.881 67.423 144.147 73.2871C145.833 76.3083 147.529 79.3271 149.205 82.3553C151.652 86.7676 151.586 91.1633 149.073 95.5282C142.478 106.982 135.88 118.435 129.282 129.887C126.668 134.42 122.745 136.673 117.513 136.646C111.845 136.615 106.176 136.623 100.524 136.613H98.8051C98.8051 139.171 98.7744 141.581 98.8169 143.973C98.8405 145.284 98.6138 146.405 97.2109 146.874C95.8435 147.328 95.0711 146.483 94.3414 145.511C88.418 137.625 82.4829 129.747 76.5359 121.876C75.5132 120.53 75.5581 119.399 76.5194 118.044C82.2254 110 87.8992 101.932 93.5407 93.839C94.2634 92.8075 95.0593 92.0789 96.4055 92.4858C97.7518 92.8927 97.9856 93.9881 97.9761 95.2278C97.9525 97.9011 97.969 100.575 97.969 103.39ZM136.78 107.911C123.2 107.911 109.856 107.911 96.4858 107.911C94.5303 107.911 93.8005 107.114 93.758 105.093C93.7367 104.043 93.758 102.992 93.758 101.942L93.2856 101.828C93.215 101.971 93.1362 102.109 93.0495 102.242C89.1006 107.864 85.1682 113.497 81.1768 119.085C80.584 119.915 80.9406 120.369 81.413 120.977C85.0832 125.827 88.7431 130.686 92.3929 135.553C92.8818 136.206 93.3825 136.85 94.1855 137.898C94.1855 136.715 94.1855 136.005 94.1855 135.295C94.1642 132.887 94.8562 132.17 97.218 132.175C103.819 132.175 110.425 132.13 117.026 132.234C120.928 132.293 123.722 130.753 125.647 127.337C129.067 121.261 132.602 115.252 136.086 109.212C136.322 108.831 136.52 108.408 136.78 107.916V107.911Z" fill="white" fill-opacity="0.1"/>
<path d="M116.868 23.2547C119.152 21.8825 121.273 20.6357 123.365 19.3416C124.393 18.7052 125.394 18.4426 126.395 19.3038C127.397 20.1649 127.314 21.1964 126.839 22.3107C122.93 31.5264 119.032 40.746 115.146 49.9696C114.551 51.3891 113.583 51.9143 112.059 51.77C102.149 50.8362 92.2362 49.9278 82.3199 49.0445C81.1036 48.9357 80.1754 48.5714 79.8849 47.2654C79.5944 45.9595 80.2675 45.2095 81.3161 44.5944C83.6637 43.2199 85.983 41.7956 88.4629 40.3028L75.8486 19.2115C75.4259 19.8739 75.1188 20.3305 74.8354 20.8037C69.1561 30.2985 63.4768 39.7942 57.7975 49.2906C56.2789 51.8291 55.5255 52.0089 53.0149 50.4995C45.4746 45.9619 37.931 41.4274 30.3844 36.896C28.169 35.5641 27.9612 34.7549 29.2483 32.5737C30.3678 30.681 31.4779 28.7741 32.6257 26.8957C33.4641 25.5188 34.5836 25.1781 35.7739 25.8665C36.9643 26.555 37.2335 27.7285 36.44 29.1267C35.585 30.6266 34.6828 32.1005 33.7145 33.7305L54.4249 46.1724C54.7367 45.6992 55.0319 45.2805 55.294 44.8428C61.0269 35.2581 66.7652 25.6741 72.5091 16.091C73.0853 15.1446 73.1066 14.4727 72.4949 13.5572C71.4439 11.991 70.5748 10.3065 69.5592 8.71669C67.802 5.96997 65.4048 4.36357 62.0015 4.51026C60.0672 4.59069 58.1235 4.51026 56.1844 4.4866C52.7858 4.42982 50.2446 5.88007 48.5157 8.79949C46.7869 11.7189 45.1006 14.5887 43.3623 17.456C42.4436 18.9654 40.9864 19.2257 39.8197 18.1658C38.9742 17.3851 38.8254 16.4648 39.4158 15.4688C41.428 12.0904 43.3104 8.62206 45.5092 5.37142C47.8993 1.82978 51.4231 0.0956287 55.6956 0.064873C61.5126 0.024654 67.332 0.0412148 73.1491 0.0388489C80.3832 0.0364831 87.6126 0.140579 94.8515 0.00336158C100.801 -0.1031 105.071 2.31714 107.924 7.55744C110.777 12.7977 113.828 17.9387 116.868 23.2547ZM88.9636 45.1906C96.3701 45.8649 103.302 46.4752 110.22 47.1448C111.263 47.2465 111.674 46.8325 112.045 45.9406C114.539 39.9432 117.085 33.9695 119.603 27.9863C119.766 27.596 119.875 27.1843 120.115 26.4698L118.328 27.5345C115.694 29.1101 115.007 28.935 113.488 26.2782C110.286 20.6854 107.022 15.1281 103.904 9.48085C101.977 5.99126 99.1806 4.39197 95.2105 4.44638C88.2976 4.54338 81.3823 4.47477 74.467 4.47477H72.143C73.39 6.5354 74.5237 8.3973 75.6455 10.2687C81.3516 19.8014 87.0568 29.3333 92.7613 38.8644C94.2681 41.384 94.0816 42.0866 91.5167 43.6315L88.9636 45.1906Z" fill="white" fill-opacity="0.1"/>
<path d="M10.9422 66.3127C8.70323 65.1132 6.55637 63.9468 4.38826 62.8113C3.28767 62.2364 2.4327 61.5313 2.70194 60.1331C2.97119 58.7349 4.01982 58.3777 5.24086 58.205C14.7824 56.8517 24.3232 55.4922 33.8633 54.1263C36.5746 53.7383 36.9336 53.937 38.1357 56.3951C42.3239 65.0225 46.5153 73.6507 50.7098 82.2796C51.2979 83.4838 51.7514 84.6454 50.5705 85.7101C49.4652 86.7108 48.3622 86.2424 47.2451 85.632C44.9589 84.3852 42.6444 83.1834 40.2259 81.9034L28.7075 103.648C30.4458 103.648 31.8416 103.648 33.2374 103.648C43.5111 103.622 53.7857 103.596 64.061 103.57C66.5479 103.57 67.247 104.249 67.2565 106.735C67.2911 115.713 67.3163 124.692 67.332 133.672C67.332 135.958 66.6235 136.668 64.3279 136.689C62.5447 136.705 60.7616 136.734 58.9808 136.689C57.4338 136.658 56.6662 135.901 56.6592 134.524C56.6521 133.147 57.4527 132.352 58.9524 132.286C60.1995 132.232 61.4512 132.286 62.762 132.286V108.013C58.5368 108.013 54.458 108.013 50.3792 108.013C42.8829 108.032 35.389 108.091 27.8927 108.062C26.7331 108.062 26.0812 108.396 25.5899 109.444C24.768 111.199 23.7548 112.865 22.9211 114.613C21.5702 117.452 21.4781 120.249 23.24 122.998C24.3122 124.675 25.2876 126.416 26.3103 128.134C28.0368 131.063 30.6182 132.478 33.9861 132.473C37.4461 132.473 40.9037 132.407 44.3637 132.404C46.2532 132.404 47.1813 133.166 47.1743 134.612C47.1672 136.057 46.2295 136.817 44.3401 136.835C41.3005 136.871 38.2538 136.753 35.2213 136.918C29.4373 137.235 25.1837 134.763 22.2315 129.941C17.0946 121.529 12.0475 113.059 6.96496 104.613C5.42271 102.056 3.94188 99.4602 2.3524 96.9359C-0.694294 92.1262 -0.772233 87.3283 2.06426 82.3861C4.83227 77.5669 7.47746 72.6862 10.1723 67.8173C10.4108 67.3702 10.6328 66.9089 10.9422 66.3127ZM18.0275 114.405C19.2084 112.153 20.2736 110.109 21.3529 108.072C26.5284 98.2931 31.7062 88.5144 36.8863 78.7356C38.0885 76.4644 38.9812 76.2018 41.2793 77.4155L43.7851 78.738C43.8016 78.4612 43.8441 78.35 43.8087 78.2648C40.7549 71.941 37.7106 65.6124 34.5978 59.3169C34.4301 58.9763 33.6909 58.6947 33.261 58.7468C29.9333 59.1442 26.615 59.6198 23.2967 60.0929C19.6524 60.6134 16.0106 61.1575 11.9601 61.749C12.8576 62.2458 13.3772 62.5486 13.9251 62.8349C16.5089 64.2118 16.7593 65.0328 15.3705 67.5453C12.1892 73.2753 9.04096 79.0266 5.80532 84.7235C3.93716 88.0144 3.98675 91.1491 5.97301 94.3713C9.02443 99.3277 11.979 104.343 14.9761 109.335C15.9775 111.01 16.9789 112.662 18.0299 114.405H18.0275Z" fill="white" fill-opacity="0.1"/>
</svg>
