<svg width="80" height="80" viewBox="0 0 80 80" fill="none" xmlns="http://www.w3.org/2000/svg">
<path d="M5.34522 6.67004C5.34522 5.74684 5.34522 4.92081 5.34522 4.09258C5.37613 1.76469 7.06514 0.0242949 9.39002 0.0132517C13.2758 -0.00883449 17.1595 0.0132517 21.0453 0.0132517C22.0366 0.0132517 22.6372 0.507983 22.6614 1.3053C22.6857 2.10261 22.0609 2.67243 21.0365 2.67464C17.2905 2.67464 13.5437 2.67464 9.79626 2.67464C8.43843 2.67464 8.01452 3.11637 8.01011 4.47025C8.01011 5.16376 8.01011 5.85506 8.01011 6.61041H31.9786C31.9786 5.68941 32.0448 4.75075 31.9565 3.82754C31.8859 3.06557 31.3317 2.68348 30.5612 2.67685C29.3667 2.67685 28.1745 2.67685 26.98 2.67685C25.9445 2.67685 25.3263 2.15562 25.3396 1.32517C25.3528 0.494732 25.9445 0.0154604 26.9359 0.00883449C28.1855 0.00883449 29.4329 -0.0110431 30.6892 0.00883449C31.7414 0.014634 32.7489 0.435344 33.493 1.17965C34.237 1.92395 34.6576 2.93177 34.6634 3.98436C34.681 4.83909 34.6634 5.69604 34.6634 6.66121C35.1491 6.66121 35.5818 6.66121 36.0146 6.66121C37.0686 6.66121 38.0794 7.08006 38.8247 7.82561C39.57 8.57117 39.9887 9.58236 39.9887 10.6367C40.0167 13.7465 40.0167 16.8562 39.9887 19.966C39.9956 20.4961 39.8959 21.0221 39.6956 21.5129C39.4952 22.0037 39.1983 22.4492 38.8224 22.823C38.4465 23.1967 37.9994 23.4911 37.5076 23.6885C37.0157 23.886 36.4892 23.9825 35.9594 23.9724C25.3307 23.9871 14.7014 23.9871 4.07129 23.9724C1.75304 23.9724 0.0397414 22.2276 0.0264943 19.8975C1.64498e-09 16.9181 0 13.9121 0.0176629 10.9216C0.0176629 8.37068 1.69784 6.68992 4.23025 6.67225L5.34522 6.67004ZM20.001 21.3331C25.1909 21.3331 30.3816 21.3331 35.573 21.3331C36.8778 21.3331 37.3216 20.8914 37.3238 19.5839C37.3238 16.7524 37.3238 13.9202 37.3238 11.0873C37.3238 9.7842 36.8823 9.33806 35.5752 9.33806H4.43117C3.12412 9.33806 2.68255 9.77978 2.68034 11.0851C2.68034 13.8827 2.68034 16.6876 2.68034 19.4999C2.68034 20.9157 3.09762 21.3331 4.51286 21.3331C9.67483 21.336 14.8375 21.336 20.001 21.3331Z" fill="#4F4F4F"/>
<path d="M53.5118 25.3351C53.5913 25.2446 53.6156 25.2269 53.62 25.207C54.5782 20.9797 57.1018 19.1421 61.6588 18.7225C62.8643 18.6121 64.0875 18.7446 65.3106 18.8197C65.6074 18.826 65.8911 18.9425 66.1066 19.1467C66.3221 19.3508 66.4539 19.6279 66.4764 19.924C66.823 22.4948 66.6972 25.0259 65.6595 27.4333C64.4341 30.2846 62.0121 31.3912 59.1507 31.7998C58.2477 31.9301 57.3314 31.9588 56.3909 32.0361L57.3005 37.0298C57.5699 36.8862 57.8083 36.7692 58.0357 36.6344C66.9643 31.4066 77.891 36.4953 79.6374 46.6881C80.4389 51.3571 79.8162 55.9334 78.7013 60.4566C78.2001 62.5018 77.4627 64.4896 76.7826 66.4773C76.436 67.4933 75.7317 67.8445 74.9523 67.5198C74.173 67.1952 73.9345 66.484 74.3253 65.4879C76.3322 60.3418 77.5179 55.0323 77.2794 49.4864C77.1271 45.9173 76.0452 42.6794 73.3229 40.1616C70.2496 37.3213 63.9484 36.1684 59.7777 38.726C58.8548 39.2914 57.932 39.8568 57.04 40.4664C56.3269 40.9523 55.702 40.8949 54.9646 40.4664C53.291 39.499 51.6374 38.4389 49.849 37.741C47.8134 36.9481 45.6386 37.2551 43.5257 37.6946C42.5388 37.9 41.8566 37.5753 41.6667 36.8111C41.4636 35.9895 41.9272 35.3667 42.945 35.1281C46.8309 34.2204 50.5445 34.5362 54.002 36.6742C54.1168 36.7449 54.2382 36.8023 54.5385 36.9635C54.3928 36.0469 54.3022 35.2717 54.1433 34.5097C53.2469 30.1897 51.5557 26.2605 48.3653 23.1066C47.6808 22.4586 46.9567 21.8537 46.1972 21.2955C45.3141 20.6109 45.0756 19.8909 45.5945 19.1907C46.1133 18.4906 46.8353 18.4862 47.7184 19.0958C49.82 20.5633 51.6191 22.4222 53.0173 24.5709C53.1586 24.8139 53.3131 25.0414 53.5118 25.3351ZM64.1095 21.3949C62.3278 21.2403 60.7978 21.3441 59.3759 21.9118C58.6098 22.2187 57.7885 22.7046 57.3005 23.3451C55.9758 25.0855 55.9074 27.1683 56.0089 29.4741C57.4595 29.2731 58.8085 29.1627 60.1222 28.8822C61.9745 28.4824 63.1447 27.2632 63.5421 25.4235C63.8291 24.1358 63.9241 22.8085 64.1162 21.3949H64.1095Z" fill="#4F4F4F"/>
<path d="M31.9963 73.3528H8.02114C8.02114 74.287 7.9792 75.1948 8.03218 76.0981C8.07855 76.8778 8.64597 77.3106 9.54236 77.3151C11.567 77.3261 13.5938 77.3151 15.6184 77.3151C16.7223 77.3151 17.3538 77.8297 17.3317 78.68C17.3096 79.5303 16.698 79.9764 15.636 79.9787C13.5827 79.9787 11.5294 79.9919 9.47612 79.9787C7.04748 79.961 5.3673 78.2515 5.34522 75.811C5.34522 75.0115 5.34522 74.2119 5.34522 73.3152C4.85729 73.3241 4.41571 73.3241 3.97414 73.3241C2.93385 73.3172 1.93771 72.9026 1.19962 72.1692C0.46153 71.4358 0.0403427 70.4421 0.0264943 69.4016C-0.00883143 66.2388 -0.00883143 63.0731 0.0264943 59.9045C0.0507807 57.6959 1.81265 55.9974 4.06246 55.993C12.1388 55.9798 20.2151 55.9798 28.2915 55.993C29.2894 55.993 29.8568 56.4878 29.8635 57.3182C29.8701 58.1486 29.2894 58.6588 28.2275 58.661C20.4013 58.661 12.5745 58.661 4.74689 58.661C3.00269 58.661 2.68034 58.9901 2.68034 60.7592C2.68034 63.4802 2.68034 66.2042 2.68034 68.9311C2.68034 70.2276 3.12191 70.6693 4.44662 70.6693H32.7491C34.2726 70.6693 34.6589 71.0602 34.6611 72.593C34.6611 73.7305 34.6766 74.8701 34.6611 76.0076C34.6611 76.5296 34.5584 77.0466 34.3586 77.5289C34.1589 78.0113 33.8662 78.4495 33.4972 78.8187C33.1281 79.1878 32.69 79.4807 32.2078 79.6805C31.7257 79.8802 31.2089 79.9831 30.687 79.9831C27.6357 80.0118 24.5823 79.9985 21.5288 79.9831C20.6103 79.9831 20.0275 79.4552 20.012 78.6778C19.9966 77.9003 20.5971 77.3283 21.5575 77.3239C24.4277 77.3239 27.2759 77.3239 30.1328 77.3239C31.59 77.3239 31.9874 76.9131 31.9918 75.4289L31.9963 73.3528Z" fill="#4F4F4F"/>
<path d="M55.9913 77.5735C51.7963 80.8356 47.2283 80.7208 42.7618 77.3018C40.3331 75.4466 38.5183 73.0767 37.0986 70.4065C33.6831 64.0015 31.9102 57.1547 32.0338 49.8663C32.1045 45.6169 33.3144 41.7143 36.4296 38.6023C36.6557 38.3572 36.9057 38.1352 37.1759 37.9397C37.3023 37.8395 37.4473 37.7653 37.6025 37.7212C37.7577 37.6772 37.92 37.6642 38.0802 37.6831C38.2405 37.702 38.3954 37.7523 38.5361 37.8312C38.6768 37.9101 38.8005 38.0161 38.9002 38.1429C39.3683 38.6575 39.3595 39.2472 38.9709 39.8215C38.9075 39.9125 38.8333 39.9955 38.7501 40.0688C35.9351 42.5933 34.8024 45.9018 34.7208 49.524C34.5419 57.3094 36.4252 64.589 40.682 71.1685C42.307 73.6797 44.4155 75.716 47.3055 76.7607C50.4959 77.9114 52.4852 77.4034 54.7725 74.8966C55.5762 74.0132 56.3762 74.0058 57.1725 74.8745C59.5194 77.4299 61.5219 77.9224 64.7896 76.7342C67.2513 75.8507 69.1059 74.1656 70.6514 72.1204C71.0533 71.5903 71.3999 71.0161 71.815 70.4992C71.9123 70.3627 72.0358 70.2469 72.1783 70.1584C72.3207 70.07 72.4793 70.0107 72.6448 69.984C72.8103 69.9573 72.9795 69.9637 73.1425 70.0029C73.3055 70.042 73.4592 70.1132 73.5945 70.2121C74.1906 70.6539 74.3937 71.2921 74.0096 71.8995C71.0577 76.5575 67.2315 79.8969 61.3586 79.9698C59.7203 79.9919 58.2676 79.3669 56.9848 78.3796C56.658 78.1278 56.3445 77.8606 55.9913 77.5735Z" fill="#4F4F4F"/>
<path d="M12.0085 39.996C12.0085 36.1927 12.0085 32.3895 12.0085 28.5862C11.993 28.3365 11.9996 28.086 12.0284 27.8375C12.1609 27.1197 12.6024 26.6846 13.3377 26.6824C14.0729 26.6802 14.51 27.1241 14.6624 27.8331C14.6878 28.0263 14.6945 28.2216 14.6822 28.4161C14.6822 36.1331 14.6822 43.8515 14.6822 51.5713C14.6822 51.6553 14.6822 51.737 14.6822 51.8209C14.6513 52.7331 14.1325 53.3184 13.3575 53.3184C12.5826 53.3184 12.0328 52.7353 12.0328 51.8253C12.0019 47.8829 12.0085 43.9494 12.0085 39.996Z" fill="#4F4F4F"/>
<path d="M25.333 28.584C25.3174 28.3343 25.3241 28.0838 25.3528 27.8353C25.4875 27.1197 25.9291 26.6846 26.6643 26.6824C27.3995 26.6802 27.8411 27.1241 27.9758 27.8353C28.0064 28.0836 28.0138 28.3343 27.9978 28.584V51.4057C28.0137 51.6554 28.0064 51.9061 27.9758 52.1544C27.8411 52.8678 27.4017 53.3073 26.6643 53.3073C25.9269 53.3073 25.4875 52.8656 25.355 52.1544C25.3244 51.9068 25.317 51.6569 25.333 51.4079V28.584Z" fill="#4F4F4F"/>
</svg>
