<svg width="147" height="147" viewBox="0 0 147 147" fill="none" xmlns="http://www.w3.org/2000/svg">
<path d="M9.82185 12.2562C9.82185 10.5598 9.82185 9.04199 9.82185 7.52011C9.87864 3.24262 12.9822 0.0446418 17.2542 0.0243501C24.3944 -0.0162334 31.5305 0.0243501 38.6707 0.0243501C40.4923 0.0243501 41.5958 0.933419 41.6404 2.39848C41.685 3.86354 40.5369 4.9106 38.6545 4.91466C31.7712 4.91466 24.8866 4.91466 18.0006 4.91466C15.5056 4.91466 14.7267 5.72633 14.7186 8.21409C14.7186 9.48841 14.7186 10.7587 14.7186 12.1466H58.7607C58.7607 10.4543 58.8824 8.7295 58.7201 7.03311C58.5903 5.63298 57.572 4.93089 56.1561 4.91871C53.9613 4.91871 51.7706 4.91871 49.5758 4.91871C47.6731 4.91871 46.5371 3.96094 46.5615 2.43501C46.5858 0.909069 47.6731 0.0284084 49.4946 0.0162334C51.7909 0.0162334 54.083 -0.0202917 56.3914 0.0162334C58.3249 0.02689 60.1761 0.799946 61.5433 2.1676C62.9105 3.53525 63.6833 5.38713 63.6939 7.32125C63.7264 8.89183 63.6939 10.4665 63.6939 12.24C64.5864 12.24 65.3816 12.24 66.1768 12.24C68.1135 12.24 69.9709 13.0096 71.3404 14.3796C72.7099 15.7495 73.4792 17.6076 73.4792 19.545C73.5306 25.2591 73.5306 30.9733 73.4792 36.6874C73.4919 37.6615 73.3088 38.6282 72.9406 39.53C72.5724 40.4319 72.0268 41.2505 71.3362 41.9372C70.6455 42.624 69.8239 43.1648 68.9201 43.5276C68.0164 43.8905 67.049 44.0679 66.0753 44.0493C46.5452 44.0763 27.0138 44.0763 7.48099 44.0493C3.22121 44.0493 0.0730249 40.8432 0.0486833 36.5616C3.72529e-09 31.0869 0 25.5635 0.0324555 20.0685C0.0324555 15.3811 3.11978 12.2927 7.77309 12.2603L9.82185 12.2562ZM36.7518 39.1996C46.2883 39.1996 55.8262 39.1996 65.3654 39.1996C67.763 39.1996 68.5785 38.3879 68.5825 35.9853C68.5825 30.7825 68.5825 25.5784 68.5825 20.3729C68.5825 17.9785 67.7711 17.1587 65.3694 17.1587H8.14227C5.74057 17.1587 4.92918 17.9704 4.92512 20.3688C4.92512 25.5094 4.92512 30.6635 4.92512 35.8311C4.92512 38.4325 5.69188 39.1996 8.29238 39.1996C17.7775 39.205 27.264 39.205 36.7518 39.1996Z" fill="white" fill-opacity="0.1"/>
<path d="M98.328 46.5533C98.474 46.3869 98.5187 46.3544 98.5268 46.3179C100.287 38.5502 104.925 35.1737 113.298 34.4026C115.513 34.1997 117.761 34.4432 120.008 34.5812C120.554 34.5927 121.075 34.8069 121.471 35.182C121.867 35.5572 122.109 36.0663 122.15 36.6103C122.787 41.3342 122.556 45.9851 120.649 50.4087C118.398 55.648 113.947 57.6813 108.689 58.4321C107.03 58.6715 105.346 58.7243 103.618 58.8663L105.29 68.0422C105.785 67.7784 106.223 67.5633 106.641 67.3158C123.047 57.7097 143.125 67.0601 146.334 85.7894C147.806 94.3687 146.662 102.778 144.614 111.089C143.693 114.847 142.338 118.5 141.088 122.152C140.451 124.019 139.157 124.664 137.725 124.068C136.293 123.471 135.855 122.164 136.573 120.334C140.261 110.878 142.439 101.122 142.001 90.9313C141.721 84.373 139.733 78.4235 134.731 73.797C129.084 68.5779 117.505 66.4595 109.842 71.159C108.146 72.198 106.45 73.2369 104.811 74.357C103.501 75.2498 102.352 75.1443 100.997 74.357C97.9223 72.5794 94.8837 70.6314 91.5975 69.349C87.857 67.8921 83.861 68.4562 79.9785 69.2638C78.165 69.6412 76.9114 69.0446 76.5625 67.6404C76.1893 66.1307 77.0412 64.9863 78.9115 64.548C86.0517 62.88 92.8755 63.4603 99.2286 67.3888C99.4396 67.5187 99.6627 67.6242 100.214 67.9205C99.9467 66.2363 99.7804 64.8118 99.4883 63.4116C97.8412 55.4735 94.7335 48.2537 88.8713 42.4584C87.6135 41.2676 86.283 40.1562 84.8874 39.1306C83.2646 37.8725 82.8264 36.5495 83.7798 35.263C84.7332 33.9765 86.0598 33.9684 87.6826 35.0885C91.5442 37.785 94.8501 41.2009 97.4192 45.1491C97.6789 45.5955 97.9629 46.0135 98.328 46.5533ZM117.801 39.3132C114.527 39.0291 111.716 39.2198 109.103 40.2628C107.695 40.827 106.186 41.7198 105.29 42.8967C102.856 46.0947 102.73 49.9217 102.916 54.1586C105.582 53.7893 108.061 53.5864 110.474 53.071C113.878 52.3364 116.028 50.0962 116.759 46.7156C117.286 44.3496 117.461 41.9105 117.813 39.3132H117.801Z" fill="white" fill-opacity="0.1"/>
<path d="M58.7931 134.786H14.7389C14.7389 136.502 14.6618 138.17 14.7591 139.83C14.8443 141.263 15.887 142.058 17.5341 142.066C21.2543 142.087 24.9786 142.066 28.6988 142.066C30.7272 142.066 31.8875 143.012 31.847 144.574C31.8064 146.137 30.6826 146.957 28.7312 146.961C24.9583 146.961 21.1853 146.985 17.4124 146.961C12.9497 146.928 9.86241 143.787 9.82185 139.303C9.82185 137.834 9.82185 136.364 9.82185 134.717C8.92526 134.733 8.11387 134.733 7.30249 134.733C5.39094 134.72 3.56054 133.959 2.2043 132.611C0.848061 131.263 0.0741297 129.437 0.0486832 127.525C-0.0162278 121.714 -0.0162278 115.897 0.0486832 110.075C0.0933096 106.016 3.33075 102.895 7.46476 102.887C22.305 102.863 37.1453 102.863 51.9856 102.887C53.8193 102.887 54.862 103.796 54.8741 105.322C54.8863 106.848 53.8193 107.786 51.8679 107.79C37.4875 107.79 23.1056 107.79 8.72241 107.79C5.51743 107.79 4.92512 108.394 4.92512 111.645C4.92512 116.645 4.92512 121.65 4.92512 126.661C4.92512 129.043 5.73651 129.855 8.17067 129.855H60.1766C62.9758 129.855 63.6858 130.573 63.6899 133.39C63.6899 135.48 63.7183 137.574 63.6899 139.664C63.6899 140.623 63.501 141.573 63.134 142.459C62.767 143.346 62.2291 144.151 61.551 144.829C60.8729 145.508 60.0679 146.046 59.1819 146.413C58.2959 146.78 57.3464 146.969 56.3874 146.969C50.7807 147.022 45.1699 146.997 39.5592 146.969C37.8715 146.969 36.8005 145.999 36.7721 144.57C36.7437 143.142 37.8472 142.091 39.6119 142.083C44.886 142.083 50.1194 142.083 55.3691 142.083C58.0467 142.083 58.7769 141.328 58.785 138.601L58.7931 134.786Z" fill="white" fill-opacity="0.1"/>
<path d="M102.884 142.541C95.1758 148.535 86.7819 148.324 78.5748 142.042C74.1121 138.633 70.7773 134.278 68.1687 129.372C61.8926 117.603 58.6349 105.022 58.8621 91.6293C58.9919 83.8211 61.2151 76.65 66.9395 70.9318C67.3549 70.4813 67.8143 70.0734 68.3107 69.7143C68.543 69.5301 68.8094 69.3937 69.0946 69.3127C69.3797 69.2318 69.6781 69.208 69.9725 69.2427C70.2668 69.2774 70.5515 69.3699 70.81 69.5149C71.0686 69.6599 71.296 69.8545 71.4792 70.0876C72.3392 71.0332 72.323 72.1168 71.609 73.172C71.4925 73.3392 71.3563 73.4918 71.2033 73.6265C66.0307 78.2652 63.9495 84.3446 63.7994 91.0003C63.4708 105.306 66.9314 118.682 74.7531 130.772C77.739 135.386 81.6134 139.128 86.9239 141.048C92.7862 143.162 96.4415 142.229 100.645 137.623C102.121 135.999 103.591 135.986 105.054 137.582C109.367 142.277 113.047 143.182 119.051 140.999C123.574 139.376 126.982 136.279 129.822 132.521C130.56 131.547 131.197 130.492 131.96 129.542C132.139 129.292 132.366 129.079 132.628 128.916C132.889 128.754 133.181 128.645 133.485 128.596C133.789 128.547 134.1 128.558 134.399 128.63C134.699 128.702 134.981 128.833 135.23 129.015C136.325 129.826 136.699 130.999 135.993 132.115C130.568 140.674 123.538 146.811 112.746 146.945C109.736 146.985 107.067 145.837 104.71 144.023C104.109 143.56 103.533 143.069 102.884 142.541Z" fill="white" fill-opacity="0.1"/>
<path d="M22.0657 73.4926C22.0657 66.5041 22.0657 59.5156 22.0657 52.5272C22.0371 52.0684 22.0493 51.608 22.1022 51.1514C22.3456 49.8324 23.157 49.0329 24.508 49.0289C25.8589 49.0248 26.6622 49.8405 26.9421 51.1433C26.9889 51.4984 27.0011 51.8572 26.9786 52.2147C26.9786 66.3945 26.9786 80.5771 26.9786 94.7624C26.9786 94.9166 26.9786 95.0667 26.9786 95.221C26.9218 96.8971 25.9685 97.9725 24.5445 97.9725C23.1205 97.9725 22.1103 96.9011 22.1103 95.2291C22.0535 87.9849 22.0657 80.757 22.0657 73.4926Z" fill="white" fill-opacity="0.1"/>
<path d="M46.5493 52.5231C46.5207 52.0643 46.533 51.6039 46.5858 51.1473C46.8333 49.8324 47.6447 49.0329 48.9956 49.0289C50.3466 49.0248 51.158 49.8405 51.4055 51.1473C51.4618 51.6037 51.4754 52.0642 51.446 52.5231V94.458C51.4753 94.9168 51.4617 95.3774 51.4055 95.8338C51.158 97.1446 50.3507 97.9522 48.9956 97.9522C47.6406 97.9522 46.8333 97.1405 46.5899 95.8338C46.5336 95.3788 46.52 94.9195 46.5493 94.462V52.5231Z" fill="white" fill-opacity="0.1"/>
</svg>
