<svg width="68" height="68" viewBox="0 0 68 68" fill="none" xmlns="http://www.w3.org/2000/svg">
<path d="M37.0547 0C38.1172 0.428552 38.9796 1.06253 39.2877 2.2313C39.9181 2.2313 40.5273 2.13922 41.0886 2.25078C41.6685 2.36713 42.1968 2.66367 42.5981 3.09807C42.9994 3.53248 43.2533 4.08256 43.3234 4.6698C43.3654 4.97673 43.3861 5.28619 43.3854 5.59597C43.4078 8.89334 43.4273 12.1913 43.4439 15.4899C43.4439 15.7218 43.4439 15.9538 43.4439 16.3576L44.8074 15.079C46.1302 13.8394 47.7257 13.765 48.9033 14.8807C50.0809 15.9963 50.0756 17.5972 48.9033 18.9873C46.4242 21.9388 43.945 24.8855 41.4658 27.8275C41.31 28.0046 41.163 28.2012 40.9576 28.4544C42.5106 29.4745 42.6541 31.0045 42.6505 32.6638C42.6222 43.9301 42.6169 55.1964 42.6346 66.4627C42.6346 67.5253 42.3052 68.0193 41.6146 67.9963C40.924 67.9733 40.6424 67.4987 40.6424 66.4716V35.7717H27.3895V36.6111C27.3895 46.5044 27.3895 56.3983 27.3895 66.2927C27.3895 66.5141 27.3983 66.7355 27.3895 66.9568C27.3558 67.5855 26.9716 67.9945 26.4173 67.9999C25.863 68.0052 25.4646 67.6032 25.4097 66.9781C25.3902 66.7585 25.4097 66.5353 25.4097 66.314C25.4097 54.9379 25.4061 43.5612 25.3991 32.1839C25.3991 30.7318 25.7178 29.4656 26.9928 28.527C25.5531 27.1688 25.3743 25.4581 25.3884 23.6412C25.4274 18.9484 25.4008 14.2555 25.4026 9.56273C25.4026 7.11361 26.8653 5.85629 29.3427 6.22817C29.3604 6.05994 29.3923 5.89525 29.3958 5.72878C29.4436 3.03705 30.7558 1.89661 33.4688 2.26495C33.7981 1.11211 34.6446 0.430323 35.7354 0.00354175L37.0547 0ZM27.3895 17.1155C27.3895 19.6603 27.3753 22.205 27.3895 24.7498C27.4054 26.6145 28.6751 27.8665 30.5362 27.8771C32.7941 27.8913 35.0519 27.8771 37.3079 27.8771C37.7857 27.8905 38.26 27.7936 38.6943 27.5939C39.1285 27.3943 39.5109 27.0974 39.8119 26.7261C42.3418 23.7085 44.8735 20.6915 47.407 17.6751C47.77 17.243 47.979 16.8092 47.5132 16.331C47.1413 15.9485 46.7217 16.0087 46.1851 16.5081C45.4112 17.2342 44.648 17.9744 43.8706 18.6987C43.4315 19.1077 42.9197 19.2494 42.3424 19.0086C41.7651 18.7677 41.5136 18.3002 41.4676 17.7105C41.4534 17.5334 41.4676 17.3564 41.4676 17.1793C41.4452 13.3282 41.4216 9.47714 41.3968 5.62607C41.3968 5.34096 41.4393 4.97262 41.287 4.79022C41.0461 4.50157 40.6442 4.1527 40.3307 4.17218C40.0173 4.19166 39.6844 4.59188 39.4453 4.89647C39.3231 5.05762 39.3851 5.36752 39.3851 5.60482C39.3851 8.1053 39.3851 10.6064 39.3851 13.108C39.3933 13.3507 39.3755 13.5935 39.332 13.8323C39.2832 14.048 39.162 14.2406 38.9887 14.3779C38.8153 14.5152 38.6002 14.5891 38.379 14.5872C38.1579 14.5854 37.944 14.5079 37.773 14.3677C37.602 14.2274 37.4841 14.0329 37.439 13.8164C37.4008 13.5764 37.3866 13.3331 37.3965 13.0903C37.3965 9.90274 37.3965 6.71516 37.3965 3.52758C37.4052 3.28483 37.3915 3.04178 37.3557 2.80153C37.3293 2.56629 37.2127 2.35046 37.0304 2.19951C36.848 2.04855 36.6143 1.97425 36.3782 1.99224C36.153 1.98114 35.9318 2.05451 35.7579 2.19798C35.584 2.34145 35.4699 2.54468 35.4379 2.76788C35.398 3.00772 35.382 3.25093 35.3901 3.49394C35.3901 6.68151 35.3901 9.86909 35.3901 13.0567C35.3901 13.3205 35.4592 13.657 35.3264 13.8359C35.1032 14.1404 34.7526 14.53 34.4409 14.5442C34.1293 14.5584 33.7415 14.2007 33.4935 13.9155C33.3536 13.7526 33.4032 13.4073 33.4032 13.1434C33.4032 10.643 33.4032 8.1419 33.4032 5.64024C33.4125 5.39754 33.3995 5.15449 33.3643 4.91418C33.2669 4.41479 32.9092 4.07124 32.4399 4.14916C32.0857 4.2076 31.7422 4.52459 31.496 4.81501C31.3561 4.9797 31.4022 5.32325 31.4022 5.58534C31.4022 8.06457 31.4022 10.5438 31.4022 13.023C31.4022 13.2426 31.4022 13.4657 31.3862 13.6853C31.3331 14.2166 31.0161 14.5442 30.5008 14.5849C29.9377 14.6292 29.5765 14.3264 29.4596 13.7739C29.4244 13.5556 29.4113 13.3343 29.4206 13.1133C29.4206 11.7852 29.4206 10.457 29.4082 9.12886C29.4142 8.99574 29.3931 8.86278 29.3462 8.73805C29.2993 8.61331 29.2276 8.4994 29.1354 8.4032C29.0431 8.307 28.9324 8.23053 28.8097 8.17841C28.6871 8.12629 28.5551 8.09961 28.4219 8.09999C27.9048 8.09999 27.494 8.49312 27.4267 9.06866C27.4116 9.26721 27.4081 9.46647 27.416 9.66544L27.3895 17.1155ZM40.6335 33.7175C40.6335 32.8745 40.676 32.0812 40.6211 31.2949C40.589 30.9145 40.4163 30.5596 40.1367 30.2997C39.8571 30.0397 39.4906 29.8932 39.1089 29.8888C35.7277 29.8688 32.3472 29.8688 28.9673 29.8888C28.6067 29.8774 28.2547 30.0005 27.9798 30.2342C27.7048 30.4679 27.5266 30.7955 27.4798 31.1532C27.3877 31.9926 27.4585 32.8515 27.4585 33.7192L40.6335 33.7175Z" fill="#17C38C"/>
<path d="M0 36.7899C0.301042 35.9293 0.745521 35.1784 1.63625 34.8154C2.11292 34.5955 2.64432 34.5228 3.16255 34.6063C3.68079 34.6899 4.16235 34.9261 4.54573 35.2847C4.99729 35.6743 5.42052 36.0975 5.94469 36.5881C5.96948 36.3153 5.99781 36.1347 6.00135 35.9559C6.03323 32.8131 6.06392 29.6698 6.09344 26.5259C6.11292 24.114 7.52427 22.924 9.94677 23.3207C10.4674 22.0031 11.3794 21.1478 12.8775 21.1956C14.2517 21.2381 15.107 22.0368 15.601 23.3313C16.7025 23.0869 17.7384 23.2073 18.5991 24.0396C19.4597 24.872 19.5217 25.9486 19.4845 27.0643C19.8753 27.0199 20.2689 27.0039 20.6621 27.0165C21.3772 27.0765 22.0429 27.4057 22.5248 27.9375C23.0066 28.4693 23.2687 29.1642 23.2581 29.8818C23.2711 34.9063 23.2711 39.9309 23.2581 44.9555C23.2581 46.257 22.7393 47.3532 21.806 48.3343C23.1714 49.3419 23.2882 50.7551 23.2758 52.2709C23.2404 57.0063 23.2634 61.7434 23.2617 66.4804C23.2723 66.7019 23.267 66.9238 23.2457 67.1445C23.2265 67.3691 23.1259 67.5788 22.9628 67.7344C22.7998 67.8899 22.5855 67.9806 22.3603 67.9892C22.1374 68.024 21.9096 67.9738 21.722 67.8485C21.5343 67.7232 21.4007 67.532 21.3474 67.3128C21.2851 67.0556 21.2601 66.7908 21.273 66.5265C21.273 63.0296 21.273 59.5327 21.273 56.0358V55.2832H8.76917V55.9597C8.76917 59.4802 8.76917 63.0001 8.76917 66.5194C8.78133 66.7178 8.77659 66.9168 8.755 67.1144C8.66115 67.6687 8.32115 67.9999 7.75802 67.9892C7.22677 67.9892 6.90094 67.6634 6.8 67.1463C6.77159 66.9267 6.76448 66.7049 6.77875 66.484C6.77875 61.6141 6.79823 56.7442 6.76635 51.876C6.75573 50.4186 7.07802 49.1631 8.3601 48.2546C7.19135 46.8662 6.05802 45.515 4.91583 44.1621C3.53635 42.5187 2.14271 40.8842 0.788021 39.2196C0.462187 38.8176 0.256771 38.3111 0.0053125 37.8525L0 36.7899ZM21.2642 37.5798V30.4768C21.2642 30.3209 21.2642 30.1651 21.2642 30.011C21.2411 29.3912 20.8852 28.9857 20.3787 28.9857C19.8723 28.9857 19.4933 29.3788 19.4933 30.0146C19.4774 31.1639 19.4933 32.3167 19.4933 33.466C19.4933 33.6661 19.4933 33.8645 19.4933 34.0646C19.4508 34.7304 19.0524 35.1696 18.4946 35.1696C17.9368 35.1696 17.5401 34.7357 17.51 34.0663C17.51 33.868 17.51 33.6679 17.51 33.4696C17.51 31.1001 17.51 28.7325 17.51 26.3648C17.51 25.6086 17.1859 25.2208 16.6069 25.219C16.0278 25.2173 15.702 25.5945 15.7002 26.3524C15.7002 28.7856 15.7002 31.2199 15.7002 33.6555C15.7002 33.8326 15.7108 34.0097 15.7002 34.1868C15.694 34.4425 15.5891 34.6858 15.4074 34.8659C15.2257 35.0459 14.9814 35.1487 14.7257 35.1526C14.4699 35.1564 14.2226 35.0612 14.0355 34.8868C13.8485 34.7123 13.7362 34.4723 13.7222 34.2169C13.7124 34.0399 13.7124 33.8626 13.7222 33.6856V24.5231C13.7356 24.3245 13.7285 24.1252 13.7009 23.9281C13.6035 23.4588 13.2812 23.1152 12.8244 23.2197C12.5021 23.2888 12.1957 23.6111 11.9779 23.8944C11.8557 24.0538 11.9159 24.3637 11.9159 24.6028C11.9159 27.6109 11.9159 30.6214 11.9159 33.6342C11.9216 33.8553 11.9139 34.0764 11.8929 34.2966C11.9007 34.5586 11.804 34.813 11.6242 35.0038C11.4443 35.1946 11.1961 35.3062 10.934 35.3139C10.6719 35.3217 10.4175 35.225 10.2267 35.0452C10.036 34.8653 9.92442 34.6171 9.91667 34.355C9.87967 34.1148 9.86485 33.8718 9.8724 33.6289C9.8724 31.3268 9.8724 29.0247 9.8724 26.7225C9.8724 26.5224 9.8724 26.3223 9.8724 26.1257C9.82635 25.5325 9.48104 25.1836 8.95333 25.2137C8.42562 25.2438 8.12281 25.5679 8.09448 26.1169C8.08562 26.294 8.09448 26.4711 8.09448 26.6481C8.06083 30.3882 8.02187 34.1283 7.99708 37.8684C7.99708 38.5307 7.76156 39.0336 7.14177 39.3081C6.52198 39.5826 5.98542 39.3736 5.51437 38.9221C4.845 38.2775 4.15969 37.6488 3.49385 37.0007C3.11135 36.6288 2.70052 36.3472 2.23302 36.7953C1.79385 37.2185 2.04 37.6276 2.3676 38.0154C4.72871 40.8264 7.08983 43.6409 9.45094 46.4589C9.75481 46.8537 10.1482 47.1706 10.5987 47.3833C11.0491 47.5961 11.5437 47.6987 12.0417 47.6826C14.0994 47.6614 16.1589 47.6826 18.2166 47.6826C20.1344 47.6826 21.2642 46.5475 21.2677 44.6261C21.2695 42.2726 21.2642 39.9262 21.2642 37.5798ZM21.2642 53.2201C21.2642 52.464 21.289 51.7786 21.2642 51.0951C21.2576 50.7131 21.0997 50.3493 20.8251 50.0836C20.5505 49.818 20.1817 49.6722 19.7997 49.6784C16.6122 49.6607 13.4294 49.6607 10.2514 49.6784C9.91314 49.6676 9.58284 49.7819 9.32371 49.9996C9.06459 50.2172 8.89488 50.5228 8.84708 50.8578C8.76208 51.6317 8.8276 52.4232 8.8276 53.2184L21.2642 53.2201Z" fill="#17C38C"/>
<path d="M68 37.8525C67.5449 38.5484 67.15 39.294 66.6241 39.9315C64.4389 42.5772 62.2165 45.1892 60.0082 47.8154C59.8967 47.9482 59.7957 48.0917 59.6682 48.2599C60.9078 49.1684 61.246 50.4168 61.2372 51.876C61.2018 56.7459 61.223 61.6158 61.223 66.4858C61.2385 66.7067 61.2308 66.9287 61.2 67.1481C61.0867 67.6917 60.7396 68.014 60.1747 67.9875C59.6434 67.9609 59.3265 67.6333 59.245 67.1126C59.2252 66.915 59.2205 66.716 59.2308 66.5176V51.6423C59.2308 50.1955 58.7137 49.6695 57.2829 49.6695C54.3835 49.6695 51.484 49.6695 48.5846 49.6695C47.2759 49.6695 46.7376 50.2114 46.7323 51.5219C46.7323 52.0708 46.7323 52.6198 46.7323 53.2485H55.7317C55.9313 53.2416 56.1311 53.2464 56.3302 53.2626C56.5664 53.2734 56.7896 53.374 56.9542 53.5439C57.1188 53.7137 57.2123 53.9399 57.2156 54.1764C57.2546 54.7395 56.9323 55.0937 56.3904 55.2159C56.1718 55.2482 55.9503 55.2565 55.7299 55.2407H46.7358V55.9685C46.7358 59.4878 46.7358 63.0072 46.7358 66.5265C46.7476 66.7904 46.7214 67.0546 46.6579 67.311C46.6043 67.5303 46.4702 67.7213 46.2822 67.8463C46.0942 67.9713 45.8662 68.021 45.6432 67.9857C45.4175 67.9769 45.2028 67.8858 45.0396 67.7295C44.8765 67.5732 44.7763 67.3626 44.7578 67.1374C44.7374 66.9167 44.7321 66.6948 44.7419 66.4734C44.7419 61.7363 44.7631 56.9992 44.7295 52.2639C44.7189 50.7515 44.8162 49.3277 46.2188 48.3307C44.9579 47.1035 44.7135 45.6302 44.7277 44.0222C44.7684 39.4622 44.8092 34.9004 44.71 30.3422C44.6675 28.3712 46.1054 26.6109 48.5067 27.0944C48.5067 26.0071 48.5067 24.9162 49.3514 24.0839C50.196 23.2516 51.2231 23.0674 52.3795 23.3419C52.893 22.0262 53.7961 21.1779 55.2518 21.1921C56.6543 21.2062 57.5379 22.0102 58.0408 23.3171C58.1878 23.2941 58.3312 23.2693 58.4747 23.2498C60.389 22.9824 61.8765 24.2504 61.8995 26.1913C61.9384 29.3788 61.9632 32.5664 61.9933 35.754C61.9933 35.9895 61.9933 36.2233 61.9933 36.6253C62.4768 36.179 62.8433 35.8443 63.2064 35.5043C64.9134 33.9105 67.0898 34.4187 67.8991 36.6146C67.9266 36.6766 67.9598 36.7358 67.9982 36.7917L68 37.8525ZM46.7376 37.4788C46.7376 39.935 46.7252 42.3912 46.7376 44.8474C46.7482 46.4412 47.9063 47.6454 49.4824 47.6667C51.7402 47.6968 53.998 47.6808 56.2558 47.6667C56.6455 47.6743 57.0319 47.5947 57.3868 47.4335C57.7416 47.2723 58.0559 47.0337 58.3065 46.7352C60.7927 43.7932 63.2719 40.8458 65.744 37.8932C66.0556 37.5231 66.1406 37.1264 65.7546 36.7775C65.3685 36.4287 64.986 36.5562 64.639 36.8891C63.9519 37.5479 63.2542 38.1925 62.5706 38.8566C62.0925 39.3188 61.5754 39.6021 60.9007 39.3241C60.226 39.046 60.0153 38.4829 60.0153 37.7763C59.9941 34.0345 59.9533 30.2944 59.9179 26.5543C59.9286 26.3557 59.9215 26.1566 59.8967 25.9593C59.8064 25.4864 59.5124 25.2155 59.0219 25.2173C58.8084 25.2012 58.5973 25.2705 58.435 25.4099C58.2726 25.5494 58.1722 25.7476 58.1559 25.961C58.1302 26.1808 58.1213 26.4022 58.1294 26.6233C58.1294 28.991 58.1294 31.3604 58.1294 33.7281C58.1294 33.9902 58.1719 34.3391 58.0284 34.4967C57.7752 34.78 57.3821 35.1342 57.0686 35.1147C56.7552 35.0952 56.4258 34.6861 56.1956 34.378C56.0752 34.2169 56.1425 33.907 56.1425 33.6697C56.1425 30.6379 56.1425 27.6062 56.1425 24.5744C56.1425 24.3318 56.1956 24.0184 56.0699 23.8661C55.845 23.5881 55.4979 23.2286 55.211 23.2374C54.9242 23.2463 54.6072 23.6306 54.3717 23.9086C54.2707 24.0272 54.3345 24.2929 54.3345 24.4912V33.3226C54.3481 33.6319 54.3439 33.9417 54.3221 34.2505C54.3098 34.4983 54.2028 34.7318 54.0232 34.9029C53.8435 35.074 53.605 35.1694 53.357 35.1696C52.8417 35.2086 52.406 34.7853 52.3494 34.2257C52.3405 34.0487 52.3405 33.8714 52.3494 33.6945C52.3494 31.2613 52.3494 28.8269 52.3494 26.3914C52.3494 25.6228 52.0554 25.2385 51.4781 25.2208C50.9008 25.2031 50.5467 25.6086 50.5396 26.3984C50.5396 27.3069 50.5396 28.2136 50.5396 29.1203C50.5396 30.7583 50.5396 32.3964 50.5396 34.0345C50.5396 34.718 50.15 35.1519 49.5904 35.1731C49.0308 35.1944 48.5846 34.7393 48.558 34.0362C48.5385 33.528 48.558 33.018 48.558 32.5097C48.558 31.6473 48.5704 30.7831 48.5456 29.9207C48.5279 29.347 48.1259 28.945 47.6336 28.9963C47.1024 29.0512 46.7925 29.3505 46.7748 29.9119C46.7748 30.089 46.7748 30.266 46.7748 30.4431C46.7488 32.7878 46.7364 35.133 46.7376 37.4788Z" fill="#17C38C"/>
</svg>
